<?xml version="1.0" encoding="UTF-8"?>
<svg id="icons" xmlns="http://www.w3.org/2000/svg" width="20" height="20" viewBox="0 0 20 20">
  <g>
    <path d="M16.29965,3.57523l.73762-.22519c.16051-.049,.3347,.01452,.42251,.15407l.48395,.76913c.09422,.14974,.06234,.34391-.07515,.45766l-.52665,.43572c-.09539,.07892-.13754,.19917-.12362,.32022,.02321,.20189,.02308,.40554-.00038,.60739-.01386,.11924,.02675,.23785,.11959,.3169l.53734,.45754c.13433,.11438,.1644,.30624,.07121,.45435l-.48459,.77015c-.0886,.1408-.26499,.20405-.42637,.15288l-.70256-.22279c-.11323-.03591-.23458-.01244-.33144,.05496-.18001,.12526-.37447,.23115-.5797,.31567-.11366,.04681-.19958,.14008-.22438,.25767l-.13995,.66354c-.03498,.16584-.18506,.2849-.35914,.2849h-.99661c-.17377,0-.32368-.11865-.35897-.28412l-.13955-.65424c-.02478-.11616-.10917-.20876-.22116-.2558-.20548-.08631-.40055-.19296-.58187-.31814-.09533-.06582-.21437-.08891-.32592-.05486l-.71117,.21711c-.10484,.03201-.21553,.016-.30416-.03784-.04706-.02859-.0879-.06784-.11835-.11624l-.48396-.76914c-.09422-.14974-.06234-.3439,.07516-.45766l.52665-.43572c.09539-.07892,.13754-.19917,.12362-.32022-.02321-.20188-.02308-.40552,.00038-.60739,.01386-.11924-.02675-.23785-.11959-.3169l-.53734-.45754c-.13433-.11438-.1644-.30624-.07121-.45435l.48459-.77013c.0886-.1408,.26499-.20405,.42636-.15287l.70256,.22279c.11323,.03591,.23458,.01244,.33144-.05496,.18001-.12526,.37447-.23114,.5797-.31567,.11366-.04681,.19957-.14008,.22437-.25767l.13995-.66355c.03498-.16584,.18506-.2849,.35914-.2849h.99661c.17377,0,.32368,.11865,.35897,.28412l.14524,.68093c.02156,.10107,.0871,.1881,.17969,.23858l.62802,.34242c.08811,.04804,.19271,.0586,.28909,.02918Z" style="fill: none; stroke: #000; stroke-linecap: round; stroke-linejoin: round;"/>
    <ellipse cx="14.2" cy="5.8" rx="1.06565" ry="1.03636" style="fill: none; stroke: #000; stroke-linecap: round; stroke-linejoin: round;"/>
  </g>
  <g>
    <path d="M9.45219,10.38977l.93173-.28445c.20274-.0619,.42279,.01834,.5337,.19462l.61131,.97153c.11902,.18915,.07874,.43441-.09493,.5781l-.66524,.55039c-.12049,.09969-.17373,.25159-.15615,.40449,.02932,.25502,.02916,.51226-.00047,.76723-.01751,.15062,.03379,.30044,.15106,.40029l.67875,.57795c.16968,.14448,.20766,.38683,.08995,.57391l-.61212,.97282c-.11191,.17786-.33472,.25775-.53857,.19311l-.88744-.28142c-.14303-.04536-.29631-.01571-.41866,.06942-.22738,.15822-.47302,.29198-.73225,.39875-.14357,.05913-.2521,.17695-.28343,.32548l-.17678,.83816c-.04418,.20949-.23376,.35987-.45365,.35987h-1.25888c-.21951,0-.40886-.14987-.45344-.35889l-.17627-.8264c-.0313-.14673-.13791-.2637-.27936-.32311-.25955-.10902-.50595-.24374-.73499-.40187-.12042-.08314-.27078-.11231-.41168-.06929l-.89832,.27425c-.13243,.04043-.27225,.02022-.3842-.0478-.05944-.03611-.11103-.08569-.1495-.14682l-.61131-.97154c-.11902-.18915-.07874-.43441,.09493-.5781l.66524-.55039c.1205-.09969,.17373-.25159,.15615-.40449-.02932-.255-.02916-.51224,.00048-.76723,.0175-.15062-.03379-.30044-.15106-.40029l-.67875-.57795c-.16968-.14448-.20766-.38683-.08995-.57391l.61211-.9728c.11191-.17785,.33472-.25774,.53857-.1931l.88744,.28142c.14303,.04536,.29631,.01571,.41866-.06942,.22739-.15822,.47302-.29197,.73226-.39874,.14356-.05913,.25209-.17695,.28342-.32548l.17678-.83816c.04418-.20949,.23376-.35987,.45365-.35987h1.25888c.21951,0,.40886,.14987,.45344,.35889l.18346,.86013c.02723,.12767,.11002,.2376,.22697,.30136l.79329,.43253c.1113,.06069,.24342,.07402,.36516,.03685Z" style="fill: none; stroke: #000; stroke-linecap: round; stroke-linejoin: round; stroke-width: 1.1px;"/>
    <ellipse cx="6.8" cy="13.2" rx="1.67442" ry="1.6284" style="fill: none; stroke: #000; stroke-linecap: round; stroke-linejoin: round; stroke-width: 1.1px;"/>
  </g>
</svg>