<?xml version="1.0" encoding="UTF-8"?>
<svg id="Ebene_2" data-name="Ebene 2" xmlns="http://www.w3.org/2000/svg" width="5.3975mm" height="6.74013mm" viewBox="0 0 15.3 19.10589">
  <g id="icons">
    <g>
      <path d="m6.85704,15.02558c-.31999.0279-.64813.04251-.98119.04251-2.54776,0-4.8014-.8424-5.32582-1.96795" style="fill: none; stroke: #000; stroke-linecap: round; stroke-linejoin: round; stroke-width: 1.1px;"/>
      <path d="m5.87586,11.66427c-2.94137,0-5.32582-1.1228-5.32582-2.50784,0-1.06352,1.4059-1.97242,3.3903-2.33709" style="fill: none; stroke: #000; stroke-linecap: round; stroke-linejoin: round; stroke-width: 1.1px;"/>
      <path d="m.55004,9.15644l-.00004,7.4315c.52443,1.12555,2.84058,1.96795,5.38834,1.96795,2.53859,0,4.72932-.84843,5.26335-1.9679v-3.48786" style="fill: none; stroke: #000; stroke-linecap: round; stroke-linejoin: round; stroke-width: 1.1px;"/>
    </g>
    <g>
      <path d="m12.81431,2.43157l.83972-.26898c.18272-.05853.38103.01735.48099.18403l.55094.9187c.10726.17886.07097.41078-.08556.54666l-.59954.52046c-.10859.09427-.15657.23791-.14073.38249.02642.24115.02628.4844-.00043.72551-.01578.14243.03045.28411.13614.37853l.61172.54652c.15292.13662.18715.36579.08106.5427l-.55166.91992c-.10086.16818-.30167.24373-.48538.1826l-.7998-.26612c-.1289-.04289-.26705-.01486-.37731.06565-.20493.14961-.4263.2761-.65993.37706-.12939.05591-.2272.16732-.25544.30778l-.15932.79258c-.03982.19809-.21067.3403-.40884.3403h-1.13455c-.19783,0-.36848-.14172-.40866-.33937l-.15886-.78146c-.02821-.13875-.12429-.24936-.25177-.30554-.23392-.10309-.45598-.23048-.6624-.38001-.10853-.07862-.24404-.1062-.37103-.06553l-.8096.25933c-.11935.03823-.24536.01912-.34626-.0452-.05357-.03415-.10007-.08103-.13473-.13884l-.55094-.91871c-.10726-.17886-.07096-.41078.08556-.54666l.59954-.52046c.10859-.09427.15657-.23791.14073-.38249-.02642-.24114-.02628-.48439.00043-.72551.01578-.14243-.03046-.2841-.13614-.37852l-.61172-.54652c-.15292-.13662-.18715-.3658-.08106-.5427l.55166-.9199c.10086-.16818.30167-.24373.48538-.1826l.79979.26612c.1289.04289.26705.01486.37731-.06565.20493-.14961.42631-.2761.65994-.37706.12939-.05591.22719-.16733.25543-.30778l.15933-.79259c.03982-.19809.21067-.3403.40884-.3403h1.13455c.19783,0,.36848.14172.40866.33937l.16534.81336c.02454.12073.09916.22468.20456.28498l.71494.40901c.10031.05739.21938.06999.3291.03485Z" style="fill: none; stroke: #000; stroke-linecap: round; stroke-linejoin: round; stroke-width: 1.1px;"/>
      <ellipse cx="10.42405" cy="5.08899" rx="1.25738" ry="1.28304" style="fill: none; stroke: #000; stroke-linecap: round; stroke-linejoin: round; stroke-width: 1.1px;"/>
    </g>
  </g>
</svg>