<?xml version="1.0" encoding="UTF-8"?>
<svg id="icons" xmlns="http://www.w3.org/2000/svg" width="20" height="20" viewBox="0 0 20 20">
  <g>
    <polyline points="12 4.02384 9.98959 6 8 4.03894" style="fill: none; fill-rule: evenodd; stroke: #000; stroke-linecap: round; stroke-linejoin: round; stroke-width: 1.1px;"/>
    <line x1="9.99231" y1="6" x2="9.99231" y2="2" style="fill: none; stroke: #000; stroke-linecap: round; stroke-linejoin: round; stroke-width: 1.1px;"/>
  </g>
  <g>
    <polyline points="17.98858 7.1164 15.16965 7.09217 15.14947 4.29865" style="fill: none; fill-rule: evenodd; stroke: #000; stroke-linecap: round; stroke-linejoin: round; stroke-width: 1.1px;"/>
    <line x1="15.17157" y1="7.0941" x2="18" y2="4.26567" style="fill: none; stroke: #000; stroke-linecap: round; stroke-linejoin: round; stroke-width: 1.1px;"/>
  </g>
  <g>
    <polyline points="2.01142 7.1164 4.83035 7.09217 4.85053 4.29865" style="fill: none; fill-rule: evenodd; stroke: #000; stroke-linecap: round; stroke-linejoin: round; stroke-width: 1.1px;"/>
    <line x1="4.82843" y1="7.0941" x2="2" y2="4.26567" style="fill: none; stroke: #000; stroke-linecap: round; stroke-linejoin: round; stroke-width: 1.1px;"/>
  </g>
  <g>
    <path d="M14.18178,13.60146c-.43055,.90255-2.14278,1.58657-4.18947,1.58657-2.05407,0-3.77128-.67917-4.19408-1.58662" style="fill: none; stroke: #000; stroke-linecap: round; stroke-linejoin: round; stroke-width: 1.1px;"/>
    <ellipse cx="9.99231" cy="10.42189" rx="4.29383" ry="2.02189" style="fill: none; stroke: #000; stroke-linecap: round; stroke-linejoin: round; stroke-width: 1.1px;"/>
    <path d="M5.69848,10.42189l.15012,5.99149c.42281,.90745,2.14001,1.58662,4.19408,1.58662,2.04668,0,3.75891-.68403,4.18947-1.58657l.05399-5.99153" style="fill: none; stroke: #000; stroke-linecap: round; stroke-linejoin: round; stroke-width: 1.1px;"/>
  </g>
</svg>