<?xml version="1.0" encoding="UTF-8"?>
<svg id="icons" xmlns="http://www.w3.org/2000/svg" width="20" height="20" viewBox="0 0 20 20">
  <g>
    <path d="M7.92117,14.68568c-.30041,.0262-.60848,.03991-.92116,.03991-2.39188,0-4.50764-.79086-4.99998-1.84755" style="fill: none; stroke: #000; stroke-linecap: round; stroke-linejoin: round; stroke-width: 1.1px;"/>
    <path d="M7.00001,11.53003c-2.76141,0-4.99998-1.0541-4.99998-2.3544s2.23857-2.3544,4.99998-2.3544" style="fill: none; stroke: #000; stroke-linecap: round; stroke-linejoin: round; stroke-width: 1.1px;"/>
    <path d="M2.00003,9.17563l-.00003,6.97682c.49234,1.05669,2.66679,1.84755,5.05867,1.84755,2.38327,0,4.43997-.79652,4.94133-1.8475v-3.27447" style="fill: none; stroke: #000; stroke-linecap: round; stroke-linejoin: round; stroke-width: 1.1px;"/>
  </g>
  <g>
    <path d="M9.8,9.18476l1.66637-3.56221h6.53363V3.11152h-5.12302v-.59326c-.00002-.28623-.23326-.51826-.52096-.51826h-2.03506c-.28771,0-.52095,.23204-.52095,.51828v6.66649Z" style="fill: none; stroke: #000; stroke-linecap: round; stroke-linejoin: round; stroke-width: 1.1px;"/>
    <polyline points="9.8 9.18476 18 9.18476 18 5.24321" style="fill: none; stroke: #000; stroke-linecap: round; stroke-linejoin: round; stroke-width: 1.1px;"/>
  </g>
</svg>