<?xml version="1.0" encoding="utf-8"?>
<!-- Generator: Adobe Illustrator 27.4.1, SVG Export Plug-In . SVG Version: 6.00 Build 0)  -->
<svg version="1.1" id="icons" xmlns="http://www.w3.org/2000/svg" xmlns:xlink="http://www.w3.org/1999/xlink" x="0px" y="0px"
	 viewBox="0 0 20 20" style="enable-background:new 0 0 20 20;" xml:space="preserve">
<path d="M10,1.5c-4.3,0-7.7,1.7-7.7,3.9v5.3v4.7c0,0.1,0,0.2,0.1,0.2c0.8,1.7,4.1,3,7.7,3c3.6,0,6.7-1.2,7.6-3
	c0-0.1,0.1-0.2,0.1-0.2v-10C17.7,3.2,14.3,1.5,10,1.5z M16.6,15.2c-0.6,1.1-3.1,2.3-6.5,2.3c-3.4,0-6.1-1.1-6.7-2.2v-3.1
	c1.4,1.1,3.9,1.7,6.6,1.7s5.2-0.7,6.6-1.8V15.2z M16.6,10.5c-0.6,1.1-3.2,2.3-6.6,2.3s-6-1.1-6.6-2.3V7.4C4.7,8.5,7.2,9.3,10,9.3
	s5.3-0.7,6.6-1.9V10.5z M10,8.2c-3.9,0-6.6-1.5-6.6-2.8c0-1.3,2.7-2.9,6.6-2.9s6.6,1.5,6.6,2.8S13.9,8.2,10,8.2z"/>
</svg>
