<?xml version="1.0" encoding="utf-8"?>
<!-- Generator: Adobe Illustrator 27.4.1, SVG Export Plug-In . SVG Version: 6.00 Build 0)  -->
<svg version="1.1" id="icons" xmlns="http://www.w3.org/2000/svg" xmlns:xlink="http://www.w3.org/1999/xlink" x="0px" y="0px"
	 viewBox="0 0 20 20" style="enable-background:new 0 0 20 20;" xml:space="preserve">
<g>
	<path d="M3.9,13.7c-1.4,0-2.4,1.1-2.4,2.4c0,1.4,1.1,2.5,2.4,2.5s2.4-1.1,2.4-2.5C6.3,14.7,5.3,13.7,3.9,13.7z M3.9,17.5
		c-0.7,0-1.4-0.6-1.4-1.4s0.6-1.3,1.4-1.3s1.4,0.6,1.4,1.3S4.6,17.5,3.9,17.5z"/>
	<path d="M16.1,6.3c1.4,0,2.5-1.1,2.5-2.4s-1.1-2.4-2.5-2.4c-1.4,0-2.4,1.1-2.4,2.4S14.7,6.3,16.1,6.3z M16.1,2.5
		c0.7,0,1.4,0.6,1.4,1.4s-0.6,1.4-1.4,1.4s-1.3-0.6-1.3-1.4S15.4,2.5,16.1,2.5z"/>
	<path d="M15,9.5H5.2c-1.4,0-2.6-1.2-2.6-2.6c0-1.4,1.2-2.6,2.6-2.6h4.7L9.1,5c-0.2,0.2-0.2,0.6,0,0.8c0.1,0.1,0.2,0.2,0.4,0.2
		c0.1,0,0.3-0.1,0.4-0.2l1.7-1.7c0,0,0,0,0,0l0,0c0,0,0,0,0,0c0,0,0.1-0.1,0.1-0.1c0.1-0.1,0.1-0.3,0-0.4c0,0,0-0.1-0.1-0.1
		c0,0,0,0,0-0.1L9.9,1.6c-0.2-0.2-0.6-0.2-0.8,0c-0.2,0.2-0.2,0.6,0,0.8l0.7,0.8H5.2c-2,0-3.7,1.7-3.7,3.7s1.7,3.7,3.7,3.7H15
		c1.4,0,2.5,1.1,2.5,2.5s-1.1,2.5-2.5,2.5H9.1c-0.3,0-0.5,0.2-0.5,0.5s0.2,0.5,0.5,0.5H15c2,0,3.6-1.6,3.6-3.6S16.9,9.5,15,9.5z"/>
</g>
</svg>
