<?xml version="1.0" encoding="utf-8"?>
<!-- Generator: Adobe Illustrator 27.4.1, SVG Export Plug-In . SVG Version: 6.00 Build 0)  -->
<svg version="1.1" id="icons" xmlns="http://www.w3.org/2000/svg" xmlns:xlink="http://www.w3.org/1999/xlink" x="0px" y="0px"
	 viewBox="0 0 20 20" style="enable-background:new 0 0 20 20;" xml:space="preserve">
<g>
	<path d="M18.4,17.6l-3.1-3.1c0.6-0.7,0.9-1.7,0.9-2.7c0-2.4-2-4.4-4.4-4.4c-0.9,0-1.8,0.3-2.5,0.7C8.7,7.6,7.9,7.3,7,7.3H5.3
		c-1.8,0-3.4,1.3-3.8,3.1c-0.1,0.4,0,0.8,0.2,1.1C1.9,11.8,2.2,12,2.5,12c0.3,0.1,1.4,0.4,2.9,0.5c0,0,0,0,0,0C5.7,12.5,6,12.3,6,12
		c0-0.3-0.2-0.6-0.5-0.6C3.9,11.3,2.8,11,2.8,11l-0.1,0c-0.1,0-0.1,0-0.1-0.1c0,0-0.1-0.1,0-0.2C2.9,9.4,4,8.4,5.3,8.4H7
		c0.6,0,1.1,0.2,1.6,0.5c-0.7,0.8-1.1,1.8-1.1,2.9c0,2.4,2,4.4,4.4,4.4c1,0,1.9-0.4,2.7-0.9l3.1,3.1c0.1,0.1,0.2,0.2,0.4,0.2
		s0.3-0.1,0.4-0.2C18.6,18.2,18.6,17.8,18.4,17.6z M8.5,11.9c0-1.8,1.5-3.3,3.3-3.3c1.8,0,3.3,1.5,3.3,3.3c0,1.8-1.5,3.3-3.3,3.3
		C10,15.2,8.5,13.7,8.5,11.9z"/>
	<path d="M6.4,6.2c1.3,0,2.4-1.1,2.4-2.4c0-1.3-1.1-2.4-2.4-2.4S4,2.5,4,3.8C4,5.1,5.1,6.2,6.4,6.2z M6.4,2.5c0.7,0,1.3,0.6,1.3,1.3
		S7.1,5.1,6.4,5.1S5.1,4.5,5.1,3.8S5.7,2.5,6.4,2.5z"/>
</g>
</svg>
