<?xml version="1.0" encoding="utf-8"?>
<!-- Generator: Adobe Illustrator 27.4.1, SVG Export Plug-In . SVG Version: 6.00 Build 0)  -->
<svg version="1.1" id="icons" xmlns="http://www.w3.org/2000/svg" xmlns:xlink="http://www.w3.org/1999/xlink" x="0px" y="0px"
	 viewBox="0 0 20 20" style="enable-background:new 0 0 20 20;" xml:space="preserve">
<path d="M14,2.5c-2.1,0-3.4,1.7-4,3c-0.6-1.3-1.8-3-4-3C3.4,2.5,1.5,4.4,1.5,7c0,4.2,6,8.6,7.9,10.1c0.2,0.1,0.4,0.3,0.4,0.3h0
	c0.1,0.1,0.3,0.2,0.4,0.2c0.2,0,0.3-0.1,0.4-0.2l0.3-0.2c5-3.9,7.6-7.3,7.6-10.2C18.5,4.4,16.6,2.5,14,2.5z M10.3,16.3L10.3,16.3
	c-0.1,0-0.2-0.1-0.3-0.1c-5-3.7-7.5-6.8-7.5-9.2C2.5,5,4,3.5,6,3.5c2,0,3,2.2,3.3,3.1C9.4,7,9.7,7.2,10,7.2c0,0,0,0,0,0
	c0.3,0,0.6-0.2,0.7-0.5C11,5.8,12,3.5,14,3.5c2,0,3.5,1.4,3.5,3.4C17.5,8.7,16.2,11.8,10.3,16.3z"/>
</svg>
