<?xml version="1.0" encoding="utf-8"?>
<!-- Generator: Adobe Illustrator 27.4.1, SVG Export Plug-In . SVG Version: 6.00 Build 0)  -->
<svg version="1.1" id="icons" xmlns="http://www.w3.org/2000/svg" xmlns:xlink="http://www.w3.org/1999/xlink" x="0px" y="0px"
	 viewBox="0 0 20 20" style="enable-background:new 0 0 20 20;" xml:space="preserve">
<g>
	<path d="M10.6,11.1c0-1,0-2,0-2c0-0.3-0.3-0.6-0.6-0.5c-0.3,0-0.5,0.3-0.5,0.6c0,0,0,1,0,1.9c0,1.7,0.3,3,2.4,5.3
		c0.1,0.1,0.3,0.2,0.4,0.2c0.1,0,0.3,0,0.4-0.1c0.2-0.2,0.2-0.5,0-0.8C10.9,13.7,10.6,12.6,10.6,11.1z"/>
	<path d="M10,2.1C6.3,2.1,3.4,5,3.4,8.6v2.7c0,1.1,0.2,2.3,0.7,3.4c0.1,0.2,0.3,0.3,0.5,0.3c0.1,0,0.1,0,0.2,0
		c0.3-0.1,0.4-0.4,0.3-0.7c-0.4-1-0.6-2-0.6-3V8.6c0-3,2.4-5.4,5.4-5.4c3.1,0,5.5,2.4,5.5,5.4v1.6c0,0.3,0.2,0.5,0.5,0.5
		s0.5-0.2,0.5-0.5V8.6C16.6,5,13.6,2.1,10,2.1z"/>
	<path d="M14.6,10.8V8.9c0-2.6-2.1-4.7-4.6-4.7S5.4,6.4,5.4,8.9v1.9c0,2.1,0.6,4,1.9,5.8c0.1,0.2,0.3,0.2,0.5,0.2
		c0.1,0,0.2,0,0.3-0.1c0.2-0.2,0.3-0.5,0.1-0.8c-1.1-1.6-1.7-3.4-1.7-5.2V8.9c0-2,1.6-3.6,3.5-3.6s3.5,1.6,3.5,3.6v1.9
		c0,1.3,0.4,2.2,1.6,3.4c0.2,0.2,0.6,0.2,0.8,0s0.2-0.6,0-0.8C14.9,12.4,14.6,11.8,14.6,10.8z"/>
	<path d="M12.7,11.5c0-0.7,0-2.1,0-2.1c0-1.7-1.2-2.9-2.7-2.9c-1.5,0-2.7,1.3-2.7,2.9c0,0,0,0.3,0,1.9c0,2.1,1.2,4,2.6,5.8
		c0.1,0.1,0.3,0.2,0.4,0.2c0.1,0,0.2,0,0.3-0.1c0.2-0.2,0.3-0.5,0.1-0.8c-1.2-1.6-2.4-3.4-2.4-5.1c0-1.5,0-1.8,0-1.8
		C8.5,8.5,9,7.5,10,7.5c1.1,0,1.6,1,1.6,1.8c0,0,0,1.4,0,2.1c0,0.9,0.2,2.3,2.3,4.3c0.2,0.2,0.6,0.2,0.8,0c0.2-0.2,0.2-0.6,0-0.8
		C12.9,13.3,12.7,12.2,12.7,11.5z"/>
</g>
</svg>
