<?xml version="1.0" encoding="utf-8"?>
<!-- Generator: Adobe Illustrator 27.4.1, SVG Export Plug-In . SVG Version: 6.00 Build 0)  -->
<svg version="1.1" id="icons" xmlns="http://www.w3.org/2000/svg" xmlns:xlink="http://www.w3.org/1999/xlink" x="0px" y="0px"
	 viewBox="0 0 20 20" style="enable-background:new 0 0 20 20;" xml:space="preserve">
<g>
	<path d="M18.4,4.6l-2.5-3c-0.2-0.2-0.5-0.3-0.7-0.1l-1,0.7c-0.3,0.2-0.7,0.3-1.1,0.2L9.7,1.9c-0.6-0.1-1.3,0-2,0.4
		C6.9,2.9,2.4,6.4,2.2,6.6c-0.8,0.8-1,1.7-0.4,2.4c0.3,0.4,0.7,0.5,1.1,0.5c0.5,0,1-0.2,1.3-0.4C4.5,9,6.4,7.9,7.4,7.3
		C7.6,7.6,8,7.9,8.5,8.1c0,0,0.1,0,0.1,0l3,0.5c1.6,0.4,3,0.1,4.1-1l2.7-2.3C18.6,5.2,18.6,4.9,18.4,4.6z M14.9,6.9
		c-0.8,0.8-1.8,1-3.1,0.7l-3-0.5C8.5,7,8.3,6.8,8.2,6.6c0-0.1-0.1-0.2,0-0.4c0.1-0.3,0.5-0.5,0.9-0.4l3.3,0.5c0.3,0,0.6-0.2,0.6-0.5
		c0-0.3-0.2-0.6-0.5-0.6L9.4,4.7c-0.9-0.2-1.8,0.2-2.2,1C7.2,5.9,7.1,6,7.1,6.2C5.8,7,3.9,8.1,3.7,8.2c-0.5,0.2-0.8,0.3-1,0.1
		C2.5,8.1,2.6,7.8,2.9,7.4c1.6-1.3,4.8-3.8,5.4-4.2C8.7,3,8.9,2.9,9.2,2.9c0.1,0,0.2,0,0.3,0L13,3.6c0.7,0.1,1.4,0,1.9-0.4l0.5-0.4
		l1.8,2.2L14.9,6.9z"/>
	<path d="M14.4,12.3C14.4,12.3,14.3,12.3,14.4,12.3c-0.8-1.7-2.5-2.9-4.4-2.9c-1.9,0-3.6,1.2-4.3,2.9c0,0-0.1,0-0.1,0
		c-1.1,0-2,0.9-2,2s0.9,2,2,2c0.1,0,0.3,0,0.4,0c0.8,1.4,2.3,2.2,3.9,2.2c1.6,0,3.1-0.9,3.9-2.2c0.1,0,0.3,0,0.4,0c1.1,0,2-0.9,2-2
		S15.5,12.3,14.4,12.3z M14,15.1c-0.1-0.1-0.3-0.1-0.4,0c-0.1,0-0.3,0.2-0.3,0.3c-0.6,1.2-1.8,2-3.2,2s-2.6-0.8-3.2-2
		c-0.1-0.1-0.2-0.2-0.3-0.3c-0.1,0-0.1,0-0.2,0c-0.1,0-0.2,0-0.2,0.1c-0.6,0.3-1.4-0.2-1.4-0.8c0-0.5,0.4-1,1-1c0.1,0,0.2,0,0.3,0.1
		c0.1,0,0.3,0,0.4,0c0.1-0.1,0.2-0.2,0.3-0.3c0.4-1.5,1.8-2.6,3.4-2.6c1.6,0,2.9,1.1,3.4,2.6c0,0.1,0.1,0.3,0.3,0.3
		c0.1,0.1,0.3,0.1,0.4,0c0.1,0,0.2-0.1,0.3-0.1c0.5,0,1,0.4,1,1C15.4,15,14.6,15.5,14,15.1z"/>
	<circle cx="8.6" cy="13" r="0.6"/>
	<circle cx="11.5" cy="13" r="0.6"/>
	<path d="M11.3,14.7c0,0-0.4,0.6-1.2,0.6c-0.8,0-1.2-0.6-1.2-0.6c-0.2-0.2-0.5-0.3-0.7-0.1c-0.2,0.2-0.3,0.5-0.1,0.7c0,0,0.7,1,2,1
		c1.3,0,2-1,2-1c0.2-0.2,0.1-0.5-0.1-0.7C11.7,14.5,11.4,14.5,11.3,14.7z"/>
</g>
</svg>
