<?xml version="1.0" encoding="utf-8"?>
<!-- Generator: Adobe Illustrator 27.4.1, SVG Export Plug-In . SVG Version: 6.00 Build 0)  -->
<svg version="1.1" id="icons" xmlns="http://www.w3.org/2000/svg" xmlns:xlink="http://www.w3.org/1999/xlink" x="0px" y="0px"
	 viewBox="0 0 20 20" style="enable-background:new 0 0 20 20;" xml:space="preserve">
<g>
	<path d="M16.2,14.6c-0.2-0.2-0.3-0.5-0.3-0.8l0-2.8c0-0.4-0.5-1.5-1.8-4l-0.4-0.7c-0.4-0.8-0.9-1.9-2-1.5c-0.5,0.2-1.1,0.7-0.7,2
		l0.7,2.9c-0.1,0-0.2,0.1-0.3,0.2c-0.4,0.3-0.6,0.9-0.6,1.7l0,1.9c-0.1,1.3,0.4,2.4,1.4,3.1l2.2,1.8c0.1,0.1,0.2,0.1,0.3,0.1
		c0.1,0,0.3-0.1,0.4-0.2l2-2.4c0.2-0.2,0.2-0.5,0-0.7L16.2,14.6z M14.5,17.3l-1.8-1.5c-0.7-0.5-1-1.3-1-2.3v-2
		c0-0.5,0.1-0.8,0.3-0.9c0,0,0.1-0.1,0.1-0.1c0,0,0,0,0.1,0c0,0,0,0,0,0c0.3,0.1,0.4,0.4,0.4,0.6v1.6c0,0.3,0.2,0.5,0.5,0.5
		s0.5-0.2,0.5-0.5v-1.6c0-0.7-0.3-1.2-0.9-1.5l-0.8-3.2c-0.2-0.7-0.1-0.8,0-0.8c0.3-0.1,0.6,0.6,0.8,1l0.4,0.8
		c0.4,0.8,1.7,3.1,1.7,3.6l0,2.8c0,0.6,0.2,1.1,0.6,1.5l0.3,0.3L14.5,17.3z"/>
	<path d="M8.8,9.6l0.7-2.8c0.4-1.4-0.1-1.9-0.7-2.1c-1.1-0.4-1.7,0.8-2,1.5L6.4,7C5,9.6,4.6,10.6,4.6,11l0,2.8
		c0,0.3-0.1,0.6-0.3,0.8l-0.7,0.7c-0.2,0.2-0.2,0.5,0,0.7l2,2.4c0.1,0.1,0.2,0.2,0.4,0.2c0.1,0,0.2,0,0.3-0.1l2.2-1.8
		c1-0.7,1.5-1.8,1.4-3.1v-2c0-0.8-0.2-1.4-0.6-1.7C9,9.7,8.9,9.7,8.8,9.6z M7.7,15.8l-1.8,1.5l-1.3-1.6l0.3-0.3
		c0.4-0.4,0.6-0.9,0.6-1.5l0-2.8c0-0.3,0.6-1.5,1.7-3.6l0.4-0.8c0.2-0.4,0.5-1.1,0.8-1c0.1,0,0.3,0.1,0,0.8L7.7,9.7
		c-0.5,0.2-0.9,0.8-0.9,1.5v1.6c0,0.3,0.2,0.5,0.5,0.5s0.5-0.2,0.5-0.5v-1.6c0-0.2,0-0.5,0.4-0.6c0,0,0,0,0,0c0.1,0,0.2,0,0.2,0
		c0.1,0.1,0.3,0.4,0.3,0.9l0,2C8.8,14.5,8.5,15.2,7.7,15.8z"/>
	<path d="M10,1.5c-4.7,0-8.5,3.8-8.5,8.5c0,0.3,0.2,0.5,0.5,0.5s0.5-0.2,0.5-0.5c0-4.1,3.4-7.5,7.5-7.5s7.5,3.4,7.5,7.5
		c0,0.3,0.2,0.5,0.5,0.5s0.5-0.2,0.5-0.5C18.5,5.3,14.7,1.5,10,1.5z"/>
</g>
</svg>
