<?xml version="1.0" encoding="utf-8"?>
<!-- Generator: Adobe Illustrator 27.4.1, SVG Export Plug-In . SVG Version: 6.00 Build 0)  -->
<svg version="1.1" id="Ebene_2_00000018219610092255096190000015450680896568261052_"
	 xmlns="http://www.w3.org/2000/svg" xmlns:xlink="http://www.w3.org/1999/xlink" x="0px" y="0px" viewBox="0 0 17.1 13.8"
	 style="enable-background:new 0 0 17.1 13.8;" xml:space="preserve">
<path d="M17.1,0.5c0-0.1,0-0.1,0-0.2C17,0.1,16.8,0,16.5,0h-2.2c-0.3,0-0.5,0.2-0.5,0.5s0.2,0.5,0.5,0.5h0.9l-1.5,1.5
	c-0.5-0.2-1-0.4-1.6-0.4c-0.8,0-1.6,0.3-2.4,1C9.1,3.7,8.5,4.3,7.9,5C6.6,3.5,5.3,2.2,3.6,2.2C1.6,2.2,0,3.8,0,5.8
	c0,1.8,1.4,3.3,3.2,3.6l0,1.7H2.2c-0.3,0-0.5,0.2-0.5,0.5s0.2,0.5,0.5,0.5h0.9l0,1c0,0.3,0.2,0.6,0.5,0.6c0,0,0,0,0,0
	c0.3,0,0.5-0.2,0.5-0.5l0-1.1h0.9c0.3,0,0.5-0.2,0.5-0.5s-0.2-0.5-0.5-0.5H4.3l0-1.7C4.8,9.2,5.4,9,5.9,8.5C6.6,8.1,7.2,7.4,7.6,7
	c0.1-0.1,0.2-0.2,0.3-0.3c1.3,1.4,2.6,2.8,4.2,2.8c2,0,3.6-1.6,3.6-3.6c0-1-0.4-1.9-1.1-2.6L16,1.9v0.9c0,0.3,0.2,0.5,0.5,0.5
	s0.5-0.2,0.5-0.5L17.1,0.5C17.1,0.6,17.1,0.6,17.1,0.5L17.1,0.5C17.1,0.5,17.1,0.5,17.1,0.5z M6.8,6.2c-0.4,0.4-0.9,1-1.5,1.4
	C4.7,8.1,4.1,8.3,3.6,8.3c-1.4,0-2.5-1.1-2.5-2.5s1.1-2.5,2.5-2.5c1.2,0,2.4,1.2,3.5,2.5C7,6,6.9,6.1,6.8,6.2z M12.1,8.3
	c-1.2,0-2.4-1.2-3.5-2.5C9.2,5.2,9.8,4.5,10.4,4c0.6-0.5,1.2-0.7,1.7-0.7c1.4,0,2.5,1.1,2.5,2.5S13.5,8.3,12.1,8.3z"/>
</svg>
