<?xml version="1.0" encoding="utf-8"?>
<!-- Generator: Adobe Illustrator 27.4.1, SVG Export Plug-In . SVG Version: 6.00 Build 0)  -->
<svg version="1.1" id="icons" xmlns="http://www.w3.org/2000/svg" xmlns:xlink="http://www.w3.org/1999/xlink" x="0px" y="0px"
	 viewBox="0 0 20 20" style="enable-background:new 0 0 20 20;" xml:space="preserve">
<g>
	<path d="M5.1,9.4c-0.3,0-0.6,0.3-0.6,0.6s0.3,0.6,0.6,0.6c0.3,0,0.6-0.3,0.6-0.6S5.5,9.4,5.1,9.4z"/>
	<path d="M18,4.5h-0.7l-1.6-2.7c-0.1-0.1-0.2-0.2-0.3-0.3c-0.1,0-0.3,0-0.4,0.1L9.9,4.5H2C1.7,4.5,1.5,4.7,1.5,5v10
		c0,0.3,0.2,0.5,0.5,0.5h2.3l1.6,2.7c0.1,0.1,0.2,0.2,0.3,0.3c0,0,0.1,0,0.1,0c0.1,0,0.2,0,0.3-0.1l5.1-2.9H18
		c0.3,0,0.5-0.2,0.5-0.5V5C18.5,4.7,18.3,4.5,18,4.5z M5.6,14.5c-0.2-1.6-1.5-2.8-3-3V8.6c1.6-0.2,2.8-1.5,3-3h8.8
		c0.2,1.6,1.5,2.8,3,3v2.8c-1.6,0.2-2.8,1.5-3,3H5.6z M17.5,5.5v2c-1-0.2-1.8-1-2-2H17.5z M15,2.8l1,1.7h-3.9L15,2.8z M4.6,5.5
		c-0.2,1-1,1.8-2,2v-2H4.6z M2.5,12.4c1,0.2,1.8,1,2,2h-2V12.4z M6.5,17.2l-1-1.7h3.9L6.5,17.2z M15.4,14.5c0.2-1,1-1.8,2-2v2H15.4z
		"/>
	<path d="M10,6.5c-1.7,0-3,1.6-3,3.5s1.3,3.5,3,3.5s3-1.6,3-3.5S11.7,6.5,10,6.5z M10,12.5c-1.1,0-2-1.1-2-2.5c0-1.4,0.9-2.5,2-2.5
		c1.1,0,2,1.1,2,2.5C12,11.4,11.1,12.5,10,12.5z"/>
	<path d="M14.9,10.6c0.3,0,0.6-0.3,0.6-0.6s-0.3-0.6-0.6-0.6c-0.3,0-0.6,0.3-0.6,0.6S14.5,10.6,14.9,10.6z"/>
</g>
</svg>
