<?xml version="1.0" encoding="utf-8"?>
<!-- Generator: Adobe Illustrator 27.4.1, SVG Export Plug-In . SVG Version: 6.00 Build 0)  -->
<svg version="1.1" id="icons" xmlns="http://www.w3.org/2000/svg" xmlns:xlink="http://www.w3.org/1999/xlink" x="0px" y="0px"
	 viewBox="0 0 20 20" style="enable-background:new 0 0 20 20;" xml:space="preserve">
<g>
	<path d="M5.4,15.4c-0.3,0.2-0.7,0.3-1,0.3c-1,0-1.8-0.8-1.8-1.8S3.4,12,4.4,12c0.4,0,0.7,0.1,1,0.3c0.3,0.2,0.6,0.1,0.8-0.1
		C6.3,12,6.3,11.6,6,11.4c-0.5-0.3-1-0.5-1.6-0.5c-1.6,0-2.9,1.3-2.9,2.9s1.3,2.9,2.9,2.9c0.6,0,1.2-0.2,1.6-0.5
		c0.3-0.2,0.3-0.5,0.1-0.8C6,15.3,5.6,15.2,5.4,15.4z"/>
	<path d="M9.9,10.9c-1.6,0-2.9,1.3-2.9,2.9s1.3,2.9,2.9,2.9c1.6,0,2.9-1.3,2.9-2.9S11.5,10.9,9.9,10.9z M9.9,15.7
		c-1,0-1.8-0.8-1.8-1.8S8.9,12,9.9,12s1.8,0.8,1.8,1.8S10.9,15.7,9.9,15.7z"/>
	<path d="M16.5,17.5h-1.2c0.1-0.1,0.3-0.2,0.4-0.4c0.5-0.4,1.1-0.8,1.1-1.6c0-1-0.8-1.5-1.5-1.5c-0.8,0-1.5,0.7-1.5,1.5
		c0,0.3,0.2,0.5,0.5,0.5s0.5-0.2,0.5-0.5c0-0.2,0.2-0.4,0.4-0.4c0.1,0,0.4,0,0.4,0.4c0,0.2-0.3,0.4-0.7,0.8
		c-0.5,0.4-1.1,0.9-1.3,1.7c0,0.2,0,0.3,0.1,0.4s0.3,0.2,0.4,0.2h2.1c0.3,0,0.5-0.2,0.5-0.5S16.8,17.5,16.5,17.5z"/>
	<path d="M18.5,6.6c-0.5-2.1-2.6-3.5-4.7-3c0,0-0.1,0-0.1,0c-0.8-1.3-2.2-2.2-3.8-2.2C7.7,1.5,5.9,2.9,5.5,5C5.3,4.9,5,4.9,4.7,4.9
		c-1.8,0-3.3,1.5-3.3,3.3c0,0.3,0.2,0.5,0.5,0.5s0.5-0.2,0.5-0.5C2.5,7,3.5,6,4.7,6c0.3,0,0.7,0.1,1,0.2c0.2,0.1,0.4,0.1,0.5,0
		s0.3-0.3,0.3-0.5C6.6,4,8,2.5,9.8,2.5c1.3,0,2.5,0.8,3,2c0.1,0.3,0.5,0.4,0.7,0.3c0.1,0,0.2-0.1,0.3-0.1c1.6-0.3,3.1,0.6,3.4,2.2
		c0.2,0.8-0.1,1.8-0.8,2.5c-0.2,0.2-0.2,0.6,0,0.8c0.1,0.1,0.2,0.1,0.4,0.1c0.1,0,0.3-0.1,0.4-0.2C18.3,9.1,18.7,7.8,18.5,6.6z"/>
</g>
</svg>
