<?xml version="1.0" encoding="utf-8"?>
<!-- Generator: Adobe Illustrator 27.4.1, SVG Export Plug-In . SVG Version: 6.00 Build 0)  -->
<svg version="1.1" id="icons" xmlns="http://www.w3.org/2000/svg" xmlns:xlink="http://www.w3.org/1999/xlink" x="0px" y="0px"
	 viewBox="0 0 20 20" style="enable-background:new 0 0 20 20;" xml:space="preserve">
<g>
	<path d="M18,4.5h-1.5l-1.6-2.7c-0.1-0.1-0.2-0.2-0.3-0.3c-0.1,0-0.3,0-0.4,0.1L9.1,4.5H2C1.7,4.5,1.5,4.7,1.5,5v10
		c0,0.3,0.2,0.5,0.5,0.5h1.5l1.6,2.7c0.1,0.1,0.2,0.2,0.3,0.3c0,0,0.1,0,0.1,0c0.1,0,0.2,0,0.3-0.1l5.1-2.9H18
		c0.3,0,0.5-0.2,0.5-0.5V5C18.5,4.7,18.3,4.5,18,4.5z M5.6,14.5c-0.2-1.6-1.5-2.8-3-3V8.6c1.6-0.2,2.8-1.5,3-3h8.8
		c0.2,1.6,1.5,2.8,3,3v2.8c-1.6,0.2-2.8,1.5-3,3H5.6z M17.5,7.6c-1-0.2-1.8-1-2-2h2V7.6z M14.2,2.8l1,1.7h-3.9L14.2,2.8z M4.6,5.5
		c-0.2,1-1,1.8-2,2v-2H4.6z M2.5,12.4c1,0.2,1.8,1,2,2h-2V12.4z M5.8,17.2l-1-1.7h3.9L5.8,17.2z M15.4,14.5c0.2-1,1-1.8,2-2v2H15.4z
		"/>
	<path d="M12.8,11.7c-0.2-0.2-0.5-0.1-0.7,0.1c-0.3,0.4-0.8,0.7-1.3,0.7c-0.6,0-1.2-0.4-1.5-1.1h1.2c0.3,0,0.5-0.2,0.5-0.5
		s-0.2-0.5-0.5-0.5H9c0-0.1,0-0.3,0-0.4c0-0.1,0-0.3,0-0.4h1.5c0.3,0,0.5-0.2,0.5-0.5s-0.2-0.5-0.5-0.5H9.3c0.3-0.6,0.9-1.1,1.5-1.1
		c0.5,0,0.9,0.2,1.3,0.7c0.2,0.2,0.5,0.3,0.7,0.1C13,8.1,13,7.8,12.9,7.6c-0.5-0.7-1.3-1.1-2-1.1c-1.2,0-2.1,0.9-2.6,2.1H7.5
		C7.3,8.6,7,8.8,7,9.1s0.2,0.5,0.5,0.5H8C8,9.7,8,9.9,8,10c0,0.1,0,0.3,0,0.4H7.5c-0.3,0-0.5,0.2-0.5,0.5s0.2,0.5,0.5,0.5h0.7
		c0.4,1.2,1.4,2.1,2.6,2.1c0.8,0,1.5-0.4,2-1.1C13,12.2,13,11.9,12.8,11.7z"/>
</g>
</svg>
