<?xml version="1.0" encoding="utf-8"?>
<!-- Generator: Adobe Illustrator 27.4.1, SVG Export Plug-In . SVG Version: 6.00 Build 0)  -->
<svg version="1.1" id="icons" xmlns="http://www.w3.org/2000/svg" xmlns:xlink="http://www.w3.org/1999/xlink" x="0px" y="0px"
	 viewBox="0 0 20 20" style="enable-background:new 0 0 20 20;" xml:space="preserve">
<g>
	<path d="M18,4.5h-1.5l-1.6-2.7c-0.1-0.1-0.2-0.2-0.3-0.3c-0.1,0-0.3,0-0.4,0.1L9.1,4.5H2C1.7,4.5,1.5,4.7,1.5,5v10
		c0,0.3,0.2,0.5,0.5,0.5h1.5l1.6,2.7c0.1,0.1,0.2,0.2,0.3,0.3c0,0,0.1,0,0.1,0c0.1,0,0.2,0,0.3-0.1l5.1-2.9H18
		c0.3,0,0.5-0.2,0.5-0.5V5C18.5,4.7,18.3,4.5,18,4.5z M5.6,14.5c-0.2-1.6-1.5-2.8-3-3V8.6c1.6-0.2,2.8-1.5,3-3h8.8
		c0.2,1.6,1.5,2.8,3,3v2.8c-1.6,0.2-2.8,1.5-3,3H5.6z M17.5,7.6c-1-0.2-1.8-1-2-2h2V7.6z M14.2,2.8l1,1.7h-3.9L14.2,2.8z M4.6,5.5
		c-0.2,1-1,1.8-2,2v-2H4.6z M2.5,12.4c1,0.2,1.8,1,2,2h-2V12.4z M5.8,17.2l-1-1.7h3.9L5.8,17.2z M15.4,14.5c0.2-1,1-1.8,2-2v2H15.4z
		"/>
	<path d="M10.3,9.5C9.4,9.2,9.1,9.1,9.1,8.8c0-0.1,0.2-0.4,0.5-0.5c0.2-0.1,0.9-0.3,1.6,0.4c0.2,0.2,0.5,0.2,0.7,0s0.2-0.5,0-0.7
		c-0.4-0.4-0.9-0.7-1.3-0.8V6.8c0-0.3-0.2-0.5-0.5-0.5S9.6,6.5,9.6,6.8v0.5c-0.1,0-0.3,0.1-0.4,0.1C8.5,7.6,8.1,8.2,8.1,8.8
		c0,1.2,1.1,1.4,1.9,1.7c1,0.3,1.1,0.4,1.1,0.7c-0.1,0.5-0.6,0.7-1,0.7c-1,0-1.3-0.4-1.3-0.5c-0.1-0.2-0.4-0.3-0.7-0.2
		c-0.2,0.1-0.3,0.4-0.2,0.7c0,0.1,0.5,0.8,1.6,0.9v0.4c0,0.3,0.2,0.5,0.5,0.5s0.5-0.2,0.5-0.5v-0.5c0.8-0.2,1.4-0.7,1.5-1.5
		C12.3,10,11.1,9.7,10.3,9.5z"/>
</g>
</svg>
