<?xml version="1.0" encoding="utf-8"?>
<!-- Generator: Adobe Illustrator 27.4.1, SVG Export Plug-In . SVG Version: 6.00 Build 0)  -->
<svg version="1.1" id="icons" xmlns="http://www.w3.org/2000/svg" xmlns:xlink="http://www.w3.org/1999/xlink" x="0px" y="0px"
	 viewBox="0 0 20 20" style="enable-background:new 0 0 20 20;" xml:space="preserve">
<g>
	<path d="M14,8.6c-2.6,0-4.5,1-4.5,2.4v5.5c0,0.1,0,0.2,0.1,0.2c0.6,1.2,2.7,1.8,4.5,1.8c2.1,0,3.9-0.7,4.4-1.8
		c0-0.1,0.1-0.2,0.1-0.2V11C18.5,9.6,16.6,8.6,14,8.6z M17.5,13.8c-0.3,0.5-1.7,1.1-3.4,1.1c-1.7,0-3.1-0.5-3.4-1.1v-1.2
		c0.8,0.5,2,0.8,3.4,0.8c1.4,0,2.6-0.3,3.4-0.8V13.8z M14,9.7c2.1,0,3.4,0.8,3.4,1.3c0,0.5-1.3,1.3-3.4,1.3s-3.4-0.8-3.4-1.3
		C10.6,10.5,12,9.7,14,9.7z M14.1,17.5c-1.7,0-3.1-0.5-3.5-1.1v-1.2c0.8,0.5,2.1,0.8,3.4,0.8c1.3,0,2.6-0.3,3.4-0.8v1.2
		C17.1,16.9,15.8,17.5,14.1,17.5z"/>
	<path d="M10,7.5c0.3,0,0.5-0.2,0.5-0.5V5.1c0-0.2-0.1-0.3-0.2-0.4l-4-3.1c-0.2-0.2-0.5-0.2-0.7,0l-4,3.1C1.5,4.8,1.5,4.9,1.5,5.1
		V12c0,0.3,0.2,0.5,0.5,0.5h5.2c0.3,0,0.5-0.2,0.5-0.5V8c0-0.3-0.2-0.5-0.5-0.5H4.8C4.4,7.5,4.2,7.7,4.2,8v3.5H2.5V5.4L6,2.7
		l3.5,2.7V7C9.5,7.3,9.7,7.5,10,7.5z M5.3,8.5h1.4v2.9H5.3V8.5z"/>
</g>
</svg>
