<?xml version="1.0" encoding="utf-8"?>
<!-- Generator: Adobe Illustrator 27.4.1, SVG Export Plug-In . SVG Version: 6.00 Build 0)  -->
<svg version="1.1" id="icons" xmlns="http://www.w3.org/2000/svg" xmlns:xlink="http://www.w3.org/1999/xlink" x="0px" y="0px"
	 viewBox="0 0 20 20" style="enable-background:new 0 0 20 20;" xml:space="preserve">
<g>
	<path d="M18.4,10.7l-4-3.1c-0.2-0.2-0.5-0.2-0.7,0L10.5,10V2c0-0.3-0.2-0.5-0.5-0.5H2C1.7,1.5,1.4,1.7,1.4,2v16
		c0,0.3,0.2,0.5,0.5,0.5h8h2.8h2.6H18c0.3,0,0.5-0.2,0.5-0.5v-6.9C18.6,10.9,18.5,10.8,18.4,10.7z M2.5,2.5h6.9v8.6v6.3H2.5V2.5z
		 M13.3,17.5v-2.9h1.5v2.9H13.3z M17.5,17.5h-1.6V14c0-0.3-0.2-0.5-0.5-0.5h-2.6c-0.3,0-0.5,0.2-0.5,0.5v3.5h-1.7v-6.1L14,8.7
		l3.4,2.7V17.5z"/>
	<path d="M4.9,4.1H4.1c-0.2,0-0.4,0.2-0.4,0.4v0.8c0,0.2,0.2,0.4,0.4,0.4h0.8c0.2,0,0.4-0.2,0.4-0.4V4.5C5.3,4.3,5.1,4.1,4.9,4.1z"
		/>
	<path d="M7.8,4.1H7c-0.2,0-0.4,0.2-0.4,0.4v0.8c0,0.2,0.2,0.4,0.4,0.4h0.8c0.2,0,0.4-0.2,0.4-0.4V4.5C8.2,4.3,8,4.1,7.8,4.1z"/>
	<path d="M4.9,7.5H4.1c-0.2,0-0.4,0.2-0.4,0.4v0.8c0,0.2,0.2,0.4,0.4,0.4h0.8c0.2,0,0.4-0.2,0.4-0.4V7.9C5.3,7.7,5.1,7.5,4.9,7.5z"
		/>
	<path d="M7.8,7.5H7c-0.2,0-0.4,0.2-0.4,0.4v0.8c0,0.2,0.2,0.4,0.4,0.4h0.8c0.2,0,0.4-0.2,0.4-0.4V7.9C8.2,7.7,8,7.5,7.8,7.5z"/>
	<path d="M4.9,10.9H4.1c-0.2,0-0.4,0.2-0.4,0.4v0.8c0,0.2,0.2,0.4,0.4,0.4h0.8c0.2,0,0.4-0.2,0.4-0.4v-0.8
		C5.3,11.1,5.1,10.9,4.9,10.9z"/>
	<path d="M7.8,10.9H7c-0.2,0-0.4,0.2-0.4,0.4v0.8c0,0.2,0.2,0.4,0.4,0.4h0.8c0.2,0,0.4-0.2,0.4-0.4v-0.8C8.2,11.1,8,10.9,7.8,10.9z"
		/>
	<path d="M4.9,14.3H4.1c-0.2,0-0.4,0.2-0.4,0.4v0.8c0,0.2,0.2,0.4,0.4,0.4h0.8c0.2,0,0.4-0.2,0.4-0.4v-0.8
		C5.3,14.5,5.1,14.3,4.9,14.3z"/>
	<path d="M7.8,14.3H7c-0.2,0-0.4,0.2-0.4,0.4v0.8c0,0.2,0.2,0.4,0.4,0.4h0.8c0.2,0,0.4-0.2,0.4-0.4v-0.8C8.2,14.5,8,14.3,7.8,14.3z"
		/>
</g>
</svg>
