<?xml version="1.0" encoding="utf-8"?>
<!-- Generator: Adobe Illustrator 27.4.1, SVG Export Plug-In . SVG Version: 6.00 Build 0)  -->
<svg version="1.1" id="icons" xmlns="http://www.w3.org/2000/svg" xmlns:xlink="http://www.w3.org/1999/xlink" x="0px" y="0px"
	 viewBox="0 0 20 20" style="enable-background:new 0 0 20 20;" xml:space="preserve">
<g>
	<path d="M6.7,12H3.2c-0.4,0-0.7-0.3-0.7-0.7V6.6h9.9C12.7,6.6,13,6.3,13,6V4.5c0-1-0.8-1.8-1.8-1.8H9.8V2c0-0.3-0.2-0.5-0.5-0.5
		S8.7,1.7,8.7,2v0.8H5.8V2c0-0.3-0.2-0.5-0.5-0.5S4.7,1.7,4.7,2v0.8H3.2c-1,0-1.8,0.8-1.8,1.8v6.7c0,1,0.8,1.8,1.8,1.8h3.5
		c0.3,0,0.5-0.2,0.5-0.5S7,12,6.7,12z M2.5,4.5c0-0.4,0.3-0.7,0.7-0.7h8c0.4,0,0.7,0.3,0.7,0.7v1H2.5V4.5z"/>
	<path d="M18.3,10.7l-4-3.1c-0.2-0.2-0.5-0.2-0.7,0l-4,3.1c-0.1,0.1-0.2,0.3-0.2,0.4V18c0,0.3,0.2,0.5,0.5,0.5h8
		c0.3,0,0.5-0.2,0.5-0.5v-6.9C18.5,10.9,18.5,10.8,18.3,10.7z M14.7,17.5h-1.4v-2.9h1.4V17.5z M17.5,17.5h-1.7V14
		c0-0.3-0.2-0.5-0.5-0.5h-2.5c-0.3,0-0.5,0.2-0.5,0.5v3.5h-1.7v-6.1L14,8.7l3.5,2.7V17.5z"/>
	<path d="M4.7,8c0-0.2-0.1-0.3-0.3-0.3H3.9C3.7,7.6,3.6,7.8,3.6,8v0.4c0,0.2,0.1,0.3,0.3,0.3h0.4c0.2,0,0.3-0.1,0.3-0.3V8z"/>
	<path d="M6.9,8c0-0.2-0.1-0.3-0.3-0.3H6.1C5.9,7.6,5.8,7.8,5.8,8v0.4c0,0.2,0.1,0.3,0.3,0.3h0.4c0.2,0,0.3-0.1,0.3-0.3V8z"/>
	<path d="M8.8,7.6H8.3C8.1,7.6,8,7.8,8,8v0.4c0,0.2,0.1,0.3,0.3,0.3h0.4c0.2,0,0.3-0.1,0.3-0.3V8C9.1,7.8,8.9,7.6,8.8,7.6z"/>
	<path d="M4.4,9.8H3.9c-0.2,0-0.3,0.1-0.3,0.3v0.4c0,0.2,0.1,0.3,0.3,0.3h0.4c0.2,0,0.3-0.1,0.3-0.3v-0.4C4.7,10,4.5,9.8,4.4,9.8z"
		/>
	<path d="M6.6,9.8H6.1c-0.2,0-0.3,0.1-0.3,0.3v0.4c0,0.2,0.1,0.3,0.3,0.3h0.4c0.2,0,0.3-0.1,0.3-0.3v-0.4C6.9,10,6.7,9.8,6.6,9.8z"
		/>
</g>
</svg>
