<?xml version="1.0" encoding="utf-8"?>
<!-- Generator: Adobe Illustrator 27.4.1, SVG Export Plug-In . SVG Version: 6.00 Build 0)  -->
<svg version="1.1" id="icons" xmlns="http://www.w3.org/2000/svg" xmlns:xlink="http://www.w3.org/1999/xlink" x="0px" y="0px"
	 viewBox="0 0 20 20" style="enable-background:new 0 0 20 20;" xml:space="preserve">
<g>
	<path d="M5.6,17.5H4.1V7.2L10,2.7l5.8,4.5v3.3c0,0.3,0.2,0.6,0.5,0.6s0.5-0.2,0.5-0.6V8.1l0.7,0.6c0.1,0.1,0.2,0.1,0.3,0.1
		c0.2,0,0.3-0.1,0.4-0.2c0.2-0.2,0.1-0.6-0.1-0.8l-8-6.2c-0.2-0.2-0.5-0.2-0.7,0l-8,6.2C1.4,7.9,1.4,8.3,1.6,8.5
		c0.2,0.2,0.5,0.3,0.8,0.1L3,8v10c0,0.3,0.2,0.5,0.5,0.5h2c0.3,0,0.5-0.2,0.5-0.5S5.9,17.5,5.6,17.5z"/>
	<path d="M9.1,9c0.1,0,0.1,0,0.2,0c0.3-0.1,0.4-0.4,0.3-0.7l-0.4-1C9.1,7,8.8,6.8,8.5,6.9C8.3,7,8.1,7.4,8.2,7.6l0.4,1
		C8.7,8.9,8.9,9,9.1,9z"/>
	<path d="M6.8,10.2L6,9.8c-0.3-0.1-0.6,0-0.7,0.3s0,0.6,0.3,0.7l0.8,0.4c0.1,0,0.2,0,0.2,0c0.2,0,0.4-0.1,0.5-0.3
		C7.2,10.6,7.1,10.3,6.8,10.2z"/>
	<path d="M13.4,6.9c-0.3-0.1-0.6,0-0.7,0.3l-0.4,1c-0.1,0.3,0,0.6,0.3,0.7c0.1,0,0.1,0,0.2,0c0.2,0,0.4-0.1,0.5-0.4l0.4-1
		C13.9,7.4,13.7,7,13.4,6.9z"/>
	<path d="M16.1,14.2c-0.3-1.2-1.4-2.1-2.8-2.1c-1,0-1.9,0.5-2.4,1.3c-0.6-0.1-1.3,0-1.9,0.4c-0.6,0.4-1,1-1.1,1.6
		c-0.3,1.4,0.7,2.8,2.2,3.1c0,0,0.1,0,0.1,0h6.1c1.2,0,2.2-1,2.2-2.2C18.5,15.1,17.4,14,16.1,14.2z M16.4,17.5h-6.1
		c-0.4-0.1-0.7-0.3-1-0.7C9,16.4,8.9,16,9,15.6c0.1-0.4,0.3-0.7,0.7-0.9c0.3-0.2,0.7-0.3,1.1-0.2c0.1,0,0.1,0,0.2,0.1
		c0.3,0.1,0.6,0,0.7-0.3c0.3-0.6,0.9-1,1.6-1c1,0,1.7,0.7,1.8,1.7c0,0.2,0.1,0.4,0.3,0.5c0.2,0.1,0.4,0.1,0.5,0
		c0.8-0.4,1.6,0.2,1.6,1C17.5,17,17,17.5,16.4,17.5z"/>
	<path d="M8.5,13C8.5,13,8.5,13,8.5,13c0.3,0,0.6-0.2,0.6-0.5c0.1-1.1,1.1-1.9,2.2-1.8c0.5,0,0.9,0.3,1.2,0.6c0.2,0.2,0.6,0.2,0.8,0
		c0.2-0.2,0.2-0.6,0-0.8c-0.5-0.5-1.2-0.8-1.9-0.9C9.7,9.4,8.2,10.7,8,12.4C8,12.7,8.2,13,8.5,13z"/>
</g>
</svg>
