<?xml version="1.0" encoding="utf-8"?>
<!-- Generator: Adobe Illustrator 27.4.1, SVG Export Plug-In . SVG Version: 6.00 Build 0)  -->
<svg version="1.1" id="icons" xmlns="http://www.w3.org/2000/svg" xmlns:xlink="http://www.w3.org/1999/xlink" x="0px" y="0px"
	 viewBox="0 0 20 20" style="enable-background:new 0 0 20 20;" xml:space="preserve">
<g>
	<path d="M7.2,9.5l0.5-0.8c0.2-0.3,0.1-0.6-0.2-0.8C7.3,7.8,7,7.8,6.8,8.1L6.3,8.9c-0.6,1-0.5,2.3,0.3,3.1C7,12.4,7.1,13,6.9,13.6
		l-0.7,1.4c-0.1,0.3,0,0.6,0.3,0.7c0.1,0,0.2,0.1,0.2,0.1c0.2,0,0.4-0.1,0.5-0.3L7.8,14c0.5-0.9,0.3-2.1-0.5-2.8
		C6.9,10.7,6.9,10,7.2,9.5z"/>
	<path d="M9.7,8.1L9.2,8.9c-0.6,1-0.5,2.3,0.3,3.1c0.4,0.4,0.5,1.1,0.3,1.6l-0.7,1.4c-0.1,0.3,0,0.6,0.3,0.7c0.1,0,0.2,0.1,0.2,0.1
		c0.2,0,0.4-0.1,0.5-0.3l0.7-1.4c0.5-0.9,0.3-2.1-0.5-2.8c-0.5-0.5-0.5-1.2-0.2-1.7l0.5-0.8c0.2-0.3,0.1-0.6-0.2-0.8
		C10.2,7.8,9.9,7.8,9.7,8.1z"/>
	<path d="M12.6,13.6L12,14.9c-0.1,0.3,0,0.6,0.3,0.7c0.1,0,0.2,0.1,0.2,0.1c0.2,0,0.4-0.1,0.5-0.3l0.7-1.4c0.5-0.9,0.3-2.1-0.5-2.8
		c-0.5-0.5-0.5-1.2-0.2-1.7l0.5-0.8c0.2-0.3,0.1-0.6-0.2-0.8c-0.3-0.2-0.6-0.1-0.8,0.2l-0.5,0.8c-0.6,1-0.5,2.3,0.3,3.1
		C12.8,12.4,12.9,13,12.6,13.6z"/>
	<path d="M18.3,7.8l-8-6.2c-0.2-0.2-0.5-0.2-0.7,0l-8,6.2C1.4,7.9,1.4,8.3,1.6,8.5c0.2,0.2,0.5,0.3,0.8,0.1L3,8v10
		c0,0.3,0.2,0.5,0.5,0.5h12.8c0.3,0,0.5-0.2,0.5-0.5V8.1l0.7,0.6c0.1,0.1,0.2,0.1,0.3,0.1c0.2,0,0.3-0.1,0.4-0.2
		C18.6,8.3,18.6,8,18.3,7.8z M15.9,17.5H4.1V7.2L10,2.7l5.8,4.5V17.5z"/>
</g>
</svg>
