<?xml version="1.0" encoding="utf-8"?>
<!-- Generator: Adobe Illustrator 27.4.1, SVG Export Plug-In . SVG Version: 6.00 Build 0)  -->
<svg version="1.1" id="Ebene_2_00000180349540765610194770000007533188977767663532_"
	 xmlns="http://www.w3.org/2000/svg" xmlns:xlink="http://www.w3.org/1999/xlink" x="0px" y="0px" viewBox="0 0 16.8 17.4"
	 style="enable-background:new 0 0 16.8 17.4;" xml:space="preserve">
<g>
	<path d="M3.8,5.2l0.3-0.5C4.2,4.5,4.2,4.3,4,4.2C3.8,4.1,3.6,4.1,3.5,4.3L3.2,4.8c-0.4,0.6-0.3,1.4,0.2,2C3.6,7,3.7,7.4,3.5,7.7
		L3.1,8.5C3,8.7,3.1,8.9,3.3,9c0.1,0,0.1,0,0.2,0c0.1,0,0.3-0.1,0.3-0.2L4.2,8c0.3-0.6,0.2-1.3-0.3-1.8C3.6,5.9,3.6,5.5,3.8,5.2z"/>
	<path d="M5.7,6.2c-0.3-0.3-0.3-0.7-0.1-1l0.3-0.5C6,4.5,6,4.3,5.8,4.2C5.6,4.1,5.4,4.1,5.3,4.3L5,4.8c-0.4,0.6-0.3,1.4,0.2,2
		C5.4,7,5.5,7.4,5.3,7.7L4.9,8.5C4.8,8.7,4.9,8.9,5.1,9c0.1,0,0.1,0,0.2,0c0.1,0,0.3-0.1,0.3-0.2L6,8C6.3,7.4,6.2,6.7,5.7,6.2z"/>
	<path d="M3.5,9.9H2.1v-6l3.4-2.6l3.4,2.6v1.1c0,0.3,0.2,0.5,0.5,0.5S10,5.2,10,4.9V4.7l0.1,0.1c0.1,0.1,0.2,0.1,0.3,0.1
		c0.2,0,0.3-0.1,0.4-0.2C11.1,4.5,11,4.1,10.8,4L5.9,0.1C5.7,0,5.4,0,5.2,0.1l-5,3.8C0,4.1-0.1,4.5,0.1,4.7C0.3,4.9,0.6,5,0.9,4.8
		L1,4.7v5.7C1,10.7,1.2,11,1.5,11h1.9C3.8,11,4,10.7,4,10.4S3.8,9.9,3.5,9.9z"/>
	<path d="M16.7,16.5l-3.1-3.1c0.6-0.7,0.9-1.7,0.9-2.7c0-2.4-2-4.4-4.4-4.4C9.3,6.3,8.5,6.6,7.9,7C7.8,6.7,7.7,6.4,7.5,6.2
		c-0.3-0.3-0.3-0.7-0.1-1l0.3-0.5c0.1-0.2,0.1-0.4-0.1-0.5C7.4,4.1,7.2,4.1,7.1,4.3L6.8,4.8C6.4,5.4,6.4,6.2,7,6.7
		c0.2,0.2,0.2,0.4,0.2,0.6c0,0.1,0,0.1,0,0.2c-0.9,0.8-1.4,1.9-1.4,3.2c0,2.4,2,4.4,4.4,4.4c1,0,1.9-0.4,2.7-0.9l3.1,3.1
		c0.1,0.1,0.2,0.2,0.4,0.2s0.3-0.1,0.4-0.2C16.9,17,16.9,16.7,16.7,16.5z M6.8,10.7c0-1.8,1.5-3.3,3.3-3.3c1.8,0,3.3,1.5,3.3,3.3
		S12,14,10.1,14C8.3,14,6.8,12.5,6.8,10.7z"/>
</g>
</svg>
