<?xml version="1.0" encoding="utf-8"?>
<!-- Generator: Adobe Illustrator 27.4.1, SVG Export Plug-In . SVG Version: 6.00 Build 0)  -->
<svg version="1.1" id="icons" xmlns="http://www.w3.org/2000/svg" xmlns:xlink="http://www.w3.org/1999/xlink" x="0px" y="0px"
	 viewBox="0 0 20 20" style="enable-background:new 0 0 20 20;" xml:space="preserve">
<g>
	<path d="M12.3,8.3c0.6,0,1.1,0.5,1.1,1.1c0,0.6-0.5,1.1-1.1,1.1H6c-0.3,0-0.5,0.2-0.5,0.5s0.2,0.5,0.5,0.5h6.3c1.2,0,2.2-1,2.2-2.2
		s-1-2.2-2.2-2.2c-0.3,0-0.5,0.2-0.5,0.5S12,8.3,12.3,8.3z"/>
	<path d="M9.9,12.7H6c-0.3,0-0.5,0.2-0.5,0.5s0.2,0.5,0.5,0.5h3.9c0.4,0,0.8,0.3,0.8,0.8c0,0.4-0.3,0.8-0.8,0.8
		c-0.2,0-0.5-0.1-0.6-0.3c-0.2-0.2-0.5-0.3-0.8-0.1c-0.2,0.2-0.3,0.5-0.1,0.8c0.3,0.5,0.9,0.8,1.5,0.8c1,0,1.9-0.8,1.9-1.9
		C11.7,13.5,10.9,12.7,9.9,12.7z"/>
	<path d="M8.8,6.5c-0.3,0-0.5,0.2-0.5,0.5s0.2,0.5,0.5,0.5C9,7.6,9.2,7.8,9.2,8S9,8.4,8.8,8.4H6C5.7,8.4,5.5,8.7,5.5,9
		S5.7,9.5,6,9.5h2.8c0.8,0,1.5-0.7,1.5-1.5S9.6,6.5,8.8,6.5z"/>
	<path d="M18.3,7.8l-8-6.2c-0.2-0.2-0.5-0.2-0.7,0l-8,6.2C1.4,7.9,1.4,8.3,1.6,8.5c0.2,0.2,0.5,0.3,0.8,0.1L3,8v10
		c0,0.3,0.2,0.5,0.5,0.5h12.8c0.3,0,0.5-0.2,0.5-0.5V8.1l0.7,0.6c0.1,0.1,0.2,0.1,0.3,0.1c0.2,0,0.3-0.1,0.4-0.2
		C18.6,8.3,18.6,8,18.3,7.8z M15.9,17.5H4.1V7.2L10,2.7l5.8,4.5V17.5z"/>
</g>
</svg>
