<?xml version="1.0" encoding="utf-8"?>
<!-- Generator: Adobe Illustrator 27.4.1, SVG Export Plug-In . SVG Version: 6.00 Build 0)  -->
<svg version="1.1" id="Ebene_2_00000085244875455127694040000010397531310716025781_"
	 xmlns="http://www.w3.org/2000/svg" xmlns:xlink="http://www.w3.org/1999/xlink" x="0px" y="0px" viewBox="0 0 16.8 17.4"
	 style="enable-background:new 0 0 16.8 17.4;" xml:space="preserve">
<g>
	<path d="M3,6.5h3.9c0.8,0,1.4-0.6,1.4-1.4c0-0.8-0.6-1.4-1.4-1.4c-0.2,0-0.4,0.2-0.4,0.4s0.2,0.4,0.4,0.4c0.4,0,0.6,0.3,0.6,0.6
		c0,0.4-0.3,0.6-0.6,0.6H3C2.8,5.8,2.7,6,2.7,6.2S2.8,6.5,3,6.5z"/>
	<path d="M4.8,4.5H3c-0.2,0-0.4,0.2-0.4,0.4S2.8,5.2,3,5.2h1.8c0,0,0,0,0.1,0c0.5,0,0.9-0.5,0.9-1c0-0.5-0.4-1-1-1
		c-0.2,0-0.4,0.2-0.4,0.4S4.6,4,4.8,4C4.9,4,5,4.1,5,4.3C5,4.4,4.9,4.5,4.8,4.5z"/>
	<path d="M3.5,9.9H2.1v-6l3.4-2.6l3.4,2.6v1.1c0,0.3,0.2,0.5,0.5,0.5S10,5.2,10,4.9V4.7l0.1,0.1c0.1,0.1,0.2,0.1,0.3,0.1
		c0.2,0,0.3-0.1,0.4-0.2C11.1,4.5,11,4.1,10.8,4L5.9,0.1C5.7,0,5.4,0,5.2,0.1l-5,3.8C0,4.1-0.1,4.5,0.1,4.7C0.3,4.9,0.6,5,0.9,4.8
		L1,4.7v5.7C1,10.7,1.2,11,1.5,11h1.9C3.8,11,4,10.7,4,10.4S3.8,9.9,3.5,9.9z"/>
	<path d="M16.7,16.5l-3.1-3.1c0.6-0.7,0.9-1.7,0.9-2.7c0-2.4-2-4.4-4.4-4.4C8.7,6.3,7.4,7,6.6,8.1c-0.1-0.6-0.5-1-1.1-1
		c0,0,0,0-0.1,0H3c-0.2,0-0.4,0.2-0.4,0.4S2.8,7.8,3,7.8h2.4c0.2,0,0.4,0.2,0.4,0.4c0,0.4-0.6,0.6-0.8,0.2C5,8.4,4.7,8.3,4.6,8.4
		C4.4,8.6,4.3,8.8,4.5,9c0.2,0.3,0.6,0.5,1,0.5c0.2,0,0.4-0.1,0.6-0.2c-0.2,0.4-0.3,0.9-0.3,1.4c0,2.4,2,4.4,4.4,4.4
		c1,0,1.9-0.4,2.7-0.9l3.1,3.1c0.1,0.1,0.2,0.2,0.4,0.2s0.3-0.1,0.4-0.2C16.9,17,16.9,16.7,16.7,16.5z M6.8,10.7
		c0-1.8,1.5-3.3,3.3-3.3c1.8,0,3.3,1.5,3.3,3.3S12,14,10.1,14C8.3,14,6.8,12.5,6.8,10.7z"/>
</g>
</svg>
