<?xml version="1.0" encoding="utf-8"?>
<!-- Generator: Adobe Illustrator 27.4.1, SVG Export Plug-In . SVG Version: 6.00 Build 0)  -->
<svg version="1.1" id="icons" xmlns="http://www.w3.org/2000/svg" xmlns:xlink="http://www.w3.org/1999/xlink" x="0px" y="0px"
	 viewBox="0 0 20 20" style="enable-background:new 0 0 20 20;" xml:space="preserve">
<g>
	<path d="M10.4,3.8c0-1.6-1.3-2.9-2.9-2.9S4.6,2.2,4.6,3.8V12c-1,1-1.5,2.4-1.2,3.9c0.3,1.6,1.7,2.9,3.3,3.2c0.3,0,0.5,0.1,0.8,0.1
		c2.3,0,4.1-1.9,4.1-4.1c0-1.1-0.5-2.2-1.3-3V3.8z M10.6,15c0,1.7-1.4,3-3,3c-0.2,0-0.4,0-0.6-0.1c-1.2-0.2-2.2-1.2-2.4-2.3
		c-0.3-1.3,0.3-2.5,1.2-3.1V3.8c0-1,0.8-1.8,1.8-1.8s1.8,0.8,1.8,1.8v8.7C10.1,13,10.6,13.9,10.6,15z"/>
	<path d="M15.5,7.1h-2.2c-0.3,0-0.5,0.2-0.5,0.5s0.2,0.5,0.5,0.5h2.2c0.3,0,0.5-0.2,0.5-0.5S15.8,7.1,15.5,7.1z"/>
	<path d="M13.3,5.2h2.2c0.3,0,0.5-0.2,0.5-0.5s-0.2-0.5-0.5-0.5h-2.2c-0.3,0-0.5,0.2-0.5,0.5S13,5.2,13.3,5.2z"/>
	<path d="M15.5,10.1h-2.2c-0.3,0-0.5,0.2-0.5,0.5s0.2,0.5,0.5,0.5h2.2c0.3,0,0.5-0.2,0.5-0.5S15.8,10.1,15.5,10.1z"/>
	<path d="M8.1,13.1V7.6c0-0.3-0.2-0.5-0.5-0.5S7,7.3,7,7.6v5.4c-0.8,0.2-1.4,1-1.4,1.8c0,1.1,0.9,1.9,1.9,1.9s1.9-0.9,1.9-1.9
		C9.4,14,8.9,13.3,8.1,13.1z"/>
</g>
</svg>
