<?xml version="1.0" encoding="utf-8"?>
<!-- Generator: Adobe Illustrator 27.4.1, SVG Export Plug-In . SVG Version: 6.00 Build 0)  -->
<svg version="1.1" id="icons" xmlns="http://www.w3.org/2000/svg" xmlns:xlink="http://www.w3.org/1999/xlink" x="0px" y="0px"
	 viewBox="0 0 20 20" style="enable-background:new 0 0 20 20;" xml:space="preserve">
<g>
	<path d="M8.5,7.2C8.1,7.6,7.9,8,7.8,8.6c-0.1,1,0.5,1.9,0.8,2.3c-0.1,0.2-0.2,0.4-0.2,0.7c-0.3,0.1-0.5,0-0.8-0.2
		c-0.3-0.2-0.7-0.4-1.2-0.3c-0.4,0.1-0.8,0.3-1,0.6c-0.3,0.5-0.3,1.1,0,1.8c0.1,0.3,0.5,1.1,1.3,1.4c0.2,0.1,0.5,0.1,0.7,0.1
		c0.3,0,0.5-0.1,0.8-0.2c0.9-0.4,1.5-1.3,1.7-1.8c0,0,0.1,0,0.1,0c0.3,0,0.6-0.1,0.8-0.2c0.5,0.2,0.6,0.4,0.7,0.9
		c0.1,0.4,0.2,0.8,0.6,1.2c0.3,0.2,0.6,0.3,0.9,0.3c0.1,0,0.2,0,0.3,0c0.5-0.1,1-0.5,1.3-1.2c0.2-0.3,0.5-1.1,0.2-1.9
		c-0.2-0.5-0.5-0.9-1-1.1c-0.9-0.4-1.9-0.2-2.4-0.1c-0.1-0.3-0.4-0.5-0.7-0.7c0.1-0.3,0.2-0.5,0.5-0.6c0.3-0.2,0.7-0.4,0.9-1
		c0.1-0.4,0.1-0.8-0.1-1.2c-0.3-0.4-0.9-0.8-1.6-0.8C10,6.7,9.1,6.7,8.5,7.2z M7.7,14c-0.3,0.1-0.5,0.1-0.7,0
		c-0.3-0.1-0.6-0.5-0.7-0.9c-0.1-0.4-0.2-0.7,0-0.9c0-0.1,0.1-0.1,0.3-0.2c0.2,0,0.3,0,0.6,0.2c0.4,0.2,0.9,0.5,1.6,0.3
		c0,0.1,0.1,0.1,0.1,0.2C8.7,13,8.4,13.7,7.7,14z M9.9,12.1c-0.3,0-0.5-0.2-0.5-0.5c0-0.3,0.2-0.5,0.5-0.5c0.3,0,0.5,0.2,0.5,0.5
		C10.4,11.9,10.2,12.1,9.9,12.1z M13.3,12c0.3,0.1,0.4,0.3,0.5,0.5c0.1,0.4,0,0.8-0.2,1.1c-0.2,0.3-0.4,0.6-0.7,0.6
		c-0.1,0-0.2,0-0.3-0.1c-0.1-0.1-0.2-0.3-0.2-0.6c-0.1-0.4-0.2-1.1-1-1.5c0,0,0-0.1,0-0.1C11.6,11.9,12.5,11.6,13.3,12z M11,8.1
		c0,0.1,0.1,0.1,0,0.3c-0.1,0.2-0.2,0.3-0.4,0.4c-0.4,0.2-0.9,0.6-1,1.3c-0.1,0-0.1,0-0.2,0.1C9.2,10,8.8,9.3,8.8,8.6
		c0-0.3,0.1-0.5,0.3-0.6c0.3-0.2,0.8-0.3,1.1-0.3C10.6,7.8,10.9,7.9,11,8.1z"/>
	<path d="M18.3,7.8l-8-6.2c-0.2-0.2-0.5-0.2-0.7,0l-8,6.2C1.4,7.9,1.4,8.3,1.6,8.5c0.2,0.2,0.5,0.3,0.8,0.1L3.1,8l0.1,10
		c0,0.3,0.2,0.5,0.5,0.5h12.7c0.1,0,0.3-0.1,0.4-0.2c0.1-0.1,0.2-0.2,0.2-0.4L16.8,8l0.8,0.6c0.1,0.1,0.2,0.1,0.3,0.1
		c0.2,0,0.3-0.1,0.4-0.2C18.6,8.3,18.6,8,18.3,7.8z M15.8,17.5H4.3L4.2,7.2L10,2.7l5.7,4.4L15.8,17.5z"/>
</g>
</svg>
