<?xml version="1.0" encoding="utf-8"?>
<!-- Generator: Adobe Illustrator 27.4.1, SVG Export Plug-In . SVG Version: 6.00 Build 0)  -->
<svg version="1.1" id="Ebene_2_00000018223621231145396040000005929168658963729295_"
	 xmlns="http://www.w3.org/2000/svg" xmlns:xlink="http://www.w3.org/1999/xlink" x="0px" y="0px" viewBox="0 0 16.8 17.4"
	 style="enable-background:new 0 0 16.8 17.4;" xml:space="preserve">
<g>
	<path d="M3.5,9.9H2.1v-6l3.4-2.6l3.4,2.6v1.1c0,0.3,0.2,0.5,0.5,0.5S10,5.2,10,4.9V4.7l0.1,0.1c0.1,0.1,0.2,0.1,0.3,0.1
		c0.2,0,0.3-0.1,0.4-0.2C11.1,4.5,11,4.1,10.8,4L5.9,0.1C5.7,0,5.4,0,5.2,0.1l-5,3.8C0,4.1-0.1,4.5,0.1,4.7C0.3,4.9,0.6,5,0.9,4.8
		L1,4.7v5.7C1,10.7,1.2,11,1.5,11h1.9C3.8,11,4,10.7,4,10.4S3.8,9.9,3.5,9.9z"/>
	<path d="M16.7,16.5l-3.1-3.1c0.6-0.7,0.9-1.7,0.9-2.7c0-2.4-2-4.4-4.4-4.4C9.5,6.3,9,6.4,8.4,6.7C8.3,6.4,8.1,6.3,7.9,6.2
		C7.3,5.9,6.7,6,6.4,6.1C6.3,5.9,6.2,5.8,6,5.7c0-0.1,0.1-0.2,0.3-0.3c0.2-0.1,0.4-0.3,0.6-0.6C7,4.5,6.9,4.2,6.8,4
		c-0.2-0.3-0.6-0.5-1-0.5c-0.2,0-0.8,0-1.2,0.3C4.3,4,4.2,4.3,4.2,4.7c0,0.6,0.3,1.2,0.5,1.5C4.6,6.2,4.6,6.4,4.6,6.5
		c-0.2,0-0.3,0-0.4-0.1C4,6.3,3.7,6.1,3.3,6.2C3,6.2,2.8,6.4,2.7,6.6c-0.2,0.3-0.2,0.7,0,1.2C2.7,7.9,3,8.4,3.5,8.7
		c0.1,0.1,0.3,0.1,0.5,0.1c0.2,0,0.3,0,0.5-0.1c0.6-0.2,0.9-0.8,1-1.1c0,0,0,0,0,0c0.2,0,0.3-0.1,0.5-0.1c0.3,0.1,0.3,0.2,0.4,0.5
		c0,0.1,0,0.2,0.1,0.4C6,9,5.7,9.8,5.7,10.7c0,2.4,2,4.4,4.4,4.4c1,0,1.9-0.4,2.7-0.9l3.1,3.1c0.1,0.1,0.2,0.2,0.4,0.2
		s0.3-0.1,0.4-0.2C16.9,17,16.9,16.7,16.7,16.5z M7.6,6.8c0.1,0,0.1,0.1,0.2,0.2C7.5,7.2,7.3,7.3,7.1,7.6C7,7.3,6.9,7,6.5,6.8
		C6.7,6.8,7.2,6.7,7.6,6.8z M5.1,4.4c0.1-0.1,0.3-0.2,0.5-0.2c0,0,0.1,0,0.1,0c0.2,0,0.4,0.1,0.5,0.2c0,0,0,0.1,0,0.1
		c0,0.1-0.1,0.1-0.2,0.2C5.7,4.9,5.4,5.1,5.3,5.6c0,0,0,0,0,0C5.1,5.5,4.9,5.1,4.9,4.7C4.9,4.6,5,4.4,5.1,4.4z M4.2,7.9
		C4,8,3.9,8,3.8,8C3.6,7.9,3.4,7.7,3.4,7.5C3.3,7.2,3.3,7,3.3,7c0,0,0-0.1,0.1-0.1c0,0,0,0,0,0c0.1,0,0.1,0,0.3,0.1
		c0.2,0.1,0.6,0.3,1,0.2c0,0,0,0,0,0C4.7,7.4,4.5,7.8,4.2,7.9z M5.3,6.6c0-0.1,0.1-0.2,0.2-0.2c0.1,0,0.2,0.1,0.2,0.2
		C5.8,6.8,5.3,6.8,5.3,6.6z M6.8,10.7c0-1.8,1.5-3.3,3.3-3.3c1.8,0,3.3,1.5,3.3,3.3S12,14,10.1,14C8.3,14,6.8,12.5,6.8,10.7z"/>
</g>
</svg>
