<?xml version="1.0" encoding="utf-8"?>
<!-- Generator: Adobe Illustrator 27.4.1, SVG Export Plug-In . SVG Version: 6.00 Build 0)  -->
<svg version="1.1" id="Ebene_2_00000083090149877792912180000015869697188653551022_"
	 xmlns="http://www.w3.org/2000/svg" xmlns:xlink="http://www.w3.org/1999/xlink" x="0px" y="0px" viewBox="0 0 18.3 9.8"
	 style="enable-background:new 0 0 18.3 9.8;" xml:space="preserve">
<g>
	<path d="M18,2l-0.4-1C16.8,0,16.1,0,14.8,0l-0.4,0c-0.9,0-2.4,0.4-3.6,0.8c-0.5,0.1-1,0.3-1.4,0.4l-0.4,0C8.4,1.1,7.7,0.9,7,0.7
		C5.9,0.4,4.8,0,3.9,0L3.5,0c-1.3,0-2,0-2.8,1.1L0.3,2.1c-0.4,1.2-0.4,2.5-0.1,3.8c0.8,3.4,2.4,3.6,4.3,4c0.2,0,0.4,0,0.6,0
		c1.7,0,3.4-1.1,4-1.6c0.8,0.6,2.8,1.9,4.8,1.6c1.8-0.3,3.4-0.6,4.2-3.9C18.4,4.5,18.4,3.2,18,2z M9.4,1.4L9.4,1.4L9.4,1.4
		C9.4,1.4,9.4,1.4,9.4,1.4z M17,5.6c-0.6,2.7-1.6,2.8-3.4,3.1C11.8,9,9.5,7.2,9.5,7.1L9.4,7H9H8.8L8.7,7.1c0,0-2.2,1.9-4.1,1.6
		C2.8,8.4,1.9,8.3,1.3,5.6C1,4.5,1.1,3.4,1.3,2.5l0.4-0.8c0.4-0.5,0.5-0.6,1.8-0.6l0.4,0c0.7,0,1.8,0.3,2.7,0.6
		C7.5,2,8.2,2.2,8.8,2.3c0.4,0.1,1,0,2.3-0.4c1.1-0.3,2.5-0.8,3.3-0.8l0.4,0c1.3,0,1.4,0,1.8,0.5l0.4,0.9C17.2,3.4,17.3,4.5,17,5.6z
		"/>
	<path d="M7.5,3.6C6.9,3.3,6.1,3.1,5.3,3.1C3.6,2.9,1.8,3.4,1.8,4.6C1.7,5.8,3.3,6.5,5,6.6c0.2,0,0.3,0,0.5,0c0.7,0,1.3-0.1,1.8-0.3
		c1-0.4,1.2-1,1.2-1.3C8.6,4.8,8.5,4.1,7.5,3.6z M7,5.4C6.5,5.6,5.8,5.7,5.1,5.6c-1.6-0.1-2.4-0.7-2.3-1c0-0.2,0.7-0.6,2-0.6
		c0.1,0,0.3,0,0.4,0c0.7,0,1.4,0.2,1.8,0.5C7.4,4.7,7.5,4.9,7.5,5C7.5,5.1,7.4,5.3,7,5.4z"/>
	<path d="M13.1,3c-1.7,0.1-3.3,0.9-3.3,2c0.1,1.1,1.5,1.6,3,1.6c0.2,0,0.3,0,0.5,0c1.7-0.1,3.3-0.9,3.3-2C16.5,3.4,14.8,2.9,13.1,3z
		 M13.3,5.6c-1.6,0.1-2.4-0.4-2.5-0.6c0-0.2,0.8-0.9,2.3-1c1.6-0.1,2.4,0.4,2.5,0.6C15.6,4.9,14.8,5.5,13.3,5.6z"/>
</g>
</svg>
