<?xml version="1.0" encoding="utf-8"?>
<!-- Generator: Adobe Illustrator 27.4.1, SVG Export Plug-In . SVG Version: 6.00 Build 0)  -->
<svg version="1.1" id="Ebene_2_00000023245250546321747500000000443981120877311619_"
	 xmlns="http://www.w3.org/2000/svg" xmlns:xlink="http://www.w3.org/1999/xlink" x="0px" y="0px" viewBox="0 0 18.6 16"
	 style="enable-background:new 0 0 18.6 16;" xml:space="preserve">
<g>
	<path d="M10.5,9.9c-0.3,0-0.5,0.2-0.5,0.5v3.1C9.5,14.3,7.8,15,5.6,15c-2.3,0-4.1-0.7-4.6-1.5v-1.9c1,0.7,2.7,1.1,4.5,1.1
		c0.3,0,0.6,0,1,0c0.3,0,0.5-0.3,0.5-0.5c0-0.3-0.3-0.5-0.5-0.5c-0.3,0-0.6,0-0.9,0c-2.3,0-4.1-0.7-4.5-1.5V8.4
		c1,0.7,2.6,1.2,4.5,1.2C5.8,9.6,6,9.4,6,9.1S5.8,8.6,5.5,8.6C2.9,8.6,1,7.6,1,6.7c0-0.6,0.9-1.2,2.2-1.6c0.3-0.1,0.4-0.3,0.4-0.6
		C3.5,4.3,3.2,4.1,3,4.2C1.1,4.7,0,5.6,0,6.7v7c0,0.1,0,0.1,0,0.2C0.7,15.3,3.3,16,5.6,16c2.6,0,4.8-0.9,5.4-2.1c0-0.1,0-0.1,0-0.2
		v-3.3C11,10.2,10.8,9.9,10.5,9.9z"/>
	<path d="M18.3,1.6l-0.3-0.8C17.4,0,16.7,0,15.8,0l-0.3,0c-0.7,0-1.8,0.3-2.8,0.6c-0.4,0.1-0.8,0.2-1,0.3l-0.3,0
		C11,0.9,10.4,0.7,9.9,0.5C9.1,0.3,8.3,0,7.6,0L7.2,0C6.2,0,5.6,0,5,0.9L4.7,1.7C4.4,2.6,4.4,3.6,4.6,4.6c0.6,2.7,1.9,2.9,3.3,3.1
		c0.2,0,0.3,0,0.5,0c1.3,0,2.5-0.8,3.1-1.2C12.1,7,13.6,8,15.1,7.7c1.4-0.2,2.7-0.5,3.3-3.1C18.6,3.6,18.6,2.6,18.3,1.6z M11.8,1.2
		l-0.1,0.1l0-0.2C11.7,1.1,11.8,1.1,11.8,1.2z M17.3,4.4c-0.4,1.9-1.1,2.1-2.4,2.3c-1.4,0.2-3-1.2-3-1.2l-0.2-0.1h-0.4l-0.2,0.1
		c-0.4,0.4-1.8,1.4-3,1.2c-1.3-0.2-2-0.3-2.4-2.3C5.5,3.6,5.5,2.7,5.7,2.1L6,1.5c0.2-0.4,0.3-0.4,1.3-0.4l0.3,0c0.5,0,1.3,0.3,2,0.5
		C10.3,1.8,10.8,2,11.2,2C11.5,2.1,12,2,13,1.7c0.8-0.2,1.9-0.6,2.5-0.6l0.3,0c1,0,1,0,1.2,0.3L17.3,2C17.5,2.7,17.5,3.6,17.3,4.4z"
		/>
	<path d="M8.6,2.3C7.2,2.3,5.9,2.7,5.8,3.6c0,0,0,0,0,0C5.7,4.6,7,5.2,8.4,5.3c0.1,0,0.2,0,0.4,0c1.2,0,2.4-0.4,2.4-1.3
		C11.2,3,9.9,2.4,8.6,2.3z M8.4,4.3c-1-0.1-1.6-0.5-1.7-0.6c0.1-0.1,0.7-0.4,1.7-0.4c1.1,0.1,1.6,0.5,1.7,0.6
		C10.1,4.1,9.5,4.4,8.4,4.3z"/>
	<path d="M14.5,2.3C13.2,2.4,11.8,3,11.9,4c0,0.3,0.2,0.8,1,1.1c0.4,0.1,0.9,0.2,1.4,0.2c0.1,0,0.2,0,0.4,0c1.3-0.1,2.6-0.7,2.6-1.7
		C17.2,2.7,15.8,2.2,14.5,2.3z M14.6,4.3c-1.1,0.1-1.7-0.2-1.7-0.4c0-0.1,0.6-0.5,1.7-0.6c0.1,0,0.2,0,0.3,0c0.9,0,1.4,0.3,1.4,0.4
		C16.2,3.8,15.7,4.2,14.6,4.3z"/>
</g>
</svg>
