<?xml version="1.0" encoding="utf-8"?>
<!-- Generator: Adobe Illustrator 27.4.1, SVG Export Plug-In . SVG Version: 6.00 Build 0)  -->
<svg version="1.1" id="icons" xmlns="http://www.w3.org/2000/svg" xmlns:xlink="http://www.w3.org/1999/xlink" x="0px" y="0px"
	 viewBox="0 0 20 20" style="enable-background:new 0 0 20 20;" xml:space="preserve">
<g>
	<path d="M16.6,3.2H3.4c-1.1,0-1.9,0.9-1.9,2v9.6c0,1.1,0.9,2,1.9,2h13.2c1.1,0,2-0.9,2-2V5.2C18.5,4.1,17.7,3.2,16.6,3.2z
		 M17.5,14.8c0,0.5-0.4,0.9-0.9,0.9H3.4c-0.5,0-0.9-0.4-0.9-0.9V5.2c0-0.5,0.4-0.9,0.9-0.9h13.2c0.5,0,0.9,0.4,0.9,0.9V14.8z"/>
	<path d="M6.9,7C6.6,7,6.4,7.2,6.4,7.5v5c0,0.3,0.2,0.5,0.5,0.5s0.5-0.2,0.5-0.5v-5C7.5,7.2,7.2,7,6.9,7z"/>
	<path d="M10.6,7H9.5C9.2,7,9,7.2,9,7.5v5C9,12.8,9.2,13,9.5,13h1.1c1.7,0,3-1.4,3-3C13.6,8.3,12.3,7,10.6,7z M10.6,11.9h-0.5V8.1
		h0.5c1.1,0,1.9,0.9,1.9,1.9C12.5,11.1,11.7,11.9,10.6,11.9z"/>
</g>
</svg>
