<?xml version="1.0" encoding="utf-8"?>
<!-- Generator: Adobe Illustrator 27.4.1, SVG Export Plug-In . SVG Version: 6.00 Build 0)  -->
<svg version="1.1" id="Ebene_2_00000079450091451073002220000010729331059015740294_"
	 xmlns="http://www.w3.org/2000/svg" xmlns:xlink="http://www.w3.org/1999/xlink" x="0px" y="0px" viewBox="0 0 17.1 13.6"
	 style="enable-background:new 0 0 17.1 13.6;" xml:space="preserve">
<g>
	<path d="M15.2,0H2C0.9,0,0,0.9,0,2v9.6c0,1.1,0.9,2,2,2h13.2c1.1,0,1.9-0.9,1.9-2V2C17.1,0.9,16.2,0,15.2,0z M16,11.6
		c0,0.5-0.4,0.9-0.8,0.9H2c-0.5,0-0.9-0.4-0.9-0.9V2c0-0.5,0.4-0.9,0.9-0.9h13.2C15.6,1.1,16,1.5,16,2V11.6z"/>
	<path d="M6.2,4.7C6,4.5,5.6,4.6,5.5,4.8L4.7,6L3.9,4.8C3.8,4.6,3.5,4.5,3.3,4.7C3,4.8,3,5.1,3.1,5.3l1,1.6l-1,1.6
		C3,8.8,3,9.1,3.3,9.3c0.1,0.1,0.2,0.1,0.3,0.1c0.2,0,0.3-0.1,0.4-0.2l0.8-1.2l0.8,1.2c0.1,0.1,0.3,0.2,0.4,0.2c0.1,0,0.2,0,0.3-0.1
		c0.2-0.1,0.3-0.5,0.2-0.7L5.3,7l1-1.6C6.5,5.1,6.4,4.8,6.2,4.7z"/>
	<path d="M9.8,4.7C9.6,4.5,9.3,4.6,9.1,4.8L8.4,6L7.6,4.8C7.4,4.6,7.1,4.5,6.9,4.7C6.7,4.8,6.6,5.1,6.8,5.3l1.1,1.8v1.8
		c0,0.3,0.2,0.5,0.5,0.5s0.5-0.2,0.5-0.5V7.1L10,5.3C10.1,5.1,10.1,4.8,9.8,4.7z"/>
	<path d="M13.4,8.3h-1.6l1.9-3c0.1-0.2,0.1-0.3,0-0.5c-0.1-0.2-0.3-0.3-0.4-0.3h-2.4c-0.3,0-0.5,0.2-0.5,0.5s0.2,0.5,0.5,0.5h1.5
		l-1.9,3c-0.1,0.2-0.1,0.3,0,0.5c0.1,0.2,0.3,0.3,0.4,0.3h2.5c0.3,0,0.5-0.2,0.5-0.5S13.7,8.3,13.4,8.3z"/>
</g>
</svg>
