<?xml version="1.0" encoding="utf-8"?>
<!-- Generator: Adobe Illustrator 27.4.1, SVG Export Plug-In . SVG Version: 6.00 Build 0)  -->
<svg version="1.1" id="icons" xmlns="http://www.w3.org/2000/svg" xmlns:xlink="http://www.w3.org/1999/xlink" x="0px" y="0px"
	 viewBox="0 0 20 20" style="enable-background:new 0 0 20 20;" xml:space="preserve">
<g>
	<path d="M8.1,11.2H7c-1.4,0-2.5,1-2.9,2.3c-0.1,0.3,0.1,0.6,0.4,0.7c0,0,0.1,0,0.1,0c0.2,0,0.5-0.2,0.5-0.4
		c0.2-0.9,0.9-1.5,1.8-1.5h1.2c0.8,0,1.6,0.6,1.8,1.5c0.1,0.3,0.4,0.5,0.7,0.4c0.3-0.1,0.5-0.4,0.4-0.7C10.7,12.1,9.5,11.2,8.1,11.2
		z"/>
	<path d="M7.6,10.4c1,0,1.9-0.9,1.9-1.9S8.6,6.6,7.6,6.6S5.7,7.4,5.7,8.5S6.5,10.4,7.6,10.4z M7.6,7.7C8,7.7,8.4,8,8.4,8.5
		S8,9.3,7.6,9.3S6.8,8.9,6.8,8.5S7.1,7.7,7.6,7.7z"/>
	<path d="M15.3,7.6h-3.2c-0.3,0-0.5,0.2-0.5,0.5s0.2,0.5,0.5,0.5h3.2c0.3,0,0.5-0.2,0.5-0.5S15.6,7.6,15.3,7.6z"/>
	<path d="M15.3,10.2h-3.2c-0.3,0-0.5,0.2-0.5,0.5s0.2,0.5,0.5,0.5h3.2c0.3,0,0.5-0.2,0.5-0.5S15.6,10.2,15.3,10.2z"/>
	<path d="M16.6,3.2H3.4c-1.1,0-1.9,0.9-1.9,2v9.6c0,1.1,0.9,2,1.9,2h13.2c1.1,0,2-0.9,2-2V5.2C18.5,4.1,17.7,3.2,16.6,3.2z
		 M17.5,14.8c0,0.5-0.4,0.9-0.9,0.9H3.4c-0.5,0-0.9-0.4-0.9-0.9V5.2c0-0.5,0.4-0.9,0.9-0.9h13.2c0.5,0,0.9,0.4,0.9,0.9V14.8z"/>
</g>
</svg>
