<?xml version="1.0" encoding="utf-8"?>
<!-- Generator: Adobe Illustrator 27.4.1, SVG Export Plug-In . SVG Version: 6.00 Build 0)  -->
<svg version="1.1" id="icons" xmlns="http://www.w3.org/2000/svg" xmlns:xlink="http://www.w3.org/1999/xlink" x="0px" y="0px"
	 viewBox="0 0 20 20" style="enable-background:new 0 0 20 20;" xml:space="preserve">
<g>
	<path d="M16.4,1.5H3.6c-1.2,0-2.2,1-2.2,2.2v8.7c0,1.2,1,2.2,2.2,2.2h5.8v2.9H7c-0.3,0-0.5,0.2-0.5,0.5s0.2,0.5,0.5,0.5h6
		c0.3,0,0.5-0.2,0.5-0.5s-0.2-0.5-0.5-0.5h-2.5v-2.9h5.8c1.2,0,2.2-1,2.2-2.2V3.6C18.5,2.4,17.6,1.5,16.4,1.5z M17.5,12.4
		c0,0.6-0.5,1.1-1.1,1.1H3.6c-0.6,0-1.1-0.5-1.1-1.1V3.6C2.5,3,3,2.5,3.6,2.5h12.7c0.6,0,1.1,0.5,1.1,1.1V12.4z"/>
	<path d="M11.3,5h-1c-0.2,0-0.4,0.1-0.5,0.3c0,0.1-0.1,0.2-0.1,0.3v3.1c0,0,0,0,0,0.1s0,0,0,0.1v1.7c0,0.3,0.2,0.5,0.5,0.5
		s0.5-0.2,0.5-0.5V9.3h0.4c1.5,0,2.6-0.9,2.6-2.1S12.8,5,11.3,5z M11.3,8.2h-0.4V6.1h0.4c0.7,0,1.5,0.3,1.5,1
		C12.8,7.8,12.1,8.2,11.3,8.2z"/>
	<path d="M7.4,5C7.1,5,6.8,5.2,6.8,5.5v5c0,0.3,0.2,0.5,0.5,0.5s0.5-0.2,0.5-0.5v-5C7.9,5.2,7.7,5,7.4,5z"/>
</g>
</svg>
