<?xml version="1.0" encoding="utf-8"?>
<!-- Generator: Adobe Illustrator 27.4.1, SVG Export Plug-In . SVG Version: 6.00 Build 0)  -->
<svg version="1.1" id="icons" xmlns="http://www.w3.org/2000/svg" xmlns:xlink="http://www.w3.org/1999/xlink" x="0px" y="0px"
	 viewBox="0 0 20 20" style="enable-background:new 0 0 20 20;" xml:space="preserve">
<g>
	<path d="M18,9.1c-0.3,0-0.5,0.2-0.5,0.5v2.7c0,0.6-0.5,1.1-1.1,1.1H3.6c-0.6,0-1.1-0.5-1.1-1.1V9.7c0-0.3-0.2-0.5-0.5-0.5
		S1.5,9.4,1.5,9.7v2.7c0,1.2,1,2.2,2.2,2.2h5.8v2.9H7c-0.3,0-0.5,0.2-0.5,0.5s0.2,0.5,0.5,0.5h6c0.3,0,0.5-0.2,0.5-0.5
		s-0.2-0.5-0.5-0.5h-2.5v-2.9h5.8c1.2,0,2.2-1,2.2-2.2V9.7C18.5,9.4,18.3,9.1,18,9.1z"/>
	<circle cx="10" cy="10.8" r="0.9"/>
	<path d="M15.3,7c0.2-0.2,0.2-0.6,0-0.8c-1.4-1.3-3.3-2-5.2-2c-2,0-3.9,0.8-5.4,2.2c-0.2,0.2-0.2,0.6,0,0.8c0.1,0.1,0.3,0.2,0.4,0.2
		c0.1,0,0.3-0.1,0.4-0.2C6.7,6,8.4,5.3,10.1,5.3c1.6,0,3.2,0.6,4.5,1.7C14.8,7.2,15.1,7.2,15.3,7z"/>
	<path d="M3.2,5.4c0.1,0,0.3-0.1,0.4-0.2c1.7-1.7,4-2.7,6.4-2.7c2.4,0,4.6,0.9,6.3,2.6c0.2,0.2,0.6,0.2,0.8,0c0.2-0.2,0.2-0.6,0-0.8
		c-1.9-1.9-4.4-2.9-7.1-2.9c-2.7,0-5.3,1.1-7.2,3C2.6,4.7,2.6,5,2.8,5.3C2.9,5.4,3.1,5.4,3.2,5.4z"/>
	<path d="M13.4,8.8c0.2-0.2,0.1-0.5-0.1-0.7c-2-1.6-4.8-1.5-6.7,0.1c-0.2,0.2-0.2,0.5,0,0.7c0.1,0.1,0.2,0.2,0.4,0.2
		c0.1,0,0.2,0,0.3-0.1c1.6-1.4,3.9-1.4,5.5-0.1C13,9.1,13.3,9,13.4,8.8z"/>
</g>
</svg>
