<?xml version="1.0" encoding="utf-8"?>
<!-- Generator: Adobe Illustrator 27.4.1, SVG Export Plug-In . SVG Version: 6.00 Build 0)  -->
<svg version="1.1" id="icons" xmlns="http://www.w3.org/2000/svg" xmlns:xlink="http://www.w3.org/1999/xlink" x="0px" y="0px"
	 viewBox="0 0 20 20" style="enable-background:new 0 0 20 20;" xml:space="preserve">
<g>
	<path d="M16.4,1.5H3.6c-1.2,0-2.2,1-2.2,2.2v8.7c0,1.2,1,2.2,2.2,2.2h5.8v2.9H7c-0.3,0-0.5,0.2-0.5,0.5s0.2,0.5,0.5,0.5h6
		c0.3,0,0.5-0.2,0.5-0.5s-0.2-0.5-0.5-0.5h-2.5v-2.9h5.8c1.2,0,2.2-1,2.2-2.2V3.6C18.5,2.4,17.6,1.5,16.4,1.5z M17.5,12.4
		c0,0.6-0.5,1.1-1.1,1.1H3.6c-0.6,0-1.1-0.5-1.1-1.1V3.6C2.5,3,3,2.5,3.6,2.5h12.7c0.6,0,1.1,0.5,1.1,1.1V12.4z"/>
	<path d="M9,5C8.7,5,8.4,5.2,8.4,5.5v3.2L5.9,5.2C5.8,5,5.5,4.9,5.3,5C5,5.1,4.9,5.3,4.9,5.5v5c0,0.3,0.2,0.6,0.5,0.6S6,10.8,6,10.5
		V7.2l2.5,3.5C8.6,10.9,8.8,11,9,11c0.1,0,0.1,0,0.2,0c0.2-0.1,0.4-0.3,0.4-0.5v-5C9.5,5.2,9.3,5,9,5z"/>
	<path d="M13.1,5c-1.1,0-2,0.9-2,2s0.9,2,2,2s2-0.9,2-2S14.2,5,13.1,5z M13.1,8c-0.5,0-1-0.4-1-1s0.4-1,1-1s1,0.4,1,1S13.6,8,13.1,8
		z"/>
	<path d="M14.6,9.9h-3c-0.3,0-0.5,0.2-0.5,0.5s0.2,0.6,0.5,0.6h3c0.3,0,0.5-0.2,0.5-0.6S14.9,9.9,14.6,9.9z"/>
</g>
</svg>
