<?xml version="1.0" encoding="utf-8"?>
<!-- Generator: Adobe Illustrator 27.4.1, SVG Export Plug-In . SVG Version: 6.00 Build 0)  -->
<svg version="1.1" id="icons" xmlns="http://www.w3.org/2000/svg" xmlns:xlink="http://www.w3.org/1999/xlink" x="0px" y="0px"
	 viewBox="0 0 20 20" style="enable-background:new 0 0 20 20;" xml:space="preserve">
<g>
	<path d="M9.1,9.8c0.3-0.1,0.4-0.4,0.3-0.7C8.8,7.6,7.7,5.7,7,4.4C6.7,3.9,6.2,3.7,5.7,3.7s-1,0.3-1.3,0.8C3,6.7,1.5,9.7,1.5,11.2
		c0,2.3,1.9,4.2,4.2,4.2c0.4,0,0.9-0.1,1.3-0.2c0.3-0.1,0.5-0.4,0.4-0.7c-0.1-0.3-0.4-0.5-0.7-0.4c-0.3,0.1-0.6,0.1-0.9,0.1
		c-1.7,0-3.1-1.4-3.1-3.1c0-0.9,1-3.2,2.8-6.2c0.1-0.2,0.3-0.2,0.4-0.2S5.9,4.8,6,5C6.8,6.2,7.8,8,8.4,9.5C8.5,9.8,8.8,9.9,9.1,9.8z
		"/>
	<path d="M13.9,9.6c1.7,0,3-1.3,3-3c0-0.8-0.6-2.3-1.9-4.5c-0.2-0.4-0.6-0.6-1.1-0.6h0c-0.5,0-0.9,0.2-1.1,0.6
		c-1.3,2.2-1.9,3.7-1.9,4.5C10.9,8.3,12.2,9.6,13.9,9.6z M13.8,2.6c0-0.1,0.1-0.1,0.1-0.1s0.1,0,0.1,0.1c1.1,1.9,1.8,3.4,1.8,4
		c0,1-0.9,1.9-1.9,1.9S12,7.7,12,6.6C12,6,12.7,4.5,13.8,2.6z"/>
	<path d="M12.3,13.2c0-1-0.8-1.8-1.8-1.8s-1.8,0.8-1.8,1.8s0.8,1.7,1.8,1.7S12.3,14.2,12.3,13.2z M10.5,13.8c-0.4,0-0.7-0.3-0.7-0.6
		s0.3-0.7,0.7-0.7s0.7,0.3,0.7,0.7S10.9,13.8,10.5,13.8z"/>
	<path d="M16.8,15c-1,0-1.8,0.8-1.8,1.8s0.8,1.8,1.8,1.8s1.8-0.8,1.8-1.8S17.8,15,16.8,15z M16.8,17.5c-0.4,0-0.7-0.3-0.7-0.7
		s0.3-0.7,0.7-0.7s0.7,0.3,0.7,0.7S17.2,17.5,16.8,17.5z"/>
	<path d="M15.7,11.5c-0.3-0.2-0.6-0.1-0.8,0.2l-3.5,6c-0.2,0.3-0.1,0.6,0.2,0.8c0.1,0,0.2,0.1,0.3,0.1c0.2,0,0.4-0.1,0.5-0.3l3.5-6
		C16,12,15.9,11.7,15.7,11.5z"/>
</g>
</svg>
