<?xml version="1.0" encoding="utf-8"?>
<!-- Generator: Adobe Illustrator 27.4.1, SVG Export Plug-In . SVG Version: 6.00 Build 0)  -->
<svg version="1.1" id="Ebene_2_00000037689643972486073230000012689723389284604817_"
	 xmlns="http://www.w3.org/2000/svg" xmlns:xlink="http://www.w3.org/1999/xlink" x="0px" y="0px" viewBox="0 0 18.6 13.6"
	 style="enable-background:new 0 0 18.6 13.6;" xml:space="preserve">
<g>
	<path d="M17.8,7.2C17.8,7.2,17.8,7.2,17.8,7.2L15.9,4c-0.3-0.5-0.8-1.1-1.5-1.4l-0.9-1.7c-0.1-0.4-0.5-0.6-0.9-0.8
		C12.2,0,11.8,0,11.4,0.2c-0.8,0.3-1.2,1.1-1.1,1.7l0.2,1.8c-0.1,0.3-0.2,0.6-0.2,0.9c0,0.1,0,0.1,0,0.2l0.2,4.7c0,0,0,0,0,0
		c0,0,0,0.1,0,0.1c0,1.1,0.4,2.1,1.2,2.8c0.8,0.8,1.8,1.2,2.9,1.2c0,0,0,0,0,0c2.2,0,4.1-1.8,4.1-4C18.6,8.7,18.3,7.9,17.8,7.2z
		 M15.7,5.8c-0.4-0.1-0.8-0.2-1.1-0.2c-1.2,0-2.3,0.6-3.1,1.4l-0.1-2.4c0-0.4,0.2-0.8,0.5-1.1c0.3-0.2,0.6-0.4,1-0.4h0
		c1,0,1.8,0.9,2,1.3L15.7,5.8z M11.8,1.2c0.2-0.1,0.4-0.1,0.5,0c0.1,0,0.1,0.1,0.2,0.1l0.4,0.9c0,0,0,0-0.1,0c0,0,0,0,0,0
		c-0.5,0-1,0.2-1.4,0.4l-0.1-0.7C11.4,1.7,11.5,1.3,11.8,1.2z M14.5,12.5C14.5,12.5,14.5,12.5,14.5,12.5c-0.8,0-1.5-0.3-2.1-0.9
		c-0.6-0.5-0.9-1.3-0.9-2c0,0,0,0,0,0c0-0.1,0-0.1,0-0.2c0.1-1.5,1.4-2.7,3-2.7c0,0,0,0,0,0c0.8,0,1.5,0.3,2.1,0.9
		c0.6,0.5,0.9,1.3,0.9,2C17.5,11.2,16.2,12.5,14.5,12.5z"/>
	<path d="M8.4,0.1c-0.8-0.3-1.6,0-2,0.5L5.2,2.3C4.5,2.6,4,3.2,3.7,3.7L1.5,6.3c0,0,0,0,0,0C0.6,7,0,8.1,0,9.4c0,2.2,1.8,4,4.1,4
		c0,0,0,0,0,0c1.7,0,3.2-1,3.8-2.5c0-0.1,0.1-0.1,0.1-0.2L8,10.3c0-0.1,0-0.1,0.1-0.2l1.2-5.4c0,0,0-0.1,0-0.1l0-0.2
		c0-0.3-0.1-0.5-0.2-0.7l0.4-1.8C9.6,1.1,9.1,0.4,8.4,0.1z M8,1.1c0.4,0.1,0.5,0.4,0.5,0.5L8.3,2.5C7.9,2.1,7.4,1.9,6.8,1.9l0.4-0.6
		C7.3,1.2,7.6,1,8,1.1z M4.1,12.3C4.1,12.3,4.1,12.3,4.1,12.3c-1.6,0-3-1.3-3-2.9c0-1.6,1.3-2.9,3-2.9c0,0,0,0,0,0
		c1.6,0,2.9,1.2,2.9,2.7c0,0.1,0,0.1,0,0.2C7,9.5,7,9.7,7,9.8l-0.1,0.2C6.6,11.3,5.4,12.3,4.1,12.3z M7.5,7.3c-0.7-1.2-2-2-3.5-2
		c0,0,0,0,0,0c-0.1,0-0.3,0-0.4,0l0.9-1.1C4.9,3.9,5.7,3,6.6,3c0,0,0,0,0,0c0.8,0,1.5,0.6,1.5,1.5L7.5,7.3z"/>
</g>
</svg>
