<?xml version="1.0" encoding="utf-8"?>
<!-- Generator: Adobe Illustrator 27.4.1, SVG Export Plug-In . SVG Version: 6.00 Build 0)  -->
<svg version="1.1" id="Ebene_2_00000089567194562956399410000011900332553272652734_"
	 xmlns="http://www.w3.org/2000/svg" xmlns:xlink="http://www.w3.org/1999/xlink" x="0px" y="0px" viewBox="0 0 16.4 17.1"
	 style="enable-background:new 0 0 16.4 17.1;" xml:space="preserve">
<g>
	<path d="M16.3,11.5c-0.1-0.2-0.3-0.3-0.4-0.3c-1.8-0.1-3.2-1.6-3.2-3.4c0-0.6,0.2-1.3,0.5-1.8c0.1-0.2,0.1-0.4,0-0.6
		c-0.1-0.2-0.3-0.3-0.5-0.3c0,0-0.1,0-0.2,0c-1.9,0-3.4-1.5-3.4-3.4c0-0.3,0.1-0.7,0.2-1.1c0.1-0.2,0-0.3-0.1-0.5
		C9.1,0.1,8.9,0,8.7,0C8.7,0,8.6,0,8.5,0C3.8,0,0,3.8,0,8.6c0,4.7,3.8,8.5,8.5,8.5c3.4,0,6.4-2,7.8-5.1
		C16.4,11.8,16.4,11.7,16.3,11.5z M8.5,16c-0.9,0-1.7-0.2-2.5-0.4c0.3-0.3,0.5-0.7,0.5-1.1c0-0.8-0.7-1.5-1.5-1.5
		c-0.7,0-1.3,0.5-1.5,1.2c-1.5-1.4-2.5-3.4-2.5-5.6c0-3.9,3-7.1,7-7.4C8,1.4,8,1.6,8,1.8c0,2.3,1.7,4.1,3.9,4.5
		c-0.2,0.5-0.3,1.1-0.3,1.6c0,2.1,1.5,3.9,3.5,4.4C13.7,14.5,11.2,16,8.5,16z"/>
	<circle cx="7.8" cy="8.6" r="1.5"/>
	<circle cx="10.5" cy="13.2" r="0.8"/>
	<circle cx="3.3" cy="7.1" r="0.8"/>
</g>
</svg>
