<?xml version="1.0" encoding="utf-8"?>
<!-- Generator: Adobe Illustrator 27.4.1, SVG Export Plug-In . SVG Version: 6.00 Build 0)  -->
<svg version="1.1" id="icons" xmlns="http://www.w3.org/2000/svg" xmlns:xlink="http://www.w3.org/1999/xlink" x="0px" y="0px"
	 viewBox="0 0 20 20" style="enable-background:new 0 0 20 20;" xml:space="preserve">
<g>
	<path d="M14.1,13.7c0.9,0,1.6-0.7,1.6-1.6V6.4c0-0.9-0.7-1.6-1.6-1.6H5.9C5,4.8,4.2,5.5,4.2,6.4v5.7c0,0.9,0.7,1.6,1.6,1.6h3.6v1.9
		H8c-0.3,0-0.5,0.2-0.5,0.5s0.2,0.5,0.5,0.5H12c0.3,0,0.5-0.2,0.5-0.5s-0.2-0.5-0.5-0.5h-1.4v-1.9H14.1z M5.3,12.1V6.4
		c0-0.3,0.2-0.5,0.5-0.5h8.3c0.3,0,0.5,0.2,0.5,0.5v5.7c0,0.3-0.2,0.5-0.5,0.5H5.9C5.6,12.6,5.3,12.3,5.3,12.1z"/>
	<path d="M2,4.9c0.3,0,0.5-0.2,0.5-0.5V3c0-0.2,0.2-0.5,0.5-0.5h1.4c0.3,0,0.5-0.2,0.5-0.5S4.7,1.5,4.4,1.5H3C2.1,1.5,1.5,2.1,1.5,3
		v1.4C1.5,4.7,1.7,4.9,2,4.9z"/>
	<path d="M18,15c-0.3,0-0.5,0.2-0.5,0.5V17c0,0.2-0.2,0.5-0.5,0.5h-1.4c-0.3,0-0.5,0.2-0.5,0.5s0.2,0.5,0.5,0.5H17
		c0.9,0,1.5-0.7,1.5-1.5v-1.4C18.5,15.3,18.3,15,18,15z"/>
	<path d="M17,1.5h-1.4C15.3,1.5,15,1.7,15,2s0.2,0.5,0.5,0.5H17c0.2,0,0.5,0.2,0.5,0.5v1.4c0,0.3,0.2,0.5,0.5,0.5s0.5-0.2,0.5-0.5V3
		C18.5,2.1,17.9,1.5,17,1.5z"/>
	<path d="M4.4,17.5H3c-0.2,0-0.5-0.2-0.5-0.5v-1.4C2.5,15.3,2.3,15,2,15s-0.5,0.2-0.5,0.5V17c0,0.9,0.7,1.5,1.5,1.5h1.4
		c0.3,0,0.5-0.2,0.5-0.5S4.7,17.5,4.4,17.5z"/>
</g>
</svg>
