<?xml version="1.0" encoding="utf-8"?>
<!-- Generator: Adobe Illustrator 27.4.1, SVG Export Plug-In . SVG Version: 6.00 Build 0)  -->
<svg version="1.1" id="icons" xmlns="http://www.w3.org/2000/svg" xmlns:xlink="http://www.w3.org/1999/xlink" x="0px" y="0px"
	 viewBox="0 0 20 20" style="enable-background:new 0 0 20 20;" xml:space="preserve">
<g>
	<path d="M8.2,6.4C8,6.2,7.6,6.2,7.4,6.4c-0.2,0.2-0.2,0.6,0,0.8l2.3,2.3H2c-0.3,0-0.5,0.2-0.5,0.5s0.2,0.5,0.5,0.5h7.7l-2.3,2.3
		c-0.2,0.2-0.2,0.6,0,0.8c0.1,0.1,0.2,0.2,0.4,0.2c0.1,0,0.3-0.1,0.4-0.2l3.2-3.3c0.2-0.2,0.2-0.6,0-0.8L8.2,6.4z"/>
	<path d="M16.5,1.5H13c-0.3,0-0.5,0.2-0.5,0.5s0.2,0.5,0.5,0.5h3.5c0.5,0,1,0.4,1,1v13c0,0.5-0.4,1-1,1H13c-0.3,0-0.5,0.2-0.5,0.5
		s0.2,0.5,0.5,0.5h3.5c1.1,0,2-0.9,2-2v-13C18.5,2.4,17.6,1.5,16.5,1.5z"/>
</g>
</svg>
