<?xml version="1.0" encoding="utf-8"?>
<!-- Generator: Adobe Illustrator 27.4.1, SVG Export Plug-In . SVG Version: 6.00 Build 0)  -->
<svg version="1.1" id="icons" xmlns="http://www.w3.org/2000/svg" xmlns:xlink="http://www.w3.org/1999/xlink" x="0px" y="0px"
	 viewBox="0 0 20 20" style="enable-background:new 0 0 20 20;" xml:space="preserve">
<g>
	<path d="M18,16.5H2c-0.3,0-0.5,0.2-0.5,0.5s0.2,0.5,0.5,0.5h16c0.3,0,0.5-0.2,0.5-0.5S18.3,16.5,18,16.5z"/>
	<path d="M6,11.1l-1,2.1c-0.1,0.3,0,0.6,0.3,0.7C5.3,14,5.4,14,5.5,14c0.2,0,0.4-0.1,0.5-0.3l1-2.1c0.6-1.3,0.4-3-0.6-4
		C5.6,6.7,5.4,5.5,6.1,4.5l0.8-1.2C7,3,6.9,2.7,6.7,2.5C6.4,2.4,6.1,2.4,5.9,2.7L5.1,3.9C4.2,5.3,4.4,7.1,5.6,8.3
		C6.3,9.1,6.5,10.2,6,11.1z"/>
	<path d="M9.9,11.1l-1,2.1c-0.1,0.3,0,0.6,0.3,0.7C9.2,14,9.3,14,9.4,14c0.2,0,0.4-0.1,0.5-0.3l1-2.1c0.6-1.3,0.4-3-0.6-4
		C9.5,6.7,9.3,5.5,10,4.5l0.8-1.2c0.2-0.3,0.1-0.6-0.2-0.8C10.3,2.4,10,2.4,9.8,2.7L9,3.9C8.1,5.3,8.3,7.1,9.5,8.3
		C10.2,9.1,10.4,10.2,9.9,11.1z"/>
	<path d="M13.8,11.1l-1,2.1c-0.1,0.3,0,0.6,0.3,0.7c0.1,0,0.2,0.1,0.2,0.1c0.2,0,0.4-0.1,0.5-0.3l1-2.1c0.6-1.3,0.4-3-0.6-4
		c-0.8-0.8-0.9-2.1-0.3-3.1l0.8-1.2c0.2-0.3,0.1-0.6-0.2-0.8c-0.3-0.2-0.6-0.1-0.8,0.2l-0.8,1.2c-0.9,1.4-0.7,3.2,0.4,4.4
		C14.1,9.1,14.3,10.2,13.8,11.1z"/>
</g>
</svg>
