<?xml version="1.0" encoding="utf-8"?>
<!-- Generator: Adobe Illustrator 27.4.1, SVG Export Plug-In . SVG Version: 6.00 Build 0)  -->
<svg version="1.1" id="icons" xmlns="http://www.w3.org/2000/svg" xmlns:xlink="http://www.w3.org/1999/xlink" x="0px" y="0px"
	 viewBox="0 0 20 20" style="enable-background:new 0 0 20 20;" xml:space="preserve">
<path d="M16.8,11.1l-2.9,0.7L11,10l2.9-1.8l2.9,0.7c0,0,0.1,0,0.1,0c0.3,0,0.5-0.2,0.5-0.4c0.1-0.3-0.1-0.6-0.4-0.7l-1.9-0.4
	l1.9-1.2c0.3-0.2,0.3-0.5,0.2-0.8c-0.2-0.3-0.5-0.3-0.8-0.2l-1.9,1.2l0.4-1.9C15.1,4.3,15,4,14.7,3.9C14.4,3.9,14.1,4,14,4.3
	l-0.7,2.9L10.5,9l0-3.3l2.1-2.1c0.2-0.2,0.2-0.6,0-0.8c-0.2-0.2-0.6-0.2-0.8,0l-1.4,1.4l0-2.2c0-0.3-0.2-0.5-0.5-0.5S9.5,1.7,9.5,2
	l0,2.2L8.1,2.8c-0.2-0.2-0.6-0.2-0.8,0s-0.2,0.6,0,0.8l2.1,2.1l0,3.3L6.7,7.3L6,4.3C5.9,4,5.6,3.9,5.3,3.9C5,4,4.9,4.3,4.9,4.6
	l0.4,1.9L3.5,5.3L2.9,6.2l1.9,1.2L2.9,7.8C2.6,7.9,2.4,8.2,2.5,8.5C2.6,8.7,2.8,8.9,3,8.9c0,0,0.1,0,0.1,0l2.9-0.7L9,10l-2.9,1.8
	l-2.9-0.7c-0.3-0.1-0.6,0.1-0.7,0.4c-0.1,0.3,0.1,0.6,0.4,0.7l1.9,0.4l-1.9,1.2c-0.3,0.2-0.3,0.5-0.2,0.8c0.1,0.2,0.3,0.3,0.5,0.3
	c0.1,0,0.2,0,0.3-0.1l1.9-1.2l-0.4,1.9C4.9,15.7,5,16,5.3,16.1c0,0,0.1,0,0.1,0c0.3,0,0.5-0.2,0.5-0.4l0.7-2.9L9.5,11l0,3.3
	l-2.1,2.1c-0.2,0.2-0.2,0.6,0,0.8c0.2,0.2,0.6,0.2,0.8,0l1.4-1.4l0,2.2c0,0.3,0.2,0.5,0.5,0.5s0.5-0.2,0.5-0.5l0-2.2l1.4,1.4
	c0.1,0.1,0.2,0.2,0.4,0.2s0.3-0.1,0.4-0.2c0.2-0.2,0.2-0.6,0-0.8l-2.1-2.1l0-3.3l2.8,1.7l0.7,2.9c0.1,0.3,0.3,0.4,0.5,0.4
	c0,0,0.1,0,0.1,0c0.3-0.1,0.5-0.4,0.4-0.7l-0.4-1.9l1.9,1.2l0.6-0.9l-1.9-1.2l1.9-0.4c0.3-0.1,0.5-0.4,0.4-0.7
	C17.4,11.2,17.1,11,16.8,11.1z"/>
</svg>
