<?xml version="1.0" encoding="utf-8"?>
<!-- Generator: Adobe Illustrator 27.4.1, SVG Export Plug-In . SVG Version: 6.00 Build 0)  -->
<svg version="1.1" id="icons" xmlns="http://www.w3.org/2000/svg" xmlns:xlink="http://www.w3.org/1999/xlink" x="0px" y="0px"
	 viewBox="0 0 20 20" style="enable-background:new 0 0 20 20;" xml:space="preserve">
<path d="M15.7,8c-0.1-0.2-0.3-0.3-0.5-0.3l-4.5,0l2.7-5.4c0.1-0.2,0.1-0.4,0-0.5c-0.1-0.2-0.3-0.3-0.5-0.3l-4,0c0,0,0,0,0,0
	c-0.2,0-0.4,0.1-0.5,0.3l-4.1,8.6c-0.1,0.2-0.1,0.4,0,0.5c0.1,0.2,0.3,0.3,0.5,0.3h4l-2.2,6.6c-0.1,0.3,0,0.5,0.3,0.7
	c0.1,0,0.2,0.1,0.3,0.1c0.2,0,0.3-0.1,0.4-0.2l8.1-9.8C15.7,8.4,15.8,8.2,15.7,8z M8.6,15.4l1.5-4.6c0.1-0.2,0-0.4-0.1-0.5
	c-0.1-0.1-0.3-0.2-0.4-0.2H5.7l3.6-7.5l2.7,0L9.3,7.9c-0.1,0.2-0.1,0.4,0,0.5c0.1,0.2,0.3,0.3,0.5,0.3l4.3,0L8.6,15.4z"/>
</svg>
