<?xml version="1.0" encoding="utf-8"?>
<!-- Generator: Adobe Illustrator 27.4.1, SVG Export Plug-In . SVG Version: 6.00 Build 0)  -->
<svg version="1.1" id="icons" xmlns="http://www.w3.org/2000/svg" xmlns:xlink="http://www.w3.org/1999/xlink" x="0px" y="0px"
	 viewBox="0 0 20 20" style="enable-background:new 0 0 20 20;" xml:space="preserve">
<g>
	<path d="M14,8.6c-2.6,0-4.5,1-4.5,2.4v5.5c0,0.1,0,0.2,0.1,0.2c0.6,1.2,2.7,1.8,4.5,1.8c2.1,0,3.9-0.7,4.4-1.8
		c0-0.1,0.1-0.2,0.1-0.2V11C18.5,9.6,16.6,8.6,14,8.6z M17.5,13.8c-0.3,0.5-1.7,1.1-3.4,1.1c-1.7,0-3.1-0.5-3.4-1.1v-1.2
		c0.8,0.5,2,0.8,3.4,0.8c1.4,0,2.6-0.3,3.4-0.8V13.8z M14,9.7c2.1,0,3.4,0.8,3.4,1.3c0,0.5-1.3,1.3-3.4,1.3s-3.4-0.8-3.4-1.3
		C10.6,10.5,12,9.7,14,9.7z M14.1,17.5c-1.7,0-3.1-0.5-3.5-1.1v-1.2c0.8,0.5,2.1,0.8,3.4,0.8c1.3,0,2.6-0.3,3.4-0.8v1.2
		C17.1,16.9,15.8,17.5,14.1,17.5z"/>
	<path d="M9.6,7.9l1.7-1.7c0.2-0.2,0.2-0.6,0-0.8c-0.2-0.2-0.6-0.2-0.8,0L8.8,7.1c0,0,0,0.1-0.1,0.1C8.6,7.1,8.5,7.1,8.3,7.1
		c-0.7,0-1.2,0.5-1.2,1.2c0,0.7,0.5,1.2,1.2,1.2C9,9.5,9.5,9,9.5,8.3c0-0.1,0-0.2-0.1-0.3C9.5,7.9,9.5,7.9,9.6,7.9z"/>
	<path d="M7.3,14c-0.9-0.2-1.8-0.6-2.5-1.1l1.1-1.1c0.2-0.2,0.2-0.6,0-0.8c-0.2-0.2-0.6-0.2-0.8,0L4,12.1C3.2,11.2,2.7,10.1,2.6,9H4
		c0.3,0,0.5-0.2,0.5-0.5S4.3,7.9,4,7.9H2.6c0.1-1.2,0.6-2.3,1.3-3.2l1.2,1.2C5.2,5.9,5.3,6,5.5,6s0.3-0.1,0.4-0.2
		c0.2-0.2,0.2-0.6,0-0.8L4.7,3.9c0.9-0.7,1.9-1.2,3.1-1.3V4c0,0.3,0.2,0.5,0.5,0.5S8.9,4.3,8.9,4V2.6c2.3,0.2,4.4,1.9,5,4.2
		c0.1,0.3,0.4,0.5,0.7,0.4c0.3-0.1,0.5-0.4,0.4-0.7c-0.8-3-3.5-5-6.6-5c-3.8,0-6.9,3.1-6.9,6.9c0,0,0,0,0,0.1c0,0,0,0,0,0
		c0,0,0,0.1,0,0.1c0.1,3.2,2.4,6,5.6,6.6c0,0,0.1,0,0.1,0c0.3,0,0.5-0.2,0.5-0.5C7.8,14.3,7.6,14,7.3,14z"/>
</g>
</svg>
