<?xml version="1.0" encoding="utf-8"?>
<!-- Generator: Adobe Illustrator 27.4.1, SVG Export Plug-In . SVG Version: 6.00 Build 0)  -->
<svg version="1.1" id="icons" xmlns="http://www.w3.org/2000/svg" xmlns:xlink="http://www.w3.org/1999/xlink" x="0px" y="0px"
	 viewBox="0 0 20 20" style="enable-background:new 0 0 20 20;" xml:space="preserve">
<g>
	<path d="M10,14.6c0.2,0,0.3-0.1,0.4-0.2c0.2-0.2,4.2-4.9,4.2-8.3c0-2.6-2.1-4.6-4.6-4.6c-2.6,0-4.6,2.1-4.6,4.6
		c0,3.4,4.1,8.1,4.2,8.3C9.7,14.5,9.8,14.6,10,14.6z M10,2.6c2,0,3.5,1.6,3.5,3.5c0,2.4-2.5,5.8-3.5,7c-1-1.3-3.5-4.6-3.5-7
		C6.5,4.2,8,2.6,10,2.6z"/>
	<path d="M12,6.1c0-1.1-0.9-2-2-2C8.9,4,8,5,8,6.1s0.9,2,2,2C11.1,8.1,12,7.2,12,6.1z M9,6.1c0-0.5,0.4-1,1-1s1,0.4,1,1s-0.4,1-1,1
		S9,6.6,9,6.1z"/>
	<path d="M15.3,12c-0.3-0.1-0.6,0.1-0.7,0.4c-0.1,0.3,0.1,0.6,0.4,0.7c1.5,0.5,2.5,1.2,2.5,1.8c0,1.2-3.2,2.5-7.5,2.5
		c-4.3,0-7.5-1.3-7.5-2.5c0-0.6,0.9-1.3,2.4-1.8c0.3-0.1,0.4-0.4,0.3-0.7c-0.1-0.3-0.4-0.4-0.7-0.3c-2,0.7-3.2,1.7-3.2,2.9
		c0,2.4,4.4,3.6,8.5,3.6c4.1,0,8.5-1.3,8.5-3.6C18.5,13.7,17.4,12.7,15.3,12z"/>
</g>
</svg>
