<?xml version="1.0" encoding="utf-8"?>
<!-- Generator: Adobe Illustrator 27.4.1, SVG Export Plug-In . SVG Version: 6.00 Build 0)  -->
<svg version="1.1" id="icons" xmlns="http://www.w3.org/2000/svg" xmlns:xlink="http://www.w3.org/1999/xlink" x="0px" y="0px"
	 viewBox="0 0 20 20" style="enable-background:new 0 0 20 20;" xml:space="preserve">
<g>
	<path d="M17.7,6.1c0-0.2,0-0.4,0-0.6l0.5-0.4c0.3-0.3,0.4-0.8,0.2-1.1l-0.5-0.8c-0.2-0.3-0.6-0.5-1-0.4L16.2,3l-0.5-0.3l-0.1-0.6
		c-0.1-0.4-0.4-0.7-0.8-0.7h-1c-0.4,0-0.8,0.3-0.8,0.7l-0.1,0.6c-0.2,0.1-0.4,0.2-0.6,0.3l-0.6-0.2c-0.4-0.1-0.8,0-1,0.4L10,4
		c-0.2,0.4-0.2,0.8,0.2,1.1l0.5,0.4c0,0.2,0,0.4,0,0.6l-0.5,0.4C9.9,6.8,9.8,7.2,10,7.6l0.5,0.8c0.1,0.1,0.2,0.2,0.3,0.3
		c0.2,0.1,0.5,0.2,0.7,0.1l0.7-0.2c0.2,0.1,0.4,0.2,0.6,0.3l0.1,0.6c0.1,0.4,0.4,0.7,0.8,0.7h1c0.4,0,0.8-0.3,0.8-0.7l0.1-0.6
		c0.2-0.1,0.4-0.2,0.6-0.3l0.6,0.2c0.4,0.1,0.8,0,1-0.4l0.5-0.8c0.3-0.4,0.2-0.8-0.1-1.1L17.7,6.1z M17,6.9l0.4,0.4l-0.3,0.4
		l-0.6-0.2c-0.3-0.1-0.5,0-0.8,0.1c-0.2,0.1-0.3,0.2-0.5,0.3C15,8,14.8,8.3,14.7,8.5l-0.1,0.6h-0.8l-0.1-0.5
		c-0.1-0.3-0.3-0.5-0.5-0.6s-0.3-0.2-0.5-0.3c-0.2-0.2-0.5-0.2-0.8-0.1l-0.6,0.2l-0.4-0.6l0.4-0.4c0.2-0.2,0.3-0.5,0.3-0.8
		c0-0.2,0-0.3,0-0.5c0-0.3-0.1-0.6-0.3-0.8l-0.4-0.4l0.4-0.6l0.6,0.2c0.3,0.1,0.5,0,0.8-0.1c0.2-0.1,0.3-0.2,0.5-0.3
		c0.3-0.1,0.5-0.3,0.5-0.6l0.1-0.6h0.8l0.1,0.6c0.1,0.2,0.2,0.5,0.4,0.6L15.8,4c0.2,0.1,0.4,0.1,0.7,0.1l0.6-0.2l0.4,0.6L17,4.8
		c-0.2,0.2-0.3,0.5-0.3,0.8c0,0.2,0,0.3,0,0.5C16.7,6.4,16.8,6.7,17,6.9z"/>
	<path d="M14.2,4.3c-0.9,0-1.6,0.7-1.6,1.5s0.7,1.5,1.6,1.5c0.9,0,1.6-0.7,1.6-1.5S15.1,4.3,14.2,4.3z M14.2,6.3
		c-0.3,0-0.6-0.2-0.6-0.5s0.3-0.5,0.6-0.5s0.6,0.2,0.6,0.5S14.5,6.3,14.2,6.3z"/>
	<path d="M11.9,12.3c0.4-0.3,0.5-0.9,0.2-1.3l-0.6-1c-0.2-0.4-0.7-0.6-1.2-0.4l-1,0.3L8.6,9.5L8.4,8.6c-0.1-0.5-0.5-0.8-1-0.8H6.2
		c-0.5,0-0.9,0.3-1,0.8L5,9.4C4.8,9.5,4.5,9.7,4.3,9.9L3.4,9.6C3,9.5,2.5,9.6,2.2,10l-0.6,1c-0.3,0.4-0.2,1,0.2,1.3l0.6,0.5
		c0,0.3,0,0.6,0,0.8l-0.7,0.6c-0.4,0.3-0.5,0.9-0.2,1.3l0.6,1c0.1,0.1,0.2,0.2,0.3,0.3C2.6,17,2.9,17,3.2,16.9L4,16.6
		c0.3,0.2,0.5,0.3,0.8,0.4L5,17.8c0.1,0.5,0.5,0.8,1,0.8h1.3c0.5,0,0.9-0.3,1-0.8L8.6,17c0.3-0.1,0.6-0.3,0.8-0.5l0.9,0.3
		c0.4,0.1,0.9,0,1.2-0.4l0.6-1c0.3-0.4,0.2-1-0.2-1.3l-0.7-0.5c0-0.3,0-0.6,0-0.8L11.9,12.3z M10.3,14.4l0.6,0.5l-0.4,0.8l-0.8-0.3
		c-0.3-0.1-0.6,0-0.9,0.1c-0.2,0.1-0.4,0.2-0.6,0.3c-0.3,0.1-0.5,0.4-0.6,0.7l-0.2,0.8H6.2L6,16.5c0-0.1-0.2-0.4-0.5-0.5
		c-0.2-0.1-0.4-0.2-0.6-0.3c-0.3-0.2-0.6-0.2-0.9-0.1l-0.8,0.3l-0.5-0.8l0.6-0.5c0.3-0.2,0.4-0.5,0.4-0.9c0-0.2,0-0.4,0-0.6
		c0-0.3-0.1-0.7-0.3-0.9l-0.6-0.5l0.5-0.8l0.8,0.3c0.3,0.1,0.6,0,0.9-0.1c0.2-0.1,0.4-0.3,0.6-0.3C5.8,10.3,6,10,6.1,9.7l0.2-0.8
		h1.1l0.2,0.8c0,0.3,0.2,0.6,0.4,0.7l0.8,0.4C9.1,11,9.4,11,9.6,10.9l0.9-0.3l0.5,0.8L10.4,12c-0.3,0.2-0.4,0.5-0.4,0.9
		c0,0.2,0,0.4,0,0.6C10,13.8,10.1,14.2,10.3,14.4z"/>
	<path d="M6.8,11c-1.2,0-2.2,1-2.2,2.2s1,2.2,2.2,2.2s2.2-1,2.2-2.2S8,11,6.8,11z M6.8,14.3c-0.6,0-1.1-0.5-1.1-1.1
		c0-0.6,0.5-1.1,1.1-1.1c0.6,0,1.1,0.5,1.1,1.1C7.9,13.8,7.4,14.3,6.8,14.3z"/>
</g>
</svg>
