<?xml version="1.0" encoding="utf-8"?>
<!-- Generator: Adobe Illustrator 27.4.1, SVG Export Plug-In . SVG Version: 6.00 Build 0)  -->
<svg version="1.1" id="Ebene_2_00000003078223306434754260000001157856840113114525_"
	 xmlns="http://www.w3.org/2000/svg" xmlns:xlink="http://www.w3.org/1999/xlink" x="0px" y="0px" viewBox="0 0 15.3 19.1"
	 style="enable-background:new 0 0 15.3 19.1;" xml:space="preserve">
<g>
	<path d="M11.2,12.5c-0.3,0-0.5,0.2-0.5,0.5v3.3C10.2,17.2,8.3,18,5.9,18c-2.4,0-4.4-0.8-4.8-1.6v-2c1.1,0.7,2.8,1.2,4.8,1.2
		c0.3,0,0.7,0,1,0c0.3,0,0.5-0.3,0.5-0.6c0-0.3-0.3-0.5-0.6-0.5s-0.6,0-0.9,0c-2.5,0-4.3-0.8-4.8-1.6v-2c1,0.8,2.8,1.2,4.8,1.2
		c0.3,0,0.5-0.2,0.5-0.5s-0.2-0.5-0.5-0.5c-2.7,0-4.8-1-4.8-2c0-0.6,1-1.4,2.9-1.8c0.3,0,0.5-0.3,0.5-0.6c0-0.3-0.4-0.5-0.7-0.4
		C1.5,6.7,0,7.8,0,9.2v4v3.5c0,0.1,0,0.2,0.1,0.2c0.6,1.3,3,2.3,5.9,2.3c2.8,0,5.1-0.9,5.8-2.3c0-0.1,0.1-0.2,0.1-0.2v-3.5
		C11.8,12.8,11.5,12.5,11.2,12.5z"/>
	<path d="M14.4,5.5c0-0.2,0-0.5,0-0.7L15,4.2c0.4-0.3,0.4-0.8,0.2-1.2l-0.5-0.9c-0.2-0.4-0.7-0.6-1.1-0.4l-0.8,0.2l-0.6-0.4L12,0.7
		C11.8,0.3,11.4,0,11,0H9.9C9.4,0,9,0.3,8.9,0.8L8.8,1.5C8.5,1.6,8.3,1.7,8.1,1.9L7.4,1.6C7,1.5,6.5,1.6,6.3,2L5.7,3
		C5.4,3.4,5.5,3.9,5.9,4.2l0.6,0.5c0,0.2,0,0.5,0,0.7L5.9,6C5.5,6.3,5.4,6.8,5.7,7.2l0.6,0.9c0.1,0.1,0.2,0.2,0.3,0.3
		c0.2,0.2,0.5,0.2,0.8,0.1l0.7-0.2c0.2,0.1,0.4,0.3,0.7,0.4l0.1,0.7c0.1,0.5,0.5,0.8,0.9,0.8H11c0.5,0,0.9-0.3,0.9-0.8L12,8.7
		c0.2-0.1,0.5-0.2,0.7-0.4l0.7,0.2c0.4,0.1,0.9,0,1.1-0.4l0.6-0.9C15.4,6.8,15.3,6.3,15,6L14.4,5.5z M13.3,4.9c0,0.2,0,0.4,0,0.6
		c0,0.3,0.1,0.6,0.3,0.8l0.5,0.5l-0.4,0.7L13,7.2c-0.3-0.1-0.6,0-0.9,0.1c-0.2,0.1-0.4,0.2-0.6,0.3C11.2,7.7,11,8,10.9,8.3L10.8,9
		H10L9.8,8.4c0-0.3-0.2-0.6-0.5-0.7C9.1,7.6,8.9,7.5,8.7,7.4C8.4,7.2,8.1,7.1,7.8,7.2L7.1,7.5L6.7,6.7l0.5-0.5
		C7.4,6,7.6,5.7,7.5,5.3c0-0.2,0-0.4,0-0.6c0-0.3-0.1-0.6-0.3-0.9L6.7,3.5l0.4-0.7L7.8,3c0.3,0.1,0.6,0,0.9-0.1
		c0.2-0.1,0.4-0.2,0.6-0.3c0.3-0.1,0.5-0.4,0.6-0.7L10,1.1h0.9L11,1.8c0.1,0.3,0.2,0.5,0.5,0.7l0.7,0.4C12.4,3,12.7,3,13,3l0.7-0.2
		l0.4,0.7L13.6,4C13.4,4.2,13.2,4.5,13.3,4.9z"/>
	<path d="M10.4,3.3c-1,0-1.8,0.8-1.8,1.8s0.8,1.8,1.8,1.8s1.8-0.8,1.8-1.8S11.4,3.3,10.4,3.3z M10.4,5.8c-0.4,0-0.7-0.3-0.7-0.7
		s0.3-0.7,0.7-0.7c0.4,0,0.7,0.3,0.7,0.7S10.8,5.8,10.4,5.8z"/>
</g>
</svg>
