<?xml version="1.0" encoding="utf-8"?>
<!-- Generator: Adobe Illustrator 27.4.1, SVG Export Plug-In . SVG Version: 6.00 Build 0)  -->
<svg version="1.1" id="icons" xmlns="http://www.w3.org/2000/svg" xmlns:xlink="http://www.w3.org/1999/xlink" x="0px" y="0px"
	 viewBox="0 0 20 20" style="enable-background:new 0 0 20 20;" xml:space="preserve">
<g>
	<path d="M9.6,6.4c0,0,0.1,0.1,0.2,0.1c0.1,0,0.1,0,0.2,0s0.1,0,0.2,0c0.1,0,0.1-0.1,0.2-0.1l2-2c0.2-0.2,0.2-0.6,0-0.8
		c-0.2-0.2-0.6-0.2-0.8,0l-1.1,1.1V2c0-0.3-0.2-0.5-0.5-0.5S9.4,1.7,9.4,2v2.7l-1.1-1c-0.2-0.2-0.6-0.2-0.8,0s-0.2,0.6,0,0.8
		L9.6,6.4z"/>
	<path d="M18,6.6h-1.5l1.9-1.9c0.2-0.2,0.2-0.6,0-0.8c-0.2-0.2-0.6-0.2-0.8,0l-1.9,1.9V4.3c0-0.3-0.2-0.5-0.5-0.5S14.7,4,14.7,4.4
		v2.8c0,0.1,0,0.1,0,0.2c0,0.1,0.1,0.1,0.1,0.2l0.1,0.1c0.1,0,0.1,0,0.2,0h2.8c0.3,0,0.5-0.2,0.5-0.5C18.5,6.8,18.3,6.6,18,6.6z"/>
	<path d="M5.2,7.1V4.3C5.2,4,5,3.7,4.7,3.7C4.5,3.7,4.3,4,4.3,4.3v1.5L2.4,3.9c-0.2-0.2-0.6-0.2-0.8,0c-0.2,0.2-0.2,0.6,0,0.8
		l1.9,1.9H2c-0.3,0-0.5,0.3-0.5,0.6S1.7,7.7,2,7.7h2.8C4.9,7.6,5,7.6,5,7.6l0.1-0.1c0.1-0.1,0.1-0.1,0.1-0.2
		C5.2,7.2,5.2,7.2,5.2,7.1z"/>
	<path d="M10,7.9c-2.8,0-4.8,1.1-4.8,2.6l0.2,6c0,0.1,0,0.2,0.1,0.2c0.5,1.1,2.4,1.9,4.7,1.9s4.1-0.8,4.7-1.9c0-0.1,0.1-0.2,0.1-0.2
		l0.1-6C14.8,9,12.8,7.9,10,7.9z M13.7,16.2c-0.4,0.7-1.8,1.3-3.7,1.3s-3.3-0.6-3.6-1.2v-1.4c0.9,0.5,2.2,0.8,3.6,0.8
		c1.5,0,2.8-0.3,3.7-0.9V16.2z M13.7,13.3c-0.3,0.7-1.8,1.3-3.7,1.3S6.7,14,6.3,13.4v-1.3C7.2,12.6,8.5,13,10,13s2.9-0.4,3.7-0.9
		V13.3z M10,11.9c-2.3,0-3.7-0.9-3.7-1.5c0-0.6,1.4-1.5,3.7-1.5s3.7,0.9,3.7,1.5C13.7,11,12.2,11.9,10,11.9z"/>
</g>
</svg>
