<?xml version="1.0" encoding="utf-8"?>
<!-- Generator: Adobe Illustrator 27.4.1, SVG Export Plug-In . SVG Version: 6.00 Build 0)  -->
<svg version="1.1" id="icons" xmlns="http://www.w3.org/2000/svg" xmlns:xlink="http://www.w3.org/1999/xlink" x="0px" y="0px"
	 viewBox="0 0 20 20" style="enable-background:new 0 0 20 20;" xml:space="preserve">
<g>
	<path d="M12,12.3c-0.3,0-0.5,0.2-0.5,0.5V16c-0.5,0.7-2.2,1.4-4.4,1.4c-2.3,0-4.1-0.7-4.5-1.4v-1.8c1,0.7,2.6,1.1,4.5,1.1
		c0.3,0,0.7,0,1,0c0.3,0,0.5-0.3,0.5-0.6S8.3,14.2,8,14.2s-0.6,0-0.9,0c-2.3,0-4-0.7-4.5-1.5v-1.8c1,0.7,2.6,1.1,4.5,1.1
		c0.3,0,0.5-0.2,0.5-0.5S7.3,11,7,11c-2.5,0-4.5-1-4.5-1.8c0-0.9,1.9-1.8,4.5-1.8c0.3,0,0.5-0.2,0.5-0.5c0-0.3-0.2-0.6-0.5-0.6
		c-3.2,0-5.5,1.2-5.5,2.9v3.7v3.3c0,0.1,0,0.2,0.1,0.2c0.6,1.3,2.9,2.2,5.6,2.2c2.6,0,4.8-0.9,5.4-2.2c0-0.1,0.1-0.2,0.1-0.2v-3.3
		C12.5,12.6,12.3,12.3,12,12.3z"/>
	<path d="M18,2.6h-4.6c0-0.6-0.5-1.1-1.1-1.1h-2C9.7,1.5,9.2,2,9.2,2.6v6.7c0,0.1,0,0.1,0,0.2c0,0,0,0,0,0.1c0,0,0,0.1,0.1,0.1
		c0,0,0,0,0.1,0l0.1,0.1c0,0,0,0,0.1,0c0,0,0,0,0.1,0h0.1H18c0.3,0,0.5-0.2,0.5-0.5V5.6V5.2V3.1C18.5,2.8,18.3,2.6,18,2.6z
		 M10.3,2.4l2,0.1v0.6c0,0.3,0.2,0.5,0.5,0.5h4.6V5h-6c-0.2,0-0.4,0.1-0.5,0.3l-0.6,1.3V2.4z M17.5,8.6h-6.8l1.2-2.5h5.6V8.6z"/>
</g>
</svg>
