<?xml version="1.0" encoding="utf-8"?>
<!-- Generator: Adobe Illustrator 27.4.1, SVG Export Plug-In . SVG Version: 6.00 Build 0)  -->
<svg version="1.1" id="icons" xmlns="http://www.w3.org/2000/svg" xmlns:xlink="http://www.w3.org/1999/xlink" x="0px" y="0px"
	 viewBox="0 0 20 20" style="enable-background:new 0 0 20 20;" xml:space="preserve">
<g>
	<path d="M12.1,14.8c-0.3,0-0.5,0.2-0.5,0.5v1.1c-0.5,0.7-2.2,1.4-4.4,1.4c-2.3,0-4.1-0.7-4.5-1.4v-1.8c1,0.7,2.6,1.1,4.5,1.1
		c0.6,0,1.1,0,1.6-0.1c0.3,0,0.5-0.3,0.5-0.6S9,14.5,8.7,14.5c-0.5,0.1-1,0.1-1.5,0.1c-2.3,0-4-0.7-4.5-1.5v-1.8
		c1,0.7,2.6,1.1,4.5,1.1c0.3,0,0.5-0.2,0.5-0.5c0-0.3-0.2-0.5-0.5-0.5c-2.5,0-4.5-1-4.5-1.8c0-0.9,1.9-1.8,4.5-1.8
		c0.5,0,1,0,1.5,0.1c0.3,0,0.6-0.2,0.6-0.5c0-0.3-0.2-0.6-0.5-0.6C8.2,6.7,7.7,6.7,7.1,6.7c-3.2,0-5.5,1.2-5.5,2.9v3.7v3.3
		c0,0.1,0,0.2,0.1,0.2C2.2,18.1,4.5,19,7.2,19c2.6,0,4.8-0.9,5.4-2.2c0-0.1,0.1-0.2,0.1-0.2v-1.2C12.7,15,12.4,14.8,12.1,14.8z"/>
	<path d="M18.4,3.7l-2.6-2.6c-0.2-0.2-0.6-0.2-0.8,0c-0.2,0.2-0.2,0.6,0,0.8l1.7,1.7h-5.9c-0.3,0-0.5,0.2-0.5,0.5
		c0,0.3,0.1,0.6,0.4,0.6h5.9L15,6.3c-0.2,0.2-0.2,0.6,0,0.8c0.1,0.1,0.2,0.2,0.4,0.2c0.1,0,0.3-0.1,0.4-0.2l2.6-2.6
		C18.6,4.3,18.6,3.9,18.4,3.7z"/>
	<path d="M17.9,9.7H12L13.7,8c0.2-0.2,0.2-0.6,0-0.8s-0.6-0.2-0.8,0l-2.6,2.6c-0.2,0.2-0.2,0.6,0,0.8l2.6,2.6
		c0.1,0.1,0.2,0.2,0.4,0.2c0.1,0,0.3-0.1,0.4-0.2c0.2-0.2,0.2-0.6,0-0.8L12,10.8h5.9c0.3,0,0.5-0.2,0.5-0.5S18.2,9.7,17.9,9.7z"/>
</g>
</svg>
