<?xml version="1.0" encoding="utf-8"?>
<!-- Generator: Adobe Illustrator 27.4.1, SVG Export Plug-In . SVG Version: 6.00 Build 0)  -->
<svg version="1.1" id="icons" xmlns="http://www.w3.org/2000/svg" xmlns:xlink="http://www.w3.org/1999/xlink" x="0px" y="0px"
	 viewBox="0 0 20 20" style="enable-background:new 0 0 20 20;" xml:space="preserve">
<g>
	<path d="M18.5,5.3c-1.1-2.3-3.3-3.8-5.6-3.8c-2.3,0-4.5,1.5-5.6,3.8c-0.1,0.2-0.1,0.3,0,0.5c1.1,2.3,3.3,3.8,5.6,3.8
		c2.3,0,4.5-1.5,5.6-3.8C18.6,5.6,18.6,5.4,18.5,5.3z M12.9,8.5c-1.8,0-3.5-1.1-4.5-3c1-1.8,2.7-3,4.5-3c1.8,0,3.5,1.1,4.5,3
		C16.4,7.3,14.7,8.5,12.9,8.5z"/>
	<path d="M12.9,3.5c-1.1,0-2.1,0.9-2.1,2s0.9,2,2.1,2c1.2,0,2-0.9,2-2S14,3.5,12.9,3.5z M12.9,6.5c-0.6,0-1.1-0.5-1.1-1s0.5-1,1.1-1
		c0.6,0,1,0.5,1,1S13.4,6.5,12.9,6.5z"/>
	<path d="M12,12.3c-0.3,0-0.5,0.2-0.5,0.5V16c-0.5,0.7-2.2,1.4-4.4,1.4c-2.3,0-4.1-0.7-4.5-1.4v-1.8c1,0.7,2.6,1.1,4.5,1.1
		c0.3,0,0.7,0,1,0c0.3,0,0.5-0.3,0.5-0.6S8.3,14.2,8,14.2s-0.6,0-0.9,0c-2.3,0-4-0.7-4.5-1.5v-1.8c1,0.7,2.6,1.1,4.5,1.1
		c0.3,0,0.5-0.2,0.5-0.5S7.3,11,7,11c-2.5,0-4.5-1-4.5-1.8c0-0.6,0.9-1.3,2.7-1.7c0.3-0.1,0.5-0.3,0.4-0.6c0.1-0.3-0.2-0.5-0.5-0.5
		C2.8,6.9,1.5,7.9,1.5,9.2v3.7v3.3c0,0.1,0,0.2,0.1,0.2c0.6,1.3,2.9,2.2,5.6,2.2c2.6,0,4.8-0.9,5.4-2.2c0-0.1,0.1-0.2,0.1-0.2v-3.3
		C12.5,12.6,12.3,12.3,12,12.3z"/>
</g>
</svg>
