<?xml version="1.0" encoding="utf-8"?>
<!-- Generator: Adobe Illustrator 27.4.1, SVG Export Plug-In . SVG Version: 6.00 Build 0)  -->
<svg version="1.1" id="icons" xmlns="http://www.w3.org/2000/svg" xmlns:xlink="http://www.w3.org/1999/xlink" x="0px" y="0px"
	 viewBox="0 0 20 20" style="enable-background:new 0 0 20 20;" xml:space="preserve">
<g>
	<path d="M18.3,13.5l-1.1-2.4c-0.9-2.1-4.7-1.1-6.1-0.6L9.6,7.1C9.2,6.3,8.3,5.9,7.5,6.3C6.6,6.7,6.3,7.6,6.6,8.5L9,13.7l-1-0.4
		c-0.4-0.2-0.9-0.1-1.2,0c-0.4,0.2-0.7,0.5-0.9,0.9C5.6,15,6,16,6.8,16.3c0.2,0.1,4.1,1.5,4.6,1.7l0.3,0.1c0.5,0.2,1,0.4,1.7,0.4
		c0.7,0,1.6-0.2,2.9-0.8c0.9-0.4,1.6-1.1,2-1.9C18.6,15.1,18.6,14.3,18.3,13.5z M17.3,15.5c-0.2,0.5-0.7,1-1.4,1.3
		c-2.2,1-3,0.7-3.8,0.4l-0.3-0.1c-0.4-0.1-3.1-1.2-4.5-1.7C7,15.3,6.9,15,7,14.7c0-0.1,0.1-0.2,0.3-0.3c0.1,0,0.1,0,0.2,0
		s0.1,0,0.2,0l2.2,0.9c0.2,0.1,0.4,0,0.6-0.1c0.2-0.2,0.2-0.4,0.1-0.6L7.6,8c-0.1-0.3,0-0.6,0.3-0.7c0.3-0.1,0.6,0,0.7,0.3l1.7,3.8
		c0.1,0.3,0.4,0.4,0.7,0.3c1.5-0.5,4.7-1.3,5.2-0.2l1.1,2.4C17.5,14.5,17.5,15,17.3,15.5z"/>
	<path d="M5.8,4.6L4.3,3.1c-0.2-0.2-0.5-0.2-0.7,0c-0.2,0.2-0.2,0.5,0,0.7l1.5,1.5c0.1,0.1,0.2,0.1,0.4,0.1s0.3,0,0.4-0.1
		C6,5.1,6,4.8,5.8,4.6z"/>
	<path d="M11.3,5.5c0.1,0,0.3,0,0.4-0.1l1.5-1.5c0.2-0.2,0.2-0.5,0-0.7s-0.5-0.2-0.7,0L11,4.6c-0.2,0.2-0.2,0.5,0,0.7
		C11.1,5.4,11.2,5.5,11.3,5.5z"/>
	<path d="M8.4,4.5c0.3,0,0.5-0.2,0.5-0.5V2c0-0.3-0.2-0.5-0.5-0.5C8.1,1.5,7.9,1.7,7.9,2v2C7.9,4.3,8.1,4.5,8.4,4.5z"/>
	<path d="M4,7H2C1.7,7,1.5,7.2,1.5,7.5S1.7,8,2,8h2c0.3,0,0.5-0.2,0.5-0.5S4.3,7,4,7z"/>
</g>
</svg>
