<?xml version="1.0" encoding="utf-8"?>
<!-- Generator: Adobe Illustrator 27.4.1, SVG Export Plug-In . SVG Version: 6.00 Build 0)  -->
<svg version="1.1" id="icons" xmlns="http://www.w3.org/2000/svg" xmlns:xlink="http://www.w3.org/1999/xlink" x="0px" y="0px"
	 viewBox="0 0 20 20" style="enable-background:new 0 0 20 20;" xml:space="preserve">
<path d="M15.5,12.5c-1,0-1.9,0.5-2.4,1.2l-5.7-2.8c0.1-0.3,0.1-0.6,0.1-0.9S7.4,9.4,7.4,9.2l5.7-2.8c0.6,0.7,1.4,1.2,2.4,1.2
	c1.7,0,3-1.4,3-3c0-1.6-1.4-3-3-3s-3,1.4-3,3c0,0.3,0.1,0.6,0.1,0.8L6.9,8.2C6.4,7.4,5.5,7,4.5,7c-1.7,0-3,1.4-3,3s1.4,3,3,3
	c1,0,1.9-0.5,2.4-1.2l5.7,2.8c-0.1,0.3-0.1,0.5-0.1,0.8c0,1.7,1.4,3,3,3s3-1.4,3-3C18.5,13.8,17.2,12.5,15.5,12.5z M15.5,2.5
	c1.1,0,2,0.9,2,2s-0.9,2-2,2s-2-0.9-2-2S14.4,2.5,15.5,2.5z M4.5,12c-1.1,0-2-0.9-2-2s0.9-2,2-2s2,0.9,2,2S5.6,12,4.5,12z
	 M15.5,17.5c-1.1,0-2-0.9-2-2s0.9-2,2-2s2,0.9,2,2S16.6,17.5,15.5,17.5z"/>
</svg>
