<?xml version="1.0" encoding="utf-8"?>
<!-- Generator: Adobe Illustrator 27.4.1, SVG Export Plug-In . SVG Version: 6.00 Build 0)  -->
<svg version="1.1" id="icons" xmlns="http://www.w3.org/2000/svg" xmlns:xlink="http://www.w3.org/1999/xlink" x="0px" y="0px"
	 viewBox="0 0 20 20" style="enable-background:new 0 0 20 20;" xml:space="preserve">
<g>
	<path d="M18.5,6.8c-0.5-2.1-2.6-3.5-4.7-3h-0.1c-0.8-1.3-2.2-2.2-3.8-2.2C7.8,1.6,6,3.1,5.6,5.1C5.3,5,5,5,4.7,5
		C2.9,5,1.5,6.5,1.5,8.3c0,1.5,1,2.8,2.4,3.2H4c0.2,0,0.5-0.2,0.5-0.4c0.1-0.3-0.1-0.6-0.4-0.7c-0.9-0.3-1.6-1.1-1.6-2.1
		c0-1.2,1-2.2,2.2-2.2c0.3,0,0.7,0.1,1,0.2c0.2,0.1,0.4,0.1,0.5,0C6.4,6.2,6.5,6,6.5,5.8C6.6,4.1,8,2.7,9.8,2.7c1.3,0,2.5,0.8,3,2
		C13,4.9,13.3,5,13.6,4.9c0.1,0,0.2-0.1,0.3-0.1C15.5,4.5,17,5.4,17.3,7c0.3,1.2-0.5,2.7-1.8,3.3c-0.3,0.1-0.4,0.5-0.3,0.7
		c0.1,0.3,0.5,0.4,0.7,0.3C17.8,10.4,18.9,8.5,18.5,6.8z"/>
	<path d="M10.4,9.5c-0.2-0.2-0.6-0.2-0.8,0l-2.9,2.8c-0.2,0.2-0.2,0.6,0,0.8c0.2,0.2,0.6,0.2,0.8,0l2-1.9v6.7c0,0.3,0.2,0.5,0.5,0.5
		s0.5-0.2,0.5-0.5v-6.7l1.9,1.9c0.1,0.1,0.2,0.2,0.4,0.2c0.1,0,0.3-0.1,0.4-0.2c0.2-0.2,0.2-0.6,0-0.8L10.4,9.5z"/>
</g>
</svg>
