<?xml version="1.0" encoding="utf-8"?>
<!-- Generator: Adobe Illustrator 27.4.1, SVG Export Plug-In . SVG Version: 6.00 Build 0)  -->
<svg version="1.1" id="icons" xmlns="http://www.w3.org/2000/svg" xmlns:xlink="http://www.w3.org/1999/xlink" x="0px" y="0px"
	 viewBox="0 0 20 20" style="enable-background:new 0 0 20 20;" xml:space="preserve">
<g>
	<circle cx="10" cy="10" r="1.5"/>
	<path d="M13,6.2c-0.2-0.2-0.6-0.1-0.8,0.1s-0.1,0.6,0.1,0.8c0.9,0.6,1.5,1.7,1.5,2.8c0,1.1-0.6,2.2-1.5,2.8
		c-0.2,0.2-0.3,0.5-0.1,0.8c0.1,0.2,0.3,0.2,0.5,0.2c0.1,0,0.2,0,0.3-0.1c1.2-0.8,2-2.3,2-3.8C15,8.5,14.2,7.1,13,6.2z"/>
	<path d="M7.6,7.2C7.9,7,8,6.6,7.8,6.4C7.6,6.1,7.3,6.1,7,6.2C5.8,7.1,5,8.5,5,10s0.7,2.9,2,3.8c0.1,0.1,0.2,0.1,0.3,0.1
		c0.2,0,0.3-0.1,0.5-0.2C8,13.4,7.9,13,7.6,12.8c-0.9-0.6-1.5-1.7-1.5-2.8S6.7,7.8,7.6,7.2z"/>
	<path d="M14.9,3c-0.3-0.2-0.6-0.1-0.8,0.1c-0.2,0.2-0.1,0.6,0.1,0.8c2,1.4,3.2,3.7,3.2,6.1s-1.2,4.7-3.2,6.1
		c-0.2,0.2-0.3,0.5-0.1,0.8c0.1,0.2,0.3,0.2,0.5,0.2c0.1,0,0.2,0,0.3-0.1c2.3-1.6,3.7-4.2,3.7-7C18.5,7.2,17.2,4.6,14.9,3z"/>
	<path d="M2.5,10c0-2.4,1.2-4.7,3.2-6.1C6,3.7,6.1,3.4,5.9,3.2C5.7,2.9,5.4,2.8,5.1,3c-2.3,1.6-3.7,4.2-3.7,7s1.4,5.4,3.7,7
		c0.1,0.1,0.2,0.1,0.3,0.1c0.2,0,0.3-0.1,0.5-0.2c0.2-0.3,0.1-0.6-0.1-0.8C3.7,14.7,2.5,12.4,2.5,10z"/>
</g>
</svg>
