<?xml version="1.0" encoding="utf-8"?>
<!-- Generator: Adobe Illustrator 27.4.1, SVG Export Plug-In . SVG Version: 6.00 Build 0)  -->
<svg version="1.1" id="icons" xmlns="http://www.w3.org/2000/svg" xmlns:xlink="http://www.w3.org/1999/xlink" x="0px" y="0px"
	 viewBox="0 0 20 20" style="enable-background:new 0 0 20 20;" xml:space="preserve">
<g>
	<circle cx="10" cy="14.3" r="1"/>
	<path d="M10.1,7.1C7.9,7.1,5.8,8,4.2,9.5C4,9.7,4,10.1,4.2,10.3c0.1,0.1,0.3,0.2,0.4,0.2c0.1,0,0.3-0.1,0.4-0.2
		C6.3,9,8.2,8.2,10.1,8.2c1.8,0,3.5,0.7,4.9,1.9c0.2,0.2,0.6,0.2,0.8,0c0.2-0.2,0.2-0.6,0-0.8C14.2,7.9,12.2,7.1,10.1,7.1z"/>
	<path d="M17.8,7.3c-2.1-2.1-4.9-3.2-7.8-3.2c-3,0-5.8,1.2-7.9,3.3C1.9,7.6,1.9,8,2.1,8.2c0.1,0.1,0.3,0.2,0.4,0.2
		c0.2,0,0.3-0.1,0.4-0.2c1.9-1.9,4.4-3,7.1-3c2.6,0,5.1,1,7,2.9c0.2,0.2,0.6,0.2,0.8,0C18,7.9,18,7.5,17.8,7.3z"/>
	<path d="M10.1,10.1c-1.4,0-2.7,0.5-3.8,1.4C6,11.7,6,12.1,6.2,12.3c0.1,0.1,0.2,0.2,0.4,0.2c0.2,0,0.3-0.1,0.4-0.1
		c1.7-1.5,4.2-1.5,6-0.1c0.3,0.2,0.6,0.1,0.8-0.1c0.2-0.3,0.1-0.6-0.1-0.8C12.7,10.6,11.4,10.1,10.1,10.1z"/>
</g>
</svg>
