<?xml version="1.0" encoding="utf-8"?>
<!-- Generator: Adobe Illustrator 27.4.1, SVG Export Plug-In . SVG Version: 6.00 Build 0)  -->
<svg version="1.1" id="icons" xmlns="http://www.w3.org/2000/svg" xmlns:xlink="http://www.w3.org/1999/xlink" x="0px" y="0px"
	 viewBox="0 0 20 20" style="enable-background:new 0 0 20 20;" xml:space="preserve">
<path d="M17.6,12.3c-0.3,0-0.5,0.2-0.5,0.5v2h-4v-4.2l4.1-1.9c0.6-0.3,0.9-1.1,0.6-1.7l-2.1-4.6c-0.1-0.3-0.4-0.6-0.7-0.7
	c-0.3-0.1-0.7-0.1-1,0L5,5.8C4.7,6,4.4,6.3,4.3,6.6c-0.1,0.3-0.1,0.7,0,1l0.1,0.3l-2.2,1C2,9.1,1.8,9.6,2,10l1.1,2.4
	c0.1,0.2,0.2,0.3,0.5,0.4c0.1,0,0.2,0,0.3,0c0.1,0,0.2,0,0.3-0.1l2.2-1L6.6,12c0.1,0.3,0.4,0.6,0.7,0.7c0.1,0.1,0.3,0.1,0.5,0.1
	s0.4,0,0.6-0.1l3.7-1.7v4.3c0,0.3,0.2,0.5,0.5,0.5H17v2c0,0.3,0.2,0.5,0.5,0.5s0.5-0.2,0.5-0.5v-5.1C18.1,12.5,17.9,12.3,17.6,12.3z
	 M4,11.7L3.1,9.8L5,8.9l0.9,1.9L4,11.7z M7.8,11.8c-0.1,0-0.1,0-0.2,0c0,0-0.1,0-0.1-0.1L5.4,7.1c0-0.1,0-0.1,0-0.2
	c0,0,0-0.1,0.1-0.1l8.9-4.1h0.1h0.1c0,0,0.1,0,0.1,0.1l2.1,4.6c0,0.1,0,0.2-0.1,0.3L7.8,11.8z"/>
</svg>
