<?xml version="1.0" encoding="utf-8"?>
<!-- Generator: Adobe Illustrator 27.4.1, SVG Export Plug-In . SVG Version: 6.00 Build 0)  -->
<svg version="1.1" id="Ebene_2_00000039831776387882923180000007340159597916440745_"
	 xmlns="http://www.w3.org/2000/svg" xmlns:xlink="http://www.w3.org/1999/xlink" x="0px" y="0px" viewBox="0 0 17.1 17.1"
	 style="enable-background:new 0 0 17.1 17.1;" xml:space="preserve">
<g>
	<path d="M17.1,15c-0.4-1.9-2-3.2-3.9-3.2h-1.7c-1.9,0-3.5,1.3-3.9,3.2c-0.1,0.4,0,0.8,0.2,1.1s0.5,0.5,0.8,0.5
		c0.3,0.1,1.7,0.5,3.6,0.5c1.9,0,3.5-0.5,3.8-0.5c0.3-0.1,0.6-0.2,0.8-0.5C17.1,15.7,17.2,15.3,17.1,15z M16,15.4l-0.1,0.1h-0.1
		c0,0-1.6,0.5-3.5,0.5C10.4,16,9,15.5,9,15.5H8.9c-0.1,0-0.1,0-0.1-0.1c0-0.1,0-0.1,0-0.2c0.3-1.4,1.5-2.3,2.8-2.3h1.7
		c1.3,0,2.5,1,2.8,2.3C16,15.3,16,15.3,16,15.4z"/>
	<path d="M9.9,8.2c0,1.3,1.1,2.4,2.4,2.4s2.4-1.1,2.4-2.4c0-1.3-1.1-2.4-2.4-2.4S9.9,6.9,9.9,8.2z M12.3,6.9c0.7,0,1.3,0.6,1.3,1.3
		c0,0.7-0.6,1.3-1.3,1.3S11,9,11,8.2C11,7.4,11.6,6.9,12.3,6.9z"/>
	<path d="M7.8,9.8c0-0.3-0.2-0.5-0.5-0.5H1.4l1.6-4h5.2c0.3,0,0.5-0.2,0.5-0.5S8.6,4.2,8.3,4.2H2.7c-0.2,0-0.4,0.1-0.5,0.3L1.1,7
		V1.2c0-0.1,0.1-0.1,0.1-0.1h2.6c0.1,0,0.1,0.1,0.1,0.1V2c0,0.3,0.2,0.5,0.5,0.5h6v0.9C10.5,3.7,10.7,4,11,4s0.5-0.2,0.5-0.5V2
		c0-0.3-0.2-0.5-0.5-0.5H5V1.2C5,0.5,4.5,0,3.8,0H1.2C0.5,0,0,0.5,0,1.2v8.5C0,9.8,0,9.9,0,10c0,0,0,0,0,0.1c0,0,0,0.1,0.1,0.1
		c0,0,0,0,0.1,0l0.1,0.1c0,0,0,0,0.1,0c0,0,0,0,0.1,0h0.1h6.7C7.6,10.3,7.8,10.1,7.8,9.8z"/>
</g>
</svg>
