<?xml version="1.0" encoding="utf-8"?>
<!-- Generator: Adobe Illustrator 27.4.1, SVG Export Plug-In . SVG Version: 6.00 Build 0)  -->
<svg version="1.1" id="icons" xmlns="http://www.w3.org/2000/svg" xmlns:xlink="http://www.w3.org/1999/xlink" x="0px" y="0px"
	 viewBox="0 0 20 20" style="enable-background:new 0 0 20 20;" xml:space="preserve">
<g>
	<path d="M17.2,15.3c-0.6-3-3.1-5.1-5.9-5.1H8.6c-2.8,0-5.2,2.1-5.9,5.1c-0.2,0.9,0.4,1.9,1.4,2.2l0.2,0.1c0.8,0.3,2.6,0.9,5.6,0.9
		s5.1-0.5,6-1C16.7,17.2,17.4,16.3,17.2,15.3z M15.5,16.6c-0.8,0.4-2.7,0.9-5.6,0.9c-2.8,0-4.4-0.5-5.2-0.8l-0.2-0.1
		c-0.4-0.1-0.7-0.4-0.6-0.9c0.5-2.5,2.5-4.2,4.8-4.2h2.7c2.3,0,4.3,1.7,4.8,4.2C16.3,16.1,15.8,16.5,15.5,16.6z"/>
	<path d="M10,8.8c2,0,3.7-1.6,3.7-3.6S12,1.5,10,1.5c-2.1,0-3.7,1.6-3.7,3.6S8,8.8,10,8.8z M10,2.5c1.4,0,2.6,1.2,2.6,2.6
		c0,1.4-1.2,2.6-2.6,2.6S7.4,6.5,7.4,5.1C7.4,3.7,8.6,2.5,10,2.5z"/>
</g>
</svg>
