<?xml version="1.0" encoding="utf-8"?>
<!-- Generator: Adobe Illustrator 27.4.1, SVG Export Plug-In . SVG Version: 6.00 Build 0)  -->
<svg version="1.1" id="icons" xmlns="http://www.w3.org/2000/svg" xmlns:xlink="http://www.w3.org/1999/xlink" x="0px" y="0px"
	 viewBox="0 0 20 20" style="enable-background:new 0 0 20 20;" xml:space="preserve">
<g>
	<path d="M14.4,9.5c-1,0-2,0.2-2.7,0.5C10.9,9.5,10,9.2,9.1,9.2H6.7C4.2,9.2,2,11,1.5,13.7c-0.2,0.9,0.3,1.7,1.2,2l0.2,0.1
		c0.7,0.2,2.2,0.8,4.9,0.8c0.3,0,0.5-0.2,0.5-0.5c0-0.3-0.2-0.5-0.5-0.5c-2.5,0-3.9-0.5-4.6-0.7L3,14.8c-0.2-0.1-0.6-0.3-0.5-0.7
		C3,12,4.7,10.5,6.7,10.5h2.4c0.6,0,1.1,0.1,1.7,0.4c-0.3,0.3-0.4,0.6-0.4,1v5c0,0.1,0,0.1,0,0.2c0.5,1.1,2.5,1.6,4.1,1.6
		c1.9,0,3.5-0.7,4-1.6c0-0.1,0-0.1,0-0.2v-5C18.5,10.4,16.7,9.5,14.4,9.5z M14.4,10.5c1.9,0,3.1,0.7,3.1,1.2s-1.2,1.2-3.1,1.2
		c-1.9,0-3.1-0.7-3.1-1.2S12.5,10.5,14.4,10.5z M11.3,13.1c0.7,0.5,1.8,0.7,3.1,0.7c1.3,0,2.3-0.3,3.1-0.7v1.1c-0.3,0.5-1.5,1-3.1,1
		c-1.6,0-2.8-0.5-3.1-1V13.1z M17.6,16.5c-0.4,0.5-1.6,1-3.1,1s-2.8-0.5-3.1-1v-1.1c0.8,0.4,1.9,0.7,3.1,0.7s2.3-0.3,3.1-0.7V16.5z"
		/>
	<path d="M7.9,8c1.8,0,3.3-1.5,3.3-3.3S9.7,1.4,7.9,1.4c-1.8,0-3.3,1.5-3.3,3.3C4.6,6.6,6.1,8,7.9,8z M7.9,2.5c1.2,0,2.2,1,2.2,2.2
		s-1,2.2-2.2,2.2c-1.2,0-2.2-1-2.2-2.2S6.7,2.5,7.9,2.5z"/>
</g>
</svg>
