<?xml version="1.0" encoding="utf-8"?>
<!-- Generator: Adobe Illustrator 27.4.1, SVG Export Plug-In . SVG Version: 6.00 Build 0)  -->
<svg version="1.1" id="icons" xmlns="http://www.w3.org/2000/svg" xmlns:xlink="http://www.w3.org/1999/xlink" x="0px" y="0px"
	 viewBox="0 0 20 20" style="enable-background:new 0 0 20 20;" xml:space="preserve">
<g>
	<path d="M17.5,13.5c0-0.3,0-0.6,0-0.9l0.7-0.6c0.4-0.3,0.5-0.8,0.2-1.2l-0.6-1c-0.2-0.4-0.7-0.5-1.1-0.4l-0.9,0.3L15,9.3l-0.2-0.9
		c-0.1-0.4-0.5-0.8-0.9-0.8h-1.3c-0.5,0-0.9,0.3-0.9,0.8l-0.2,0.8c-0.3,0.1-0.6,0.3-0.8,0.5l-1-0.3c-0.1,0-0.3,0-0.4,0
		c-0.1,0-0.1,0-0.2,0H6.7c-2.5,0-4.7,1.8-5.2,4.5c-0.2,0.9,0.3,1.7,1.2,2L2.9,16c0.5,0.2,1.4,0.5,2.8,0.6c0,0,0,0,0.1,0
		c0.3,0,0.5-0.2,0.5-0.5c0-0.3-0.2-0.6-0.5-0.6c-1.3-0.2-2.1-0.4-2.6-0.6L3,14.8c-0.2-0.1-0.6-0.3-0.5-0.7C3,12,4.8,10.5,6.7,10.5
		h1.4l-0.2,0.4c-0.3,0.4-0.2,0.9,0.2,1.2l0.7,0.5c0,0.3,0,0.6,0,0.9L8.1,14c-0.4,0.3-0.5,0.8-0.2,1.2l0.6,1c0.1,0.1,0.2,0.2,0.3,0.3
		c0.2,0.1,0.5,0.2,0.8,0.1l0.9-0.3c0.3,0.2,0.5,0.3,0.8,0.4l0.2,0.8c0.1,0.4,0.5,0.8,0.9,0.8h1.3c0.5,0,0.9-0.3,0.9-0.8l0.2-0.8
		c0.3-0.1,0.6-0.3,0.8-0.5l0.9,0.3c0.4,0.1,0.9,0,1.1-0.4l0.6-1c0.4-0.3,0.3-0.8,0-1.1L17.5,13.5z M16.4,12.6c0,0.2,0,0.4,0,0.7
		s0.1,0.6,0.3,0.8l0.7,0.5l-0.5,1.1L16,15.4c-0.3-0.1-0.6,0-0.9,0.1c-0.2,0.1-0.4,0.3-0.6,0.4c-0.3,0.1-0.5,0.4-0.6,0.7l-0.1,0.8
		h-1.2l-0.2-0.8c-0.1-0.3-0.3-0.6-0.6-0.7c-0.2-0.1-0.5-0.2-0.7-0.4c-0.2-0.1-0.4-0.2-0.6-0.2c-0.1,0-0.2,0-0.3,0l-0.9,0.3l-0.6-0.9
		l0.7-0.6c0.2-0.2,0.4-0.5,0.3-0.9c0-0.2,0-0.4,0-0.7s-0.1-0.6-0.3-0.8l-0.7-0.5l0.6-1l0.9,0.3c0.3,0.1,0.6,0,0.9-0.1
		c0.2-0.1,0.4-0.3,0.6-0.4c0.3-0.1,0.5-0.4,0.6-0.7l0.1-0.8h1.2l0.2,0.9c0.1,0.3,0.2,0.5,0.5,0.6l0.8,0.4c0.2,0.1,0.5,0.2,0.8,0.1
		l0.9-0.3l0.6,0.9l-0.7,0.6C16.5,11.9,16.3,12.2,16.4,12.6z"/>
	<path d="M13.2,11.2c-1.1,0-1.9,0.8-1.9,1.9c0,1.1,0.9,1.9,1.9,1.9c1.1,0,1.9-0.8,1.9-1.9C15.1,12,14.2,11.2,13.2,11.2z M13.2,13.9
		c-0.5,0-0.9-0.4-0.9-0.9s0.4-0.9,0.9-0.9s0.9,0.4,0.9,0.9S13.7,13.9,13.2,13.9z"/>
	<path d="M7.9,8.2c1.8,0,3.3-1.5,3.3-3.3c0-1.8-1.5-3.3-3.3-3.3C6.1,1.6,4.6,3,4.6,4.9C4.6,6.7,6.1,8.2,7.9,8.2z M7.9,2.7
		c1.2,0,2.2,1,2.2,2.2c0,1.2-1,2.2-2.2,2.2c-1.2,0-2.2-1-2.2-2.2C5.7,3.7,6.7,2.7,7.9,2.7z"/>
</g>
</svg>
