<?xml version="1.0" encoding="utf-8"?>
<!-- Generator: Adobe Illustrator 27.4.1, SVG Export Plug-In . SVG Version: 6.00 Build 0)  -->
<svg version="1.1" id="icons" xmlns="http://www.w3.org/2000/svg" xmlns:xlink="http://www.w3.org/1999/xlink" x="0px" y="0px"
	 viewBox="0 0 20 20" style="enable-background:new 0 0 20 20;" xml:space="preserve">
<g>
	<path d="M7.3,8.9c1.7,0,3-1.4,3-3c0-1.6-1.4-3-3-3c-1.6,0-3,1.4-3,3C4.3,7.5,5.6,8.9,7.3,8.9z M7.3,4c1.1,0,1.9,0.9,1.9,1.9
		S8.3,7.8,7.3,7.8S5.4,7,5.4,5.9C5.4,4.8,6.2,4,7.3,4z"/>
	<path d="M14.4,9.5c-1.6,0-2.9,0.5-3.6,1.1c-0.7-0.5-1.6-0.7-2.4-0.7H6.3c-2.3,0-4.3,1.6-4.8,4c-0.2,0.8,0.3,1.6,1.2,1.9l0.2,0.1
		c0.7,0.2,2,0.7,4.4,0.7c0.3,0,0.5-0.2,0.5-0.5c0-0.3-0.2-0.5-0.5-0.5c-2.2,0-3.5-0.4-4.1-0.6L3,14.8c-0.2-0.1-0.5-0.3-0.4-0.6
		C3,12.3,4.5,11,6.3,11h2.1c0.7,0,1.3,0.2,1.9,0.6v0.1v5c0,0.1,0,0.2,0.1,0.2c0.5,1.1,2.5,1.6,4.1,1.6c1.9,0,3.6-0.7,4-1.6
		c0-0.1,0.1-0.2,0.1-0.2v-5C18.5,10.4,16.8,9.5,14.4,9.5z M17.4,16.6c-0.3,0.4-1.5,0.9-2.9,0.9c-1.6,0-2.8-0.5-3.1-0.9v-1
		c0.8,0.4,1.8,0.7,3,0.7c1.2,0,2.3-0.3,3-0.7V16.6z M17.4,14.2c-0.4,0.5-1.5,0.9-3,0.9s-2.7-0.4-3-0.9V13c0.8,0.4,1.8,0.7,3,0.7
		c1.2,0,2.3-0.3,3-0.7V14.2z M17.4,11.7c-0.4,0.5-1.5,0.9-3,0.9s-2.7-0.4-3-0.9v-0.1c0-0.4,1.2-1.1,3-1.1c1.8,0,3,0.7,3,1.1V11.7z"
		/>
	<path d="M14.4,7.6c0.1,0.1,0.2,0.2,0.4,0.2c0.1,0,0.3-0.1,0.4-0.2c0.2-0.2,0.2-0.6,0-0.8l-1.6-1.6H18c0.3,0,0.5-0.2,0.5-0.5
		S18.3,4.1,18,4.1h-4.5l1.7-1.7c0.2-0.2,0.2-0.6,0-0.8c-0.2-0.2-0.6-0.2-0.8,0l-2.6,2.6c-0.2,0.2-0.2,0.6,0,0.8L14.4,7.6z"/>
</g>
</svg>
