<?xml version="1.0" encoding="utf-8"?>
<!-- Generator: Adobe Illustrator 27.4.1, SVG Export Plug-In . SVG Version: 6.00 Build 0)  -->
<svg version="1.1" id="icons" xmlns="http://www.w3.org/2000/svg" xmlns:xlink="http://www.w3.org/1999/xlink" x="0px" y="0px"
	 viewBox="0 0 20 20" style="enable-background:new 0 0 20 20;" xml:space="preserve">
<g>
	<path d="M11.1,12.8c0.4-0.3,0.5-0.8,0.2-1.2l-0.6-0.9c-0.2-0.4-0.7-0.5-1.1-0.4l-0.8,0.2l-0.6-0.3L8,9.5C7.9,9,7.5,8.7,7,8.7H5.8
		C5.4,8.7,5,9,4.8,9.5l-0.1,0.7c-0.2,0.1-0.5,0.3-0.6,0.4l-0.8-0.3c-0.4-0.1-0.9,0-1.1,0.4l-0.6,0.9c-0.2,0.4-0.2,0.9,0.2,1.2
		l0.6,0.5c0,0.2,0,0.5,0,0.7l-0.6,0.5c-0.4,0.3-0.5,0.8-0.2,1.2l0.6,0.9c0.1,0.1,0.2,0.2,0.3,0.3C2.7,17,3,17,3.3,17L4,16.7
		C4.2,16.9,4.5,17,4.7,17l0.1,0.7c0.1,0.5,0.5,0.8,1,0.8H7c0.4,0,0.8-0.3,1.1-0.7l0.1-0.7c0.2-0.1,0.5-0.3,0.6-0.4L9.6,17
		c0.4,0.1,0.9,0,1.1-0.4l0.6-0.9c0.2-0.4,0.2-0.9-0.2-1.2L10.5,14c0-0.2,0-0.5,0-0.7L11.1,12.8z M9.7,14.7l0.5,0.5l-0.4,0.7
		l-0.7-0.2c-0.3-0.1-0.6-0.1-0.9,0.1C8,15.9,7.8,16,7.6,16.1c-0.3,0.1-0.5,0.4-0.6,0.7l-0.1,0.7h-1l-0.1-0.7
		c-0.1-0.3-0.3-0.6-0.6-0.7C5,16,4.8,15.9,4.6,15.8c-0.3-0.1-0.6-0.2-0.9-0.1L3,15.9l-0.4-0.7l0.5-0.4c0.2-0.2,0.3-0.6,0.3-0.9
		c0-0.2,0-0.4,0-0.6c0.1-0.3-0.1-0.6-0.3-0.8L2.6,12L3,11.3l0.7,0.2c0.3,0.1,0.6,0.1,0.9-0.1c0.2-0.1,0.4-0.2,0.6-0.3
		c0.3-0.1,0.5-0.4,0.6-0.7l0.1-0.7h1L7,10.4c0.1,0.2,0.3,0.5,0.5,0.6l0.7,0.4c0.3,0.1,0.5,0.2,0.8,0.1l0.8-0.2l0.4,0.7l-0.5,0.4
		c-0.2,0.3-0.3,0.6-0.3,0.9c0,0.2,0,0.4,0,0.6C9.3,14.2,9.5,14.5,9.7,14.7z"/>
	<path d="M6.4,11.9c-1,0-1.8,0.7-1.8,1.7c0,0.9,0.8,1.7,1.8,1.7s1.8-0.7,1.8-1.7C8.2,12.7,7.4,11.9,6.4,11.9z M6.4,14.3
		c-0.5,0-0.8-0.3-0.8-0.7c0-0.4,0.4-0.7,0.8-0.7c0.4,0,0.8,0.3,0.8,0.7C7.2,14,6.9,14.3,6.4,14.3z"/>
	<path d="M18.4,11.3c-0.4-2.1-2.2-3.6-4.2-3.6h-1.8c-0.8,0-1.6,0.3-2.3,0.7C9.8,8.6,9.7,8.9,9.9,9.2c0.2,0.3,0.5,0.4,0.8,0.2
		c0.5-0.3,1.1-0.5,1.7-0.5h1.8c1.5,0,2.8,1.2,3.2,2.8c0.1,0.2-0.2,0.4-0.3,0.4l-0.2,0.1c-0.5,0.1-1.6,0.5-3.5,0.5
		c-0.3,0-0.5,0.2-0.5,0.5s0.2,0.5,0.5,0.5c2.2,0,3.4-0.4,3.8-0.7h0.1C18.1,12.8,18.6,12,18.4,11.3z"/>
	<path d="M13.4,6.9c1.5,0,2.7-1.2,2.7-2.7s-1.2-2.7-2.7-2.7s-2.7,1.2-2.7,2.7S11.9,6.9,13.4,6.9z M13.4,2.5c0.9,0,1.6,0.9,1.6,1.7
		s-0.7,1.6-1.6,1.5c-0.9,0-1.6-0.7-1.6-1.6C11.8,3.2,12.5,2.5,13.4,2.5z"/>
	<path d="M2,7.7c0.3,0,0.5-0.2,0.5-0.5v-3h4.1L5.9,5c-0.2,0.2-0.2,0.6,0,0.8C6,5.9,6.1,6,6.3,6c0.1,0,0.3-0.1,0.4-0.2l1.7-1.7
		c0,0,0,0,0-0.1c0.1,0,0.1-0.1,0.1-0.1c0.1-0.1,0.1-0.3,0-0.4c0,0,0-0.1-0.1-0.1c0,0,0,0,0-0.1L6.7,1.6c-0.2-0.2-0.6-0.2-0.8,0
		c-0.2,0.2-0.2,0.6,0,0.8l0.7,0.8H2c-0.3,0-0.5,0.2-0.5,0.5v3.5C1.5,7.5,1.7,7.7,2,7.7z"/>
</g>
</svg>
