<?xml version="1.0" encoding="utf-8"?>
<!-- Generator: Adobe Illustrator 27.4.1, SVG Export Plug-In . SVG Version: 6.00 Build 0)  -->
<svg version="1.1" id="icons" xmlns="http://www.w3.org/2000/svg" xmlns:xlink="http://www.w3.org/1999/xlink" x="0px" y="0px"
	 viewBox="0 0 20 20" style="enable-background:new 0 0 20 20;" xml:space="preserve">
<g>
	<path d="M18.1,12l-3.2-2.5c-0.2-0.2-0.5-0.2-0.7,0l-1.7,1.3c-1-1-2.3-1.6-3.7-1.6H6.5C4,9.2,1.8,11,1.3,13.7
		c-0.2,0.9,0.3,1.7,1.2,2l0.2,0.1c0.7,0.2,2.2,0.8,4.9,0.8c0.3,0,0.5-0.2,0.5-0.5c0-0.3-0.2-0.5-0.5-0.5c-2.5,0-3.9-0.5-4.6-0.7
		l-0.2-0.1c-0.2-0.1-0.6-0.3-0.5-0.7c0.5-2.1,2.2-3.6,4.2-3.6h2.4c1,0,2,0.4,2.8,1.2L11.1,12c-0.1,0.1-0.2,0.3-0.2,0.4V18
		c0,0.3,0.2,0.5,0.5,0.5h6.4c0.3,0,0.5-0.2,0.5-0.5v-5.5C18.4,12.3,18.3,12.2,18.1,12z M15.1,17.5h-1v-2.2h1V17.5z M17.3,17.5h-1.2
		v-2.7c0-0.3-0.2-0.5-0.5-0.5h-2c-0.3,0-0.5,0.2-0.5,0.5v2.7H12v-4.7l0.9-0.7l1.7-1.3l2.7,2.1V17.5z"/>
	<path d="M7.7,8C9.5,8,11,6.6,11,4.7c0-1.8-1.5-3.3-3.3-3.3S4.4,2.9,4.4,4.7C4.4,6.6,5.9,8,7.7,8z M7.7,2.5c1.2,0,2.2,1,2.2,2.2
		s-1,2.2-2.2,2.2S5.5,6,5.5,4.7C5.5,3.5,6.5,2.5,7.7,2.5z"/>
</g>
</svg>
