<?xml version="1.0" encoding="utf-8"?>
<!-- Generator: Adobe Illustrator 27.4.1, SVG Export Plug-In . SVG Version: 6.00 Build 0)  -->
<svg version="1.1" id="icons" xmlns="http://www.w3.org/2000/svg" xmlns:xlink="http://www.w3.org/1999/xlink" x="0px" y="0px"
	 viewBox="0 0 20 20" style="enable-background:new 0 0 20 20;" xml:space="preserve">
<g>
	<path d="M7.8,17.5H2.5V2.5h7.6v3.3c0,0.3,0.2,0.5,0.5,0.5H14v4.2c0,0.3,0.2,0.5,0.5,0.5s0.5-0.2,0.5-0.5V5.8c0,0,0,0,0-0.1
		c0,0,0,0,0-0.1c0-0.1-0.1-0.2-0.1-0.2c0,0,0,0,0,0l-3.9-3.8c0,0,0,0,0,0l0,0c0,0,0,0,0,0c-0.1-0.1-0.1-0.1-0.2-0.1c0,0,0,0-0.1,0
		c0,0,0,0-0.1,0H2C1.7,1.5,1.4,1.7,1.4,2v16c0,0.3,0.2,0.5,0.5,0.5h5.8c0.3,0,0.5-0.2,0.5-0.5S8.1,17.5,7.8,17.5z M11.3,5.3V3.3
		l2,1.9H11.3z"/>
	<path d="M18.4,10.3c-0.2-0.2-0.6-0.2-0.8,0.1l-5.7,6.8l-2-2.1c-0.2-0.2-0.6-0.2-0.8,0c-0.2,0.2-0.2,0.6,0,0.8l2.4,2.5
		c0.1,0.1,0.2,0.2,0.4,0.2c0,0,0,0,0,0c0.2,0,0.3-0.1,0.4-0.2l6.1-7.3C18.6,10.8,18.6,10.5,18.4,10.3z"/>
	<path d="M11.2,8.7H5.4c-0.3,0-0.5,0.2-0.5,0.5s0.2,0.5,0.5,0.5h5.8c0.3,0,0.5-0.2,0.5-0.5S11.5,8.7,11.2,8.7z"/>
	<path d="M11.2,11.7H5.4c-0.3,0-0.5,0.2-0.5,0.5s0.2,0.5,0.5,0.5h5.8c0.3,0,0.5-0.2,0.5-0.5S11.5,11.7,11.2,11.7z"/>
</g>
</svg>
