<?xml version="1.0" encoding="utf-8"?>
<!-- Generator: Adobe Illustrator 27.4.1, SVG Export Plug-In . SVG Version: 6.00 Build 0)  -->
<svg version="1.1" id="icons" xmlns="http://www.w3.org/2000/svg" xmlns:xlink="http://www.w3.org/1999/xlink" x="0px" y="0px"
	 viewBox="0 0 20 20" style="enable-background:new 0 0 20 20;" xml:space="preserve">
<path d="M17.4,16.6l-3.9-3.9c0.9-1.1,1.5-2.5,1.5-4c0-3.4-2.8-6.2-6.2-6.2S2.5,5.2,2.5,8.7s2.8,6.2,6.2,6.2c1.5,0,2.9-0.5,4-1.5
	l3.9,3.9c0.1,0.1,0.2,0.2,0.4,0.2s0.3-0.1,0.4-0.2C17.6,17.2,17.6,16.8,17.4,16.6z M3.5,8.7c0-2.8,2.3-5.1,5.1-5.1s5.1,2.3,5.1,5.1
	s-2.3,5.1-5.1,5.1S3.5,11.5,3.5,8.7z"/>
</svg>
