<?xml version="1.0" encoding="utf-8"?>
<!-- Generator: Adobe Illustrator 27.4.1, SVG Export Plug-In . SVG Version: 6.00 Build 0)  -->
<svg version="1.1" id="Ebene_2_00000004532345625563802780000009616336909177601190_"
	 xmlns="http://www.w3.org/2000/svg" xmlns:xlink="http://www.w3.org/1999/xlink" x="0px" y="0px" viewBox="0 0 19.2 18"
	 style="enable-background:new 0 0 19.2 18;" xml:space="preserve">
<g>
	<path d="M18.9,5.8l-0.6-0.5c0-0.2,0-0.5,0-0.7l0.6-0.5c0.4-0.3,0.5-0.8,0.2-1.2L18.5,2c-0.2-0.4-0.7-0.5-1.1-0.4l-0.8,0.2l-0.6-0.3
		l-0.2-0.7c-0.1-0.4-0.5-0.8-1-0.8h-1.2c-0.5,0-0.9,0.3-1,0.8l-0.1,0.7c-0.3,0.1-0.5,0.2-0.6,0.4l-0.8-0.3c-0.4-0.1-0.9,0-1.1,0.4
		L9.4,2.9C9.2,3.3,9.3,3.8,9.6,4.1l0.6,0.5c0,0.2,0,0.5,0,0.7L9.7,5.8C9.3,6.1,9.2,6.6,9.4,7L10,7.9c0.1,0.1,0.2,0.2,0.3,0.3
		c0.2,0.1,0.5,0.2,0.8,0.1l0.7-0.3c0.2,0.2,0.5,0.3,0.7,0.4l0.1,0.7c0.1,0.4,0.5,0.8,1,0.8h1.2c0.5,0,0.9-0.3,1-0.8l0.1-0.7
		c0.3-0.1,0.5-0.2,0.6-0.4l0.8,0.3c0.4,0.1,0.9,0,1.1-0.4L19.1,7C19.3,6.6,19.2,6.1,18.9,5.8z M17.6,7.2L16.9,7
		c-0.3-0.1-0.6,0-0.9,0.1c-0.2,0.1-0.4,0.2-0.6,0.3c-0.3,0.1-0.5,0.4-0.6,0.7l-0.1,0.7h-1l-0.1-0.7c-0.1-0.3-0.3-0.6-0.6-0.7
		c-0.2-0.1-0.4-0.2-0.6-0.3C12.2,7,11.9,6.9,11.6,7l-0.7,0.2l-0.4-0.7L11,6.1c0.3-0.2,0.4-0.5,0.3-0.9c0-0.2,0-0.4,0-0.6
		c0-0.3-0.1-0.6-0.3-0.8l-0.5-0.4l0.4-0.7l0.7,0.2c0.3,0.1,0.6,0,0.9-0.1c0.2-0.1,0.4-0.2,0.6-0.3c0.3-0.1,0.5-0.4,0.6-0.7l0.1-0.7
		h1l0.1,0.7c0.1,0.3,0.2,0.5,0.5,0.6l0.7,0.4c0.2,0.1,0.5,0.2,0.8,0.1c0,0,0,0,0,0l0.8-0.2l0.4,0.7l-0.5,0.4
		c-0.3,0.2-0.4,0.5-0.3,0.9c0,0.2,0,0.4,0,0.6c0,0.3,0.1,0.6,0.3,0.8l0.5,0.5L17.6,7.2z"/>
	<path d="M14.2,3.2c-1,0-1.8,0.8-1.8,1.8s0.8,1.8,1.8,1.8s1.8-0.8,1.8-1.8S15.3,3.2,14.2,3.2z M14.2,5.6c-0.4,0-0.7-0.3-0.7-0.7
		s0.3-0.7,0.7-0.7S15,4.6,15,4.9S14.7,5.6,14.2,5.6z"/>
	<path d="M14.8,12.8c-0.3,0-0.5,0.2-0.5,0.5v2.8c0,0.4-0.3,0.8-0.7,0.8H1.8c-0.4,0-0.7-0.3-0.7-0.8V7.6c0-0.4,0.3-0.8,0.7-0.8h4.4
		c0.3,0,0.5-0.2,0.5-0.5S6.6,5.7,6.2,5.7H1.8C0.8,5.7,0,6.5,0,7.6v8.6c0,1,0.8,1.9,1.8,1.9h11.8c1,0,1.8-0.8,1.8-1.9v-2.8
		C15.4,13,15.2,12.8,14.8,12.8z"/>
	<path d="M5.4,9.8C5.2,9.7,4.8,9.7,4.7,10l-0.6,1l-0.6-1C3.3,9.7,3,9.7,2.7,9.8c-0.3,0.2-0.3,0.5-0.2,0.8L3.4,12l-0.9,1.4
		c-0.2,0.3-0.1,0.6,0.2,0.8c0.1,0.1,0.2,0.1,0.3,0.1c0.2,0,0.4-0.1,0.5-0.3l0.6-1l0.6,1c0.1,0.2,0.3,0.3,0.5,0.3
		c0.1,0,0.2,0,0.3-0.1c0.3-0.2,0.3-0.5,0.2-0.8L4.7,12l0.9-1.4C5.8,10.3,5.7,10,5.4,9.8z"/>
	<path d="M6.2,9.8C5.9,10,5.8,10.3,6,10.6l1,1.5v1.6c0,0.3,0.2,0.5,0.5,0.5s0.5-0.2,0.5-0.5v-1.6l1-1.5c0.2-0.3,0.1-0.6-0.2-0.8
		C8.7,9.7,8.3,9.7,8.1,10l-0.6,1l-0.6-1C6.8,9.7,6.4,9.7,6.2,9.8z"/>
	<path d="M12.7,10c-0.1-0.2-0.3-0.3-0.5-0.3H10c-0.3,0-0.5,0.2-0.5,0.5s0.2,0.5,0.5,0.5h1.1l-1.6,2.5c-0.1,0.2-0.1,0.4,0,0.6
		c0.1,0.2,0.3,0.3,0.5,0.3h2.2c0.3,0,0.5-0.2,0.5-0.5s-0.2-0.5-0.5-0.5H11l1.6-2.5C12.8,10.4,12.8,10.2,12.7,10z"/>
</g>
</svg>
