<?xml version="1.0" encoding="utf-8"?>
<!-- Generator: Adobe Illustrator 27.4.1, SVG Export Plug-In . SVG Version: 6.00 Build 0)  -->
<svg version="1.1" id="icons" xmlns="http://www.w3.org/2000/svg" xmlns:xlink="http://www.w3.org/1999/xlink" x="0px" y="0px"
	 viewBox="0 0 20 20" style="enable-background:new 0 0 20 20;" xml:space="preserve">
<path d="M18.5,9.9c0-0.1-0.1-0.3-0.2-0.3L16.1,6c-0.2-0.3-0.5-0.3-0.8-0.2C15.1,6,15,6.3,15.1,6.6L17,9.4h-4.3l-3.3-6
	C9.3,3.2,9.1,3.1,8.9,3.1H5.8C5.6,2.1,4.7,1.5,3.7,1.5c-1.2,0-2.2,1-2.2,2.2s1,2.2,2.2,2.2c1.1,0,2-0.8,2.2-1.8h2.7l2.8,5.2H6V8.2
	c0-0.3-0.2-0.5-0.5-0.5H2c-0.3,0-0.5,0.2-0.5,0.5v3.4c0,0.3,0.2,0.5,0.5,0.5h3.4c0.3,0,0.5-0.2,0.5-0.5v-1.1h5.5l-2.8,5.2H5.9
	c-0.3-1-1.1-1.7-2.2-1.7c-1.2,0-2.2,1-2.2,2.2s1,2.2,2.2,2.2c1.1,0,1.9-0.7,2.2-1.7h3c0.2,0,0.4-0.1,0.5-0.3l3.3-6H17l-1.9,2.9
	c-0.2,0.3-0.1,0.6,0.2,0.8c0.1,0.1,0.2,0.1,0.3,0.1c0.2,0,0.4-0.1,0.5-0.3l2.4-3.7C18.5,10.2,18.5,10,18.5,9.9z M3.7,4.9
	c-0.6,0-1.2-0.5-1.2-1.2c0-0.6,0.5-1.1,1.2-1.1c0.6,0,1.1,0.5,1.1,1.1C4.9,4.3,4.3,4.9,3.7,4.9z M4.9,11.1H2.6V8.8h2.3V11.1z
	 M3.7,17.5c-0.6,0-1.2-0.5-1.2-1.2s0.5-1.2,1.2-1.2c0.6,0,1.1,0.5,1.1,1.2S4.3,17.5,3.7,17.5z"/>
</svg>
