<?xml version="1.0" encoding="utf-8"?>
<!-- Generator: Adobe Illustrator 27.4.1, SVG Export Plug-In . SVG Version: 6.00 Build 0)  -->
<svg version="1.1" id="Ebene_2_00000057113821277356685910000009116979207558918573_"
	 xmlns="http://www.w3.org/2000/svg" xmlns:xlink="http://www.w3.org/1999/xlink" x="0px" y="0px" viewBox="0 0 19 17.7"
	 style="enable-background:new 0 0 19 17.7;" xml:space="preserve">
<g>
	<path d="M18,10c-0.1-0.3-0.4-0.4-0.7-0.3c-0.3,0.1-0.4,0.4-0.3,0.7c0.1,0.4,0.2,0.8,0.2,1.2c0.1,0.6,0,1.3-0.1,2
		c-0.6,2.7-1.6,2.8-3.4,3.1c-1.9,0.3-4.1-1.6-4.1-1.6l-0.2-0.1H8.8L8.7,15c0,0-2.1,1.9-4.1,1.6c-1.7-0.3-2.7-0.4-3.3-3.1
		c-0.3-1.1-0.2-2.2,0.1-3.1l0.4-0.8C2.1,9,2.2,9,3.5,9l0.4,0c0.7,0,1.8,0.3,2.7,0.6c1.1,0.4,2.1,0.7,2.8,0.5
		c0.3-0.1,0.5-0.3,0.4-0.6C9.8,9.2,9.5,9.1,9.2,9.1C8.9,9.2,7.8,8.9,7,8.6C5.9,8.3,4.8,7.9,3.9,7.9l-0.4,0c-1.3,0-2,0-2.8,1.1
		l-0.4,1c-0.4,1.2-0.4,2.5-0.1,3.8c0.8,3.4,2.4,3.6,4.3,4c0.2,0,0.4,0,0.6,0c1.7,0,3.4-1.1,4-1.6c0.8,0.6,2.8,1.9,4.8,1.6
		c1.8-0.3,3.4-0.6,4.2-3.9c0.2-0.8,0.2-1.6,0.2-2.3C18.2,10.9,18.1,10.4,18,10z"/>
	<path d="M5.3,10.9c-0.9-0.1-1.7,0-2.3,0.3c-1.1,0.4-1.2,1-1.3,1.3c-0.1,1.2,1.6,2,3.3,2.1c0.2,0,0.3,0,0.5,0c0.7,0,1.3-0.1,1.8-0.3
		c1.1-0.4,1.2-1,1.3-1.3s-0.1-1-1.1-1.5C6.9,11.2,6.1,11,5.3,10.9z M6.9,13.3c-0.5,0.2-1.2,0.3-1.8,0.2c-1.5-0.1-2.3-0.7-2.3-0.9
		c0-0.1,0.1-0.2,0.6-0.4C3.8,12,4.5,12,5.2,12c0.7,0,1.3,0.2,1.8,0.5c0.4,0.2,0.5,0.4,0.5,0.5C7.5,13,7.3,13.1,6.9,13.3z"/>
	<path d="M11.1,14.3c0.5,0.2,1.1,0.3,1.8,0.3c0.2,0,0.3,0,0.5,0c1.7-0.1,3.4-0.9,3.3-2.1c-0.1-1.2-1.8-1.7-3.6-1.6
		C11.4,11,9.7,11.8,9.8,13C9.8,13.3,10,13.9,11.1,14.3z M13.2,12c1.5-0.1,2.4,0.4,2.4,0.6c0,0.2-0.8,0.8-2.3,0.9
		c-0.7,0-1.4,0-1.8-0.2c-0.4-0.1-0.5-0.3-0.6-0.4C10.9,12.7,11.6,12.1,13.2,12z"/>
	<path d="M18.7,5.8l-0.6-0.5c0-0.2,0-0.5,0-0.7l0.5-0.5c0.4-0.3,0.5-0.8,0.2-1.2L18.3,2c-0.2-0.4-0.7-0.5-1.1-0.4l-0.8,0.2l-0.6-0.3
		l-0.2-0.7c-0.1-0.4-0.5-0.8-1-0.8h-1.2c-0.5,0-0.9,0.3-1,0.8l-0.1,0.7c-0.3,0.1-0.5,0.2-0.6,0.4l-0.8-0.3C10.5,1.5,10,1.6,9.8,2
		L9.2,2.9C9,3.3,9.1,3.8,9.4,4.1L10,4.6c0,0.2,0,0.5,0,0.7L9.5,5.8C9.1,6.1,9,6.6,9.2,7l0.6,0.9C9.9,8,10,8.1,10.1,8.2
		c0.2,0.1,0.5,0.2,0.8,0.1l0.7-0.3c0.2,0.2,0.5,0.3,0.7,0.4l0.1,0.7c0.1,0.4,0.5,0.8,1,0.8h1.2c0.5,0,0.9-0.3,1-0.8l0.1-0.7
		C16,8.3,16.2,8.2,16.4,8l0.8,0.3c0.4,0.1,0.9,0,1.1-0.4L18.9,7C19.1,6.6,19,6.1,18.7,5.8z M17.4,7.2L16.7,7c-0.3-0.1-0.6,0-0.9,0.1
		c-0.2,0.1-0.4,0.2-0.6,0.3c-0.3,0.1-0.5,0.4-0.6,0.7l-0.1,0.7h-1l-0.1-0.7c-0.1-0.3-0.3-0.6-0.6-0.7c-0.2-0.1-0.4-0.2-0.6-0.3
		C12,7,11.7,6.9,11.4,7l-0.7,0.2l-0.4-0.7l0.5-0.4c0.2-0.2,0.4-0.5,0.3-0.9c0-0.2,0-0.4,0-0.6c0-0.3-0.1-0.6-0.3-0.8l-0.5-0.5
		l0.4-0.7l0.7,0.2c0.3,0.1,0.6,0,0.9-0.1c0.2-0.1,0.4-0.2,0.6-0.3c0.3-0.1,0.5-0.4,0.6-0.7l0.1-0.7h1l0.1,0.7
		c0.1,0.3,0.2,0.5,0.5,0.6l0.7,0.4c0.2,0.1,0.5,0.2,0.8,0.1c0,0,0,0,0,0l0.8-0.2l0.4,0.7l-0.5,0.4C17.1,4,17,4.3,17,4.6
		c0,0.2,0,0.4,0,0.6c0,0.3,0.1,0.6,0.3,0.9l0.5,0.5L17.4,7.2z"/>
	<path d="M14,3.2c-1,0-1.8,0.8-1.8,1.8S13,6.7,14,6.7c1,0,1.8-0.8,1.8-1.8S15.1,3.2,14,3.2z M14,5.6c-0.4,0-0.7-0.3-0.7-0.7
		s0.3-0.7,0.7-0.7c0.4,0,0.7,0.3,0.7,0.7S14.5,5.6,14,5.6z"/>
</g>
</svg>
