<?xml version="1.0" encoding="utf-8"?>
<!-- Generator: Adobe Illustrator 27.4.1, SVG Export Plug-In . SVG Version: 6.00 Build 0)  -->
<svg version="1.1" id="icons" xmlns="http://www.w3.org/2000/svg" xmlns:xlink="http://www.w3.org/1999/xlink" x="0px" y="0px"
	 viewBox="0 0 20 20" style="enable-background:new 0 0 20 20;" xml:space="preserve">
<g>
	<path d="M7.9,12.5H6c-2.1,0-4,1.5-4.5,3.6c-0.1,0.4,0,0.8,0.2,1.2c0.2,0.3,0.5,0.5,0.9,0.6C3,18,4.8,18.5,7,18.5
		c2.2,0,3.9-0.5,4.2-0.6c0.4-0.1,0.7-0.3,0.9-0.6c0.2-0.3,0.3-0.8,0.2-1.2C11.9,14,10,12.5,7.9,12.5z M11.3,16.7
		c0,0-0.1,0.1-0.2,0.1l-0.1,0c0,0-1.7,0.6-3.9,0.6c-2.3,0-4.1-0.6-4.1-0.6l-0.1,0c-0.1,0-0.2-0.1-0.2-0.1c-0.1-0.1-0.1-0.2-0.1-0.3
		c0.4-1.6,1.8-2.8,3.4-2.8h2c1.6,0,3,1.1,3.4,2.8C11.3,16.5,11.3,16.6,11.3,16.7z"/>
	<path d="M6.9,11.4c1.5,0,2.7-1.2,2.7-2.7S8.4,6,6.9,6S4.2,7.2,4.2,8.7S5.4,11.4,6.9,11.4z M6.9,7c0.9,0,1.6,0.7,1.6,1.6
		s-0.7,1.6-1.6,1.6S5.3,9.6,5.3,8.7S6,7,6.9,7z"/>
	<path d="M17.2,4.6V3.8c0-1.3-1-2.3-2.2-2.3s-2.2,1-2.2,2.3v0.8c-0.8,0.2-1.3,0.8-1.3,1.6v2.6c0,0.9,0.8,1.7,1.7,1.7h3.8
		c0.9,0,1.7-0.8,1.7-1.7V6.2C18.5,5.4,18,4.7,17.2,4.6z M15,2.5c0.6,0,1.1,0.5,1.1,1.2v0.8h-2.2V3.8C13.9,3.1,14.4,2.5,15,2.5z
		 M17.5,8.8c0,0.3-0.3,0.6-0.6,0.6h-3.8c-0.3,0-0.6-0.3-0.6-0.6V6.2c0-0.3,0.3-0.6,0.6-0.6h3.8c0.3,0,0.6,0.3,0.6,0.6V8.8z"/>
</g>
</svg>
