<?xml version="1.0" encoding="utf-8"?>
<!-- Generator: Adobe Illustrator 27.4.1, SVG Export Plug-In . SVG Version: 6.00 Build 0)  -->
<svg version="1.1" id="icons" xmlns="http://www.w3.org/2000/svg" xmlns:xlink="http://www.w3.org/1999/xlink" x="0px" y="0px"
	 viewBox="0 0 20 20" style="enable-background:new 0 0 20 20;" xml:space="preserve">
<g>
	<path d="M17,11.7V10c0-1.2-1.1-2.2-2.4-2.2c-1.3,0-2.4,1-2.4,2.2v1.7c-0.9,0.1-1.6,0.9-1.6,1.8v3.2c0,1,0.8,1.9,1.9,1.9h4.2
		c1,0,1.9-0.8,1.9-1.9v-3.2C18.6,12.6,17.9,11.8,17,11.7z M14.6,8.8c0.7,0,1.3,0.5,1.3,1.1v1.7h-2.6V10C13.3,9.3,13.9,8.8,14.6,8.8z
		 M17.5,16.7c0,0.4-0.3,0.8-0.8,0.8h-4.2c-0.4,0-0.8-0.3-0.8-0.8v-3.2c0-0.4,0.3-0.8,0.8-0.8h4.2c0.4,0,0.8,0.3,0.8,0.8V16.7z"/>
	<path d="M3.1,1.5c-0.9,0-1.7,0.8-1.7,1.7v1.2C1.4,5.3,2.2,6,3.1,6c0.9,0,1.7-0.8,1.7-1.7V3.1C4.8,2.2,4.1,1.5,3.1,1.5z M3.7,4.4
		c0,0.3-0.3,0.6-0.6,0.6c-0.3,0-0.6-0.3-0.6-0.6V3.1c0-0.3,0.3-0.6,0.6-0.6c0.3,0,0.6,0.3,0.6,0.6V4.4z"/>
	<path d="M12.3,6C13.2,6,14,5.3,14,4.4V3.1c0-0.9-0.8-1.7-1.7-1.7s-1.7,0.8-1.7,1.7v1.2C10.6,5.3,11.3,6,12.3,6z M11.7,3.1
		c0-0.3,0.3-0.6,0.6-0.6s0.6,0.3,0.6,0.6v1.2c0,0.3-0.3,0.6-0.6,0.6s-0.6-0.3-0.6-0.6V3.1z"/>
	<path d="M8.2,1.5C8,1.5,7.8,1.5,7.6,1.6L6.7,2.3C6.4,2.5,6.4,2.8,6.5,3.1c0.2,0.2,0.5,0.3,0.8,0.1l0.1-0.1v2.3C7.4,5.8,7.6,6,7.9,6
		s0.5-0.2,0.5-0.5V2C8.5,1.8,8.4,1.6,8.2,1.5z"/>
	<path d="M16.7,3.2L16.7,3.2l0.1,2.3C16.8,5.8,17,6,17.3,6s0.5-0.2,0.5-0.5V2c0-0.2-0.1-0.4-0.3-0.5c-0.2-0.1-0.4-0.1-0.6,0L16,2.3
		c-0.2,0.2-0.3,0.5-0.1,0.8C16.1,3.3,16.5,3.4,16.7,3.2z"/>
	<path d="M3.1,7.7c-0.9,0-1.7,0.8-1.7,1.7v1.2c0,0.9,0.8,1.7,1.7,1.7c0.9,0,1.7-0.8,1.7-1.7V9.4C4.8,8.5,4.1,7.7,3.1,7.7z M3.7,10.6
		c0,0.3-0.3,0.6-0.6,0.6c-0.3,0-0.6-0.3-0.6-0.6V9.4c0-0.3,0.3-0.6,0.6-0.6c0.3,0,0.6,0.3,0.6,0.6V10.6z"/>
	<path d="M8.2,7.8C8,7.7,7.8,7.7,7.6,7.9L6.7,8.5C6.4,8.7,6.4,9.1,6.5,9.3c0.2,0.2,0.5,0.3,0.8,0.1l0.1-0.1v2.3
		c0,0.3,0.2,0.5,0.5,0.5s0.5-0.2,0.5-0.5V8.3C8.5,8.1,8.4,7.9,8.2,7.8z"/>
	<path d="M3.1,14c-0.9,0-1.7,0.8-1.7,1.7v1.2c0,0.9,0.8,1.7,1.7,1.7c0.9,0,1.7-0.8,1.7-1.7v-1.2C4.8,14.7,4.1,14,3.1,14z M3.7,16.9
		c0,0.3-0.3,0.6-0.6,0.6c-0.3,0-0.6-0.3-0.6-0.6v-1.2c0-0.3,0.3-0.6,0.6-0.6c0.3,0,0.6,0.3,0.6,0.6V16.9z"/>
	<path d="M8.2,14.1C8,14,7.8,14,7.6,14.1l-0.9,0.7c-0.2,0.2-0.3,0.5-0.1,0.8c0.2,0.2,0.5,0.3,0.8,0.1l0.1-0.1V18
		c0,0.3,0.2,0.5,0.5,0.5s0.5-0.2,0.5-0.5v-3.4C8.5,14.3,8.4,14.2,8.2,14.1z"/>
	<path d="M15.1,13.8H14c-0.3,0-0.5,0.2-0.5,0.5c0,0.3,0.2,0.5,0.5,0.5v0.9c0,0.3,0.2,0.5,0.5,0.5s0.5-0.2,0.5-0.5v-0.9
		c0.3,0,0.5-0.2,0.5-0.5C15.7,14.1,15.4,13.8,15.1,13.8z"/>
</g>
</svg>
