<?xml version="1.0" encoding="utf-8"?>
<!-- Generator: Adobe Illustrator 27.4.1, SVG Export Plug-In . SVG Version: 6.00 Build 0)  -->
<svg version="1.1" id="icons" xmlns="http://www.w3.org/2000/svg" xmlns:xlink="http://www.w3.org/1999/xlink" x="0px" y="0px"
	 viewBox="0 0 20 20" style="enable-background:new 0 0 20 20;" xml:space="preserve">
<g>
	<path d="M18.4,3.1c-0.2-0.2-0.6-0.2-0.8,0.1l-5.3,6.3l-2-2.1c-0.2-0.2-0.6-0.2-0.8,0C9.3,7.6,9.3,8,9.5,8.2l2.4,2.5
		c0.1,0.1,0.2,0.2,0.4,0.2c0,0,0,0,0,0c0.2,0,0.3-0.1,0.4-0.2l5.7-6.8C18.6,3.7,18.6,3.3,18.4,3.1z"/>
	<path d="M12.6,12.4c-0.3,0-0.5,0.2-0.5,0.5v2.4c0,0.7-0.5,1.3-1,1.3H5.2c-0.6,0-1-0.6-1-1.3V6.1h8.1c0.3,0,0.5-0.2,0.5-0.5
		S12.6,5,12.3,5h-1.4V3.9c0-0.9-0.8-1.7-1.7-1.7H6.9C6,2.3,5.3,3,5.3,3.9V5H2C1.7,5,1.5,5.2,1.5,5.5S1.7,6.1,2,6.1h1v9.2
		c0,1.3,1,2.4,2.1,2.4H11c1.2,0,2.1-1.1,2.1-2.4v-2.4C13.1,12.6,12.9,12.4,12.6,12.4z M6.4,3.9c0-0.3,0.3-0.6,0.6-0.6h2.3
		c0.3,0,0.6,0.3,0.6,0.6V5H6.4V3.9z"/>
	<path d="M6,9v5.1c0,0.3,0.2,0.5,0.5,0.5s0.5-0.2,0.5-0.5V9c0-0.3-0.2-0.5-0.5-0.5S6,8.7,6,9z"/>
	<path d="M9.6,14.6c0.3,0,0.5-0.2,0.5-0.5v-2.7c0-0.3-0.2-0.5-0.5-0.5s-0.5,0.2-0.5,0.5v2.7C9.1,14.4,9.3,14.6,9.6,14.6z"/>
</g>
</svg>
