<?xml version="1.0" encoding="utf-8"?>
<!-- Generator: Adobe Illustrator 27.4.1, SVG Export Plug-In . SVG Version: 6.00 Build 0)  -->
<svg version="1.1" id="icons" xmlns="http://www.w3.org/2000/svg" xmlns:xlink="http://www.w3.org/1999/xlink" x="0px" y="0px"
	 viewBox="0 0 20 20" style="enable-background:new 0 0 20 20;" xml:space="preserve">
<g>
	<path d="M18.5,5.7C18.5,5.7,18.5,5.7,18.5,5.7c0-0.2-0.1-0.3-0.1-0.3c0,0,0,0,0,0l-3.9-3.8c0,0,0,0,0,0l0,0c0,0,0,0,0,0
		c-0.1-0.1-0.1-0.1-0.2-0.1c0,0,0,0-0.1,0c0,0,0,0-0.1,0H5.4C5.1,1.5,4.9,1.7,4.9,2v2.9c0,0.3,0.2,0.5,0.5,0.5s0.5-0.2,0.5-0.5V2.5
		h7.6v3.3c0,0.3,0.2,0.5,0.5,0.5h3.3v11.1h-3.3c-0.3,0-0.5,0.2-0.5,0.5s0.2,0.5,0.5,0.5H18c0.3,0,0.5-0.2,0.5-0.5L18.5,5.7
		C18.5,5.8,18.5,5.8,18.5,5.7z M14.7,5.3V3.3l2,1.9H14.7z"/>
	<path d="M14.1,9.6c0.3,0,0.5-0.2,0.5-0.5s-0.2-0.5-0.5-0.5H9.5c-0.3,0-0.5,0.2-0.5,0.5s0.2,0.5,0.5,0.5H14.1z"/>
	<path d="M14.1,12.6c0.3,0,0.5-0.2,0.5-0.5s-0.2-0.5-0.5-0.5H10c0,0,0,0-0.1,0C9.1,11.2,8.2,11,7.6,11V8.1c0-0.8-0.6-1.4-1.4-1.4
		C5.4,6.7,4.8,7.3,4.8,8l-0.2,4.6L3.9,12c-0.5-0.5-1.4-0.5-2,0c-0.3,0.3-0.4,0.6-0.4,1c0,0.4,0.1,0.7,0.4,0.9
		C2.5,14.9,4,17,4.4,17.3c0.9,0.8,2.6,1.2,4.8,1.2c2,0,3.1-1.3,3.1-2.6v-2.2c0-0.4-0.2-0.8-0.5-1.1H14.1z M11.2,15.9
		c0,0.9-0.8,1.6-2.1,1.6c-2.6,0-3.8-0.6-4.2-1c-0.2-0.2-1.3-1.8-2.3-3.2c0,0,0-0.1-0.1-0.1c-0.1-0.1-0.1-0.2-0.1-0.3s0-0.2,0.1-0.3
		c0.1-0.1,0.2-0.1,0.3-0.1c0.1,0,0.2,0,0.3,0.1l1.4,1.3c0.1,0.1,0.3,0.2,0.5,0.1c0.2-0.1,0.3-0.2,0.3-0.4l0.3-5.7
		c0-0.2,0.2-0.4,0.4-0.4c0.2,0,0.4,0.2,0.4,0.4v3.3c0,0.3,0.2,0.5,0.4,0.5c0.8,0.1,1.8,0.3,2.6,0.6c0.1,0,0.1,0.1,0.2,0.1
		c0.8,0.3,1.3,0.7,1.3,1.1V15.9z"/>
</g>
</svg>
