<?xml version="1.0" encoding="utf-8"?>
<!-- Generator: Adobe Illustrator 27.4.1, SVG Export Plug-In . SVG Version: 6.00 Build 0)  -->
<svg version="1.1" id="icons" xmlns="http://www.w3.org/2000/svg" xmlns:xlink="http://www.w3.org/1999/xlink" x="0px" y="0px"
	 viewBox="0 0 20 20" style="enable-background:new 0 0 20 20;" xml:space="preserve">
<g>
	<path d="M16.8,5.7C16.8,5.7,16.8,5.7,16.8,5.7c0-0.2-0.1-0.3-0.1-0.3c0,0,0,0,0,0l-3.9-3.8c0,0,0,0,0,0l0,0c0,0,0,0,0,0
		c-0.1-0.1-0.1-0.1-0.2-0.1c0,0,0,0-0.1,0c0,0,0,0-0.1,0H3.7C3.4,1.5,3.2,1.7,3.2,2v16c0,0.3,0.2,0.5,0.5,0.5h12.6
		c0.3,0,0.5-0.2,0.5-0.5L16.8,5.7C16.8,5.8,16.8,5.8,16.8,5.7z M13,3.3l2,1.9h-2V3.3z M4.2,17.5V2.5h7.6v3.3c0,0.3,0.2,0.5,0.5,0.5
		h3.3v11.1H4.2z"/>
	<path d="M12.9,9.7H7.1c-0.3,0-0.5,0.2-0.5,0.5s0.2,0.5,0.5,0.5h5.8c0.3,0,0.5-0.2,0.5-0.5S13.2,9.7,12.9,9.7z"/>
	<path d="M12.9,12.7H7.1c-0.3,0-0.5,0.2-0.5,0.5s0.2,0.5,0.5,0.5h5.8c0.3,0,0.5-0.2,0.5-0.5S13.2,12.7,12.9,12.7z"/>
</g>
</svg>
