<?xml version="1.0" encoding="utf-8"?>
<!-- Generator: Adobe Illustrator 27.4.1, SVG Export Plug-In . SVG Version: 6.00 Build 0)  -->
<svg version="1.1" id="icons" xmlns="http://www.w3.org/2000/svg" xmlns:xlink="http://www.w3.org/1999/xlink" x="0px" y="0px"
	 viewBox="0 0 20 20" style="enable-background:new 0 0 20 20;" xml:space="preserve">
<g>
	<path d="M12,12.1c-0.3,0-0.5,0.2-0.5,0.5v5c0,0.3,0.2,0.5,0.5,0.5s0.5-0.2,0.5-0.5v-5C12.5,12.4,12.3,12.1,12,12.1z"/>
	<path d="M18,12.1h-3.8c-0.3,0-0.5,0.2-0.5,0.5s0.2,0.5,0.5,0.5h1.4v4.4c0,0.3,0.2,0.5,0.5,0.5s0.5-0.2,0.5-0.5v-4.4H18
		c0.3,0,0.5-0.2,0.5-0.5S18.3,12.1,18,12.1z"/>
	<path d="M13.9,9.2c0.4-1.8,0.7-3.8,0.8-5.2c0.1-0.9-0.5-1.7-1.3-2c-1.4-0.4-3.4-1-5.3-1c-1.8,0-3.9,0.5-5.3,1
		C1.9,2.3,1.4,3.1,1.5,4C1.6,5.7,2,8.7,2.7,10.8c1,2.6,3.1,4.1,4.3,4.8c0.1,0,0.2,0.1,0.3,0.1c0.2,0,0.4-0.1,0.5-0.3
		c0.2-0.3,0.1-0.6-0.2-0.8c-1.1-0.6-3-2-3.8-4.2C3.5,9.7,3.3,8.8,3.1,8l4.5,0.7v2.6c0,0.3,0.2,0.5,0.5,0.5s0.5-0.2,0.5-0.5V8.7L13,8
		c-0.1,0.3-0.1,0.7-0.2,1c-0.1,0.3,0.1,0.6,0.4,0.7C13.5,9.7,13.8,9.5,13.9,9.2z M2.9,7c-0.2-1.2-0.3-2.3-0.4-3
		c0-0.4,0.2-0.7,0.6-0.8c1-0.3,2.8-0.8,4.4-0.9v5.5L2.9,7z M8.5,7.7V2.2C10.2,2.3,12,2.8,13,3.1c0.4,0.1,0.6,0.5,0.6,0.8
		c-0.1,0.8-0.2,1.9-0.4,3L8.5,7.7z"/>
</g>
</svg>
