<?xml version="1.0" encoding="utf-8"?>
<!-- Generator: Adobe Illustrator 27.4.1, SVG Export Plug-In . SVG Version: 6.00 Build 0)  -->
<svg version="1.1" id="icons" xmlns="http://www.w3.org/2000/svg" xmlns:xlink="http://www.w3.org/1999/xlink" x="0px" y="0px"
	 viewBox="0 0 20 20" style="enable-background:new 0 0 20 20;" xml:space="preserve">
<g>
	<path d="M13.4,8.5L13.4,8.5c0.3,0,0.6-0.2,0.6-0.4c0.3-1.4,0.4-2.8,0.5-3.7c0.1-0.9-0.5-1.7-1.3-2c-1.4-0.4-3.4-1-5.2-1
		c-1.8,0-3.8,0.5-5.2,1c-0.9,0.3-1.4,1.1-1.3,2C1.6,6,2,9,2.7,11.1c1,2.6,3.1,4.1,4.3,4.8C7.1,16,7.2,16,7.3,16
		c0.2,0,0.4-0.1,0.5-0.3c0.2-0.3,0.1-0.6-0.2-0.8c-1.1-0.6-3-2-3.8-4.2c-0.2-0.6-0.4-1.4-0.6-2.2l4.3,0.7v2.4c0,0.3,0.2,0.5,0.5,0.5
		s0.5-0.2,0.5-0.5V9.3L13.4,8.5z M13.4,4.3c-0.1,0.8-0.2,1.9-0.4,3.2L8.5,8.2V2.6c1.6,0.1,3.4,0.6,4.3,0.9
		C13.2,3.6,13.5,3.9,13.4,4.3z M2.9,7.4C2.7,6.2,2.6,5.1,2.6,4.3c0-0.4,0.2-0.7,0.6-0.8c1-0.3,2.7-0.8,4.3-0.9v5.6L2.9,7.4z"/>
	<path d="M13.3,13c-0.2-0.2-0.6-0.2-0.8,0s-0.2,0.6,0,0.8l1.4,1.5c0.1,0.1,0.2,0.2,0.4,0.2c0,0,0,0,0,0c0.2,0,0.3-0.1,0.4-0.2
		l3.7-4.4c0.2-0.2,0.2-0.6-0.1-0.8c-0.2-0.2-0.6-0.2-0.8,0.1L14.3,14L13.3,13z"/>
	<path d="M18,13.7c-0.3,0-0.5,0.2-0.5,0.5c0,1.8-1.4,3.2-3.2,3.2S11,16,11,14.3s1.4-3.2,3.2-3.2c0.3,0,0.5-0.2,0.5-0.5
		S14.6,10,14.2,10c-2.4,0-4.3,1.9-4.3,4.3s1.9,4.3,4.3,4.3s4.3-1.9,4.3-4.3C18.5,13.9,18.3,13.7,18,13.7z"/>
</g>
</svg>
