<?xml version="1.0" encoding="utf-8"?>
<!-- Generator: Adobe Illustrator 27.4.1, SVG Export Plug-In . SVG Version: 6.00 Build 0)  -->
<svg version="1.1" id="icons" xmlns="http://www.w3.org/2000/svg" xmlns:xlink="http://www.w3.org/1999/xlink" x="0px" y="0px"
	 viewBox="0 0 20 20" style="enable-background:new 0 0 20 20;" xml:space="preserve">
<g>
	<path d="M13.4,1.5c-2.8,0-5.1,2.3-5.1,5.1s2.3,5.1,5.1,5.1c2.8,0,5.1-2.3,5.1-5.1S16.2,1.5,13.4,1.5z M13.4,10.7
		c-2.3,0-4.1-1.8-4.1-4.1s1.8-4.1,4.1-4.1s4.1,1.8,4.1,4.1S15.7,10.7,13.4,10.7z"/>
	<path d="M13.4,5.9c-0.3,0-0.5,0.2-0.5,0.5v2.4c0,0.3,0.2,0.5,0.5,0.5s0.5-0.2,0.5-0.5V6.5C13.9,6.2,13.7,5.9,13.4,5.9z"/>
	<path d="M13.4,3.8c-0.4,0-0.7,0.3-0.7,0.7c0,0.4,0.3,0.6,0.7,0.6c0.4,0,0.6-0.3,0.6-0.6C14,4.1,13.7,3.8,13.4,3.8z"/>
	<path d="M12,14.4c-0.3,0-0.5,0.2-0.5,0.5V16c-0.5,0.7-2.2,1.4-4.4,1.4c-2.3,0-4.1-0.7-4.5-1.4v-1.8c1,0.7,2.6,1.1,4.5,1.1
		c0.6,0,1.1,0,1.6-0.1c0.3,0,0.5-0.3,0.5-0.6c0-0.3-0.3-0.5-0.6-0.5c-0.5,0.1-1,0.1-1.5,0.1c-2.3,0-4-0.7-4.5-1.5v-1.8
		c1,0.7,2.6,1.1,4.5,1.1c0.3,0,0.5-0.2,0.5-0.5S7.3,11,7,11c-2.5,0-4.5-1-4.5-1.8c0-0.7,1.4-1.6,3.7-1.8c0.3,0,0.5-0.3,0.5-0.6
		c0-0.3-0.3-0.5-0.6-0.5C3.4,6.5,1.5,7.7,1.5,9.2v3.7c0,0,0,0,0,0v3.3c0,0.1,0,0.2,0.1,0.2c0.6,1.3,2.9,2.2,5.6,2.2
		c2.6,0,4.8-0.9,5.4-2.2c0-0.1,0.1-0.2,0.1-0.2v-1.2C12.5,14.6,12.3,14.4,12,14.4z"/>
</g>
</svg>
