<?xml version="1.0" encoding="utf-8"?>
<!-- Generator: Adobe Illustrator 27.4.1, SVG Export Plug-In . SVG Version: 6.00 Build 0)  -->
<svg version="1.1" id="icons" xmlns="http://www.w3.org/2000/svg" xmlns:xlink="http://www.w3.org/1999/xlink" x="0px" y="0px"
	 viewBox="0 0 20 20" style="enable-background:new 0 0 20 20;" xml:space="preserve">
<g>
	<path d="M12,11.9c-0.3,0-0.5,0.2-0.5,0.5V16c-0.5,0.7-2.2,1.4-4.4,1.4c-2.3,0-4.1-0.7-4.5-1.4v-1.8c1,0.7,2.6,1.1,4.5,1.1
		c0.6,0,1.1,0,1.6-0.1c0.3,0,0.5-0.3,0.5-0.6c0-0.3-0.3-0.5-0.6-0.5c-0.5,0.1-1,0.1-1.5,0.1c-2.3,0-4-0.7-4.5-1.5v-1.8
		c1,0.7,2.6,1.1,4.5,1.1c0.3,0,0.5-0.2,0.5-0.5S7.3,11,7,11c-2.5,0-4.5-1-4.5-1.8c0-0.9,1.9-1.8,4.5-1.8c0.2,0,0.5,0,0.7,0
		c0.3,0,0.6-0.2,0.6-0.5c0-0.3-0.2-0.6-0.5-0.6c-0.3,0-0.5,0-0.8,0c-3.2,0-5.5,1.2-5.5,2.9v3.7c0,0,0,0,0,0v3.3c0,0.1,0,0.2,0.1,0.2
		c0.6,1.3,2.9,2.2,5.6,2.2c2.6,0,4.8-0.9,5.4-2.2c0-0.1,0.1-0.2,0.1-0.2v-3.7C12.5,12.1,12.3,11.9,12,11.9z"/>
	<path d="M18.2,2.7l-0.9-0.9c-0.5-0.5-1.2-0.5-1.7,0l-1.1,1.1c0,0,0,0,0,0L11,6.4c0,0,0,0,0,0c0,0,0,0.1-0.1,0.1c0,0,0,0.1-0.1,0.1
		c0,0,0,0,0,0L9.8,9.5c-0.1,0.2,0,0.4,0.1,0.6c0.1,0.1,0.2,0.2,0.4,0.2c0.1,0,0.1,0,0.2,0l2.9-1.1c0,0,0,0,0,0c0,0,0.1,0,0.1-0.1
		c0,0,0.1,0,0.1-0.1c0,0,0,0,0,0l3.5-3.5c0,0,0,0,0,0l1.1-1.1C18.7,3.9,18.7,3.2,18.2,2.7z M12.9,8.1l-1.7,0.6l0.6-1.7L14.9,4
		L16,5.1L12.9,8.1z M17.4,3.6l-0.7,0.7l-0.5-0.5l-0.5-0.5l0.7-0.7c0,0,0.1,0,0.1,0c0,0,0,0,0,0l0.9,0.9C17.5,3.5,17.5,3.6,17.4,3.6z
		"/>
</g>
</svg>
