<?xml version="1.0" encoding="utf-8"?>
<!-- Generator: Adobe Illustrator 27.4.1, SVG Export Plug-In . SVG Version: 6.00 Build 0)  -->
<svg version="1.1" id="icons" xmlns="http://www.w3.org/2000/svg" xmlns:xlink="http://www.w3.org/1999/xlink" x="0px" y="0px"
	 viewBox="0 0 20 20" style="enable-background:new 0 0 20 20;" xml:space="preserve">
<g>
	<path d="M13.4,1.5c-2.8,0-5.2,2.3-5.2,5.2s2.3,5.2,5.2,5.2s5.2-2.3,5.2-5.2S16.2,1.5,13.4,1.5z M13.4,2.5c0.9,0,1.8,0.3,2.4,0.8
		l-5.7,5.7C9.7,8.4,9.3,7.5,9.3,6.6C9.3,4.4,11.2,2.5,13.4,2.5z M13.4,10.7c-0.9,0-1.8-0.3-2.4-0.8l5.7-5.7c0.5,0.7,0.8,1.5,0.8,2.4
		C17.5,8.8,15.6,10.7,13.4,10.7z"/>
	<path d="M12,14.4c-0.3,0-0.5,0.2-0.5,0.5V16c-0.5,0.7-2.2,1.4-4.4,1.4c-2.3,0-4.1-0.7-4.5-1.4v-1.8c1,0.7,2.6,1.1,4.5,1.1
		c0.6,0,1.1,0,1.6-0.1c0.3,0,0.5-0.3,0.5-0.6c0-0.3-0.3-0.5-0.6-0.5c-0.5,0.1-1,0.1-1.5,0.1c-2.3,0-4-0.7-4.5-1.5v-1.8
		c1,0.7,2.6,1.1,4.5,1.1c0.3,0,0.5-0.2,0.5-0.5S7.3,11,7,11c-2.5,0-4.5-1-4.5-1.8c0-0.7,1.4-1.6,3.7-1.8c0.3,0,0.5-0.3,0.5-0.6
		c0-0.3-0.3-0.5-0.6-0.5C3.4,6.5,1.5,7.7,1.5,9.2v3.7c0,0,0,0,0,0v3.3c0,0.1,0,0.2,0.1,0.2c0.6,1.3,2.9,2.2,5.6,2.2
		c2.6,0,4.8-0.9,5.4-2.2c0-0.1,0.1-0.2,0.1-0.2v-1.2C12.5,14.6,12.3,14.4,12,14.4z"/>
</g>
</svg>
