<?xml version="1.0" encoding="utf-8"?>
<!-- Generator: Adobe Illustrator 27.4.1, SVG Export Plug-In . SVG Version: 6.00 Build 0)  -->
<svg version="1.1" id="icons" xmlns="http://www.w3.org/2000/svg" xmlns:xlink="http://www.w3.org/1999/xlink" x="0px" y="0px"
	 viewBox="0 0 20 20" style="enable-background:new 0 0 20 20;" xml:space="preserve">
<g>
	<path d="M14,9.5H6c-2.5,0-4.5,2-4.5,4.5s2,4.5,4.5,4.5h8c2.5,0,4.5-2,4.5-4.5S16.5,9.5,14,9.5z M14,17.5H6c-1.9,0-3.5-1.5-3.5-3.5
		s1.5-3.5,3.5-3.5h8c1.9,0,3.5,1.5,3.5,3.5S15.9,17.5,14,17.5z"/>
	<path d="M6.1,11.8C5,11.8,4,12.8,4,14s1,2.2,2.1,2.2c1.2,0,2.2-1,2.2-2.2S7.3,11.8,6.1,11.8z"/>
	<circle cx="7.1" cy="4.7" r="0.6"/>
	<circle cx="4.9" cy="4.7" r="0.6"/>
	<path d="M9.4,5.3h5l-1.8,1.8c-0.2,0.2-0.2,0.6,0,0.8C12.7,7.9,12.8,8,13,8c0.1,0,0.3-0.1,0.4-0.2L16,5.1c0,0,0,0,0,0l0,0
		c0,0,0,0,0-0.1c0,0,0.1-0.1,0.1-0.1c0.1-0.2,0-0.4-0.1-0.6l-2.7-2.7c-0.2-0.2-0.6-0.2-0.8,0c-0.2,0.2-0.2,0.6,0,0.8l1.8,1.8h-5
		c-0.3,0-0.5,0.2-0.5,0.5S9.1,5.3,9.4,5.3z"/>
</g>
</svg>
