<?xml version="1.0" encoding="utf-8"?>
<!-- Generator: Adobe Illustrator 27.4.1, SVG Export Plug-In . SVG Version: 6.00 Build 0)  -->
<svg version="1.1" id="icons" xmlns="http://www.w3.org/2000/svg" xmlns:xlink="http://www.w3.org/1999/xlink" x="0px" y="0px"
	 viewBox="0 0 20 20" style="enable-background:new 0 0 20 20;" xml:space="preserve">
<g>
	<path d="M14,9.5H6c-2.5,0-4.5,2-4.5,4.5s2,4.5,4.5,4.5h8c2.5,0,4.5-2,4.5-4.5S16.5,9.5,14,9.5z M14,17.5H6c-1.9,0-3.5-1.5-3.5-3.5
		s1.5-3.5,3.5-3.5h8c1.9,0,3.5,1.5,3.5,3.5S15.9,17.5,14,17.5z"/>
	<path d="M13.9,11.8c-1.2,0-2.2,1-2.2,2.2s1,2.2,2.2,2.2c1.2,0,2.1-1,2.1-2.2S15,11.8,13.9,11.8z"/>
	<circle cx="12.9" cy="4.7" r="0.6"/>
	<circle cx="15.1" cy="4.7" r="0.6"/>
	<path d="M3.9,5.1l2.7,2.7C6.7,7.9,6.9,8,7,8c0.1,0,0.3-0.1,0.4-0.2c0.2-0.2,0.2-0.6,0-0.8L5.7,5.3h5c0.3,0,0.5-0.2,0.5-0.5
		s-0.2-0.5-0.5-0.5h-5l1.8-1.8c0.2-0.2,0.2-0.6,0-0.8c-0.2-0.2-0.6-0.2-0.8,0L4,4.3c0,0,0,0,0,0l0,0c0,0,0,0,0,0.1
		c0,0-0.1,0.1-0.1,0.1C3.8,4.7,3.8,5,3.9,5.1z"/>
</g>
</svg>
