<?xml version="1.0" encoding="utf-8"?>
<!-- Generator: Adobe Illustrator 27.4.1, SVG Export Plug-In . SVG Version: 6.00 Build 0)  -->
<svg version="1.1" id="icons" xmlns="http://www.w3.org/2000/svg" xmlns:xlink="http://www.w3.org/1999/xlink" x="0px" y="0px"
	 viewBox="0 0 20 20" style="enable-background:new 0 0 20 20;" xml:space="preserve">
<path d="M17.1,4.5l-8.3-3c-0.2-0.1-0.4,0-0.5,0.1C8.2,1.7,8.1,1.8,8.1,2v5.6v0.3V12c-3.2,0.2-5.6,1.5-5.6,3.3c0,1.9,2.7,3.3,6.4,3.3
	c3.6,0,6.4-1.4,6.4-3.3c0-1.8-2.6-3.2-6.1-3.3V8.3l7.9-2.8c0.2-0.1,0.4-0.3,0.4-0.5S17.3,4.6,17.1,4.5z M14.2,15.3
	c0,1-2.2,2.2-5.3,2.2s-5.3-1.2-5.3-2.2c0-0.9,1.8-2,4.5-2.2v1.8c0,0.3,0.2,0.5,0.5,0.5s0.5-0.2,0.5-0.5v-1.8
	C12.1,13.1,14.2,14.3,14.2,15.3z M9.2,7.1V2.8L15.3,5L9.2,7.1z"/>
</svg>
