<?xml version="1.0" encoding="utf-8"?>
<!-- Generator: Adobe Illustrator 27.4.1, SVG Export Plug-In . SVG Version: 6.00 Build 0)  -->
<svg version="1.1" id="icons" xmlns="http://www.w3.org/2000/svg" xmlns:xlink="http://www.w3.org/1999/xlink" x="0px" y="0px"
	 viewBox="0 0 20 20" style="enable-background:new 0 0 20 20;" xml:space="preserve">
<g>
	<path d="M4,13c-0.9,0.2-1.5,0.9-1.7,1.7l-0.9,3.2c-0.1,0.2,0,0.4,0.1,0.5c0.1,0.1,0.2,0.2,0.4,0.2c0,0,0.1,0,0.1,0l3.2-0.8
		C6.2,17.5,6.8,16.8,7,16s0-1.7-0.6-2.4C5.8,13,4.9,12.7,4,13z M6,15.7c-0.1,0.5-0.5,0.8-1,1l-2.3,0.6L3.4,15c0.1-0.5,0.5-0.8,1-1
		c0.1,0,0.2,0,0.4,0c0.4,0,0.7,0.1,0.9,0.4C6,14.7,6.1,15.2,6,15.7z"/>
	<path d="M14.1,4c-1.1,0-2,0.9-2,1.9c0,1.1,0.9,1.9,2,1.9S16,7,16,5.9C16,4.9,15.1,4,14.1,4z M14.1,6.8c-0.5,0-0.9-0.4-0.9-0.9
		c0-0.5,0.4-0.8,0.9-0.8s0.8,0.4,0.8,0.8C14.9,6.4,14.5,6.8,14.1,6.8z"/>
	<path d="M18.4,2.7c0-0.3-0.1-0.5-0.4-0.8c-0.2-0.2-0.5-0.3-0.7-0.3c-2.7-0.3-4.7-0.1-6.6,1.8L9.8,4.2L8,4.1C7.1,4,6.2,4.3,5.6,4.9
		L1.7,8.8C1.5,9,1.5,9.2,1.5,9.4C1.6,9.6,1.8,9.7,2,9.7l4.4,0.6L8,12c0,0,0,0,0,0l1.7,1.7l0.6,4.4c0,0.2,0.2,0.4,0.4,0.5
		c0.1,0,0.1,0,0.2,0c0.1,0,0.3-0.1,0.4-0.2l3.9-3.9c0.6-0.6,0.9-1.5,0.9-2.4l-0.2-1.8l0.9-0.9C18.6,7.4,18.7,5.3,18.4,2.7z
		 M14.8,9.6c-0.1,0.1-0.2,0.3-0.2,0.4l0.2,2.1c0.1,0.6-0.1,1.1-0.5,1.5l-3.1,3.1l-0.4-3.5c0-0.1-0.1-0.2-0.2-0.3l-1.4-1.4l1.7-1.7
		c0.2-0.2,0.2-0.6,0-0.8c-0.2-0.2-0.6-0.2-0.8,0l-1.7,1.7L7,9.4C6.9,9.3,6.8,9.3,6.7,9.2L3.2,8.8l3.1-3.1c0.4-0.4,1-0.6,1.5-0.5
		L10,5.4c0.2,0,0.3,0,0.4-0.2l1.1-1.1c1.6-1.6,3.3-1.8,5.7-1.5c0.1,0,0.1,0,0.1,0c0,0,0,0.1,0.1,0.1c0.3,2.4,0.1,4.1-1.5,5.7
		L14.8,9.6z"/>
</g>
</svg>
