<?xml version="1.0" encoding="utf-8"?>
<!-- Generator: Adobe Illustrator 27.4.1, SVG Export Plug-In . SVG Version: 6.00 Build 0)  -->
<svg version="1.1" id="icons" xmlns="http://www.w3.org/2000/svg" xmlns:xlink="http://www.w3.org/1999/xlink" x="0px" y="0px"
	 viewBox="0 0 20 20" style="enable-background:new 0 0 20 20;" xml:space="preserve">
<g>
	<path d="M18.4,4.2l-2.6-2.6c-0.2-0.2-0.6-0.2-0.8,0l-2.6,2.6c-0.2,0.2-0.2,0.6,0,0.8s0.6,0.2,0.8,0l1.7-1.7v5.9
		c0,0.3,0.2,0.5,0.5,0.5S16,9.5,16,9.2V3.3L17.6,5c0.1,0.1,0.2,0.2,0.4,0.2c0.1,0,0.3-0.1,0.4-0.2C18.6,4.7,18.6,4.4,18.4,4.2z"/>
	<path d="M15.4,11.9c-0.3,0-0.6,0.1-0.6,0.4c-0.5,2.9-3.1,5.1-6.1,5.1c-3.4,0-6.2-2.8-6.2-6.2c0-3.4,2.8-6.2,6.2-6.2
		c0.3,0,0.5-0.2,0.5-0.5S9,4,8.7,4c-4,0-7.3,3.3-7.3,7.3c0,4,3.3,7.3,7.3,7.3c3.5,0,6.5-2.5,7.1-6C15.9,12.3,15.7,12,15.4,11.9z"/>
	<path d="M8.7,14.7c-1.4,0-2.7-0.9-3.3-2.2C5.3,12.2,5,12,4.7,12.2c-0.3,0.1-0.4,0.5-0.3,0.7c0.8,1.7,2.5,2.9,4.3,2.9
		c1.8,0,3.5-1.1,4.3-2.9c0.1-0.3,0-0.6-0.3-0.7c-0.3-0.1-0.6,0-0.7,0.3C11.4,13.8,10.1,14.7,8.7,14.7z"/>
	<path d="M7.4,9.7c0-0.5-0.4-0.9-0.9-0.9S5.6,9.2,5.6,9.7c0,0.5,0.4,0.9,0.9,0.9S7.4,10.2,7.4,9.7z"/>
	<path d="M10.9,10.6c0.5,0,0.9-0.4,0.9-0.9c0-0.5-0.4-0.9-0.9-0.9c-0.5,0-0.9,0.4-0.9,0.9C10,10.2,10.4,10.6,10.9,10.6z"/>
</g>
</svg>
