<?xml version="1.0" encoding="utf-8"?>
<!-- Generator: Adobe Illustrator 27.4.1, SVG Export Plug-In . SVG Version: 6.00 Build 0)  -->
<svg version="1.1" id="icons" xmlns="http://www.w3.org/2000/svg" xmlns:xlink="http://www.w3.org/1999/xlink" x="0px" y="0px"
	 viewBox="0 0 20 20" style="enable-background:new 0 0 20 20;" xml:space="preserve">
<g>
	<path d="M13.1,9.6H8.9l0.5-1.2C10,7,9.6,5.7,8.4,5.1C8.1,4.9,7.7,4.9,7.4,5C7,5.1,6.7,5.4,6.6,5.7c-0.1,0.1-1.2,2-2,3.5
		C4.2,9,3.8,8.9,3.4,8.9c-0.8,0-2,0.4-2,1.2v7.1c0,0.7,0.6,1.2,1.2,1.2h1h0.5h7.1c1.9,0,3-0.9,3.6-2.9l0.1-0.3
		c0.3-1.1,0.6-2.3,0.6-3.4C15.5,10.7,14.5,9.6,13.1,9.6z M3.7,17.5h-1c-0.1,0-0.1-0.1-0.1-0.1v-7C2.7,10.2,3,10,3.4,10
		c0.4,0,0.7,0.2,0.8,0.2c0,0,0,0.1,0,0.1v7c0,0.1-0.1,0.1-0.1,0.1H3.7z M13.8,15.1l-0.1,0.3c-0.4,1.5-1.1,2-2.5,2H5.4
		c0-0.1,0-0.1,0-0.1v-7c0-0.1,0-0.2-0.1-0.3c0.8-1.5,2.1-3.6,2.2-3.7c0-0.1,0.1-0.1,0.2-0.2c0.1,0,0.2,0,0.2,0
		c0.9,0.5,0.5,1.8,0.4,2L7.6,10c-0.1,0.2-0.1,0.4,0.1,0.5c0.1,0.2,0.3,0.2,0.5,0.2h5c0.7,0,1.3,0.6,1.3,1.3
		C14.5,12.9,14.1,14.1,13.8,15.1z"/>
	<path d="M18.4,4.2l-2.6-2.6c-0.2-0.2-0.6-0.2-0.8,0l-2.6,2.6c-0.2,0.2-0.2,0.6,0,0.8s0.6,0.2,0.8,0l1.7-1.7v4.9
		c0,0.3,0.2,0.5,0.5,0.5S16,8.5,16,8.2V3.3L17.6,5c0.1,0.1,0.2,0.2,0.4,0.2c0.1,0,0.3-0.1,0.4-0.2C18.6,4.7,18.6,4.4,18.4,4.2z"/>
</g>
</svg>
