<?xml version="1.0" encoding="utf-8"?>
<!-- Generator: Adobe Illustrator 27.4.1, SVG Export Plug-In . SVG Version: 6.00 Build 0)  -->
<svg version="1.1" id="icons" xmlns="http://www.w3.org/2000/svg" xmlns:xlink="http://www.w3.org/1999/xlink" x="0px" y="0px"
	 viewBox="0 0 20 20" style="enable-background:new 0 0 20 20;" xml:space="preserve">
<g>
	<path d="M15.6,1.5H4.4c-1.6,0-2.9,1.3-2.9,2.9v7.3c0,1.6,1.3,2.9,2.9,2.9h9.6l3.7,3.8c0.1,0.1,0.2,0.2,0.4,0.2c0.1,0,0.1,0,0.2,0
		c0.2-0.1,0.3-0.3,0.3-0.5V4.4C18.5,2.8,17.2,1.5,15.6,1.5z M17.5,16.6l-2.9-3c-0.1-0.1-0.2-0.2-0.4-0.2H4.4c-1,0-1.8-0.8-1.8-1.8
		V4.4c0-1,0.8-1.8,1.8-1.8h11.3c1,0,1.8,0.8,1.8,1.8V16.6z"/>
	<path d="M14.2,6h-8C5.9,6,5.6,6.2,5.6,6.5s0.2,0.5,0.5,0.5h8c0.3,0,0.5-0.2,0.5-0.5S14.5,6,14.2,6z"/>
	<path d="M12.2,9h-6C5.9,9,5.6,9.2,5.6,9.5s0.2,0.5,0.5,0.5h6c0.3,0,0.5-0.2,0.5-0.5S12.5,9,12.2,9z"/>
</g>
</svg>
