<?xml version="1.0" encoding="utf-8"?>
<!-- Generator: Adobe Illustrator 27.4.1, SVG Export Plug-In . SVG Version: 6.00 Build 0)  -->
<svg version="1.1" id="icons" xmlns="http://www.w3.org/2000/svg" xmlns:xlink="http://www.w3.org/1999/xlink" x="0px" y="0px"
	 viewBox="0 0 20 20" style="enable-background:new 0 0 20 20;" xml:space="preserve">
<g>
	<path d="M16.5,7.5h-4v-4c0-1.1-0.9-2-2-2h-7c-1.1,0-2,0.9-2,2V12c0,0.2,0.1,0.4,0.3,0.5c0.1,0,0.1,0,0.2,0c0.1,0,0.3-0.1,0.4-0.2
		L4.6,10h2.8v4c0,1.1,0.9,2,2,2h5.9l2.2,2.3c0.1,0.1,0.2,0.2,0.4,0.2c0.1,0,0.1,0,0.2,0c0.2-0.1,0.3-0.3,0.3-0.5V9.5
		C18.5,8.4,17.6,7.5,16.5,7.5z M4.4,9C4.2,9,4.1,9,4,9.1l-1.4,1.5V3.5C2.5,3,3,2.5,3.5,2.5h7c0.5,0,0.9,0.4,0.9,0.9v4h-2
		C8.5,7.5,7.8,8.1,7.5,9H4.4z M17.5,16.6L16,15.1C15.9,15,15.8,15,15.6,15H9.5C9,15,8.5,14.5,8.5,14V9.5C8.5,9,9,8.5,9.5,8.5h7
		c0.5,0,0.9,0.4,0.9,0.9V16.6z"/>
	<path d="M14.6,9.7l-2.3,2.8l-0.9-0.7c-0.2-0.2-0.6-0.1-0.8,0.1c-0.2,0.2-0.1,0.6,0.1,0.8l1.4,1c0.1,0.1,0.2,0.1,0.3,0.1
		c0.2,0,0.3-0.1,0.4-0.2l2.6-3.2c0.2-0.2,0.2-0.6-0.1-0.8S14.8,9.4,14.6,9.7z"/>
</g>
</svg>
