<?xml version="1.0" encoding="utf-8"?>
<!-- Generator: Adobe Illustrator 27.4.1, SVG Export Plug-In . SVG Version: 6.00 Build 0)  -->
<svg version="1.1" id="icons" xmlns="http://www.w3.org/2000/svg" xmlns:xlink="http://www.w3.org/1999/xlink" x="0px" y="0px"
	 viewBox="0 0 20 20" style="enable-background:new 0 0 20 20;" xml:space="preserve">
<g>
	<path d="M18.5,16.4c-0.4-1.9-2-3.2-3.9-3.2h-1.7c-1.9,0-3.5,1.3-3.9,3.2c-0.1,0.4,0,0.8,0.2,1.1c0.2,0.3,0.5,0.5,0.8,0.5
		c0.3,0.1,1.7,0.5,3.6,0.5c1.9,0,3.5-0.5,3.8-0.5c0.3-0.1,0.6-0.2,0.8-0.5C18.5,17.2,18.6,16.8,18.5,16.4z M17.4,16.8
		c0,0-0.1,0.1-0.1,0.1l-0.1,0c0,0-1.6,0.5-3.5,0.5c-1.9,0-3.3-0.5-3.3-0.5l-0.1,0c-0.1,0-0.1,0-0.1-0.1c0-0.1,0-0.1,0-0.2
		c0.3-1.4,1.5-2.3,2.8-2.3h1.7c1.3,0,2.5,1,2.8,2.3C17.5,16.7,17.4,16.8,17.4,16.8z"/>
	<path d="M11.4,9.7c0,1.3,1.1,2.4,2.4,2.4s2.4-1.1,2.4-2.4c0-1.3-1.1-2.4-2.4-2.4S11.4,8.4,11.4,9.7z M13.8,8.4
		c0.7,0,1.3,0.6,1.3,1.3S14.5,11,13.8,11s-1.3-0.6-1.3-1.3S13.1,8.4,13.8,8.4z"/>
	<path d="M9.3,11.2c0-0.3-0.2-0.5-0.5-0.5H2.8l1.7-3.9h5.2c0.3,0,0.5-0.2,0.5-0.5S10,5.6,9.7,5.6H4.1c-0.2,0-0.4,0.1-0.5,0.3
		L2.5,8.5V2.7c0-0.1,0.1-0.1,0.1-0.1h2.6c0.1,0,0.1,0.1,0.1,0.1v0.8C5.4,3.7,5.6,4,5.9,4h6v0.9c0,0.3,0.2,0.5,0.5,0.5S13,5.2,13,4.9
		V3.4c0-0.3-0.2-0.5-0.5-0.5h-6V2.7c0-0.7-0.5-1.2-1.2-1.2H2.7C2,1.5,1.5,2,1.5,2.7v8.5c0,0.1,0,0.1,0,0.2c0,0,0,0,0,0.1
		c0,0,0,0.1,0.1,0.1c0,0,0,0,0.1,0c0,0,0.1,0.1,0.1,0.1c0,0,0,0,0.1,0c0,0,0,0,0.1,0c0,0,0.1,0,0.1,0h6.7C9,11.8,9.3,11.5,9.3,11.2z
		"/>
</g>
</svg>
