<?xml version="1.0" encoding="utf-8"?>
<!-- Generator: Adobe Illustrator 27.4.1, SVG Export Plug-In . SVG Version: 6.00 Build 0)  -->
<svg version="1.1" id="Ebene_2_00000114048109262769388900000014414417464656954772_"
	 xmlns="http://www.w3.org/2000/svg" xmlns:xlink="http://www.w3.org/1999/xlink" x="0px" y="0px" viewBox="0 0 17.1 18.1"
	 style="enable-background:new 0 0 17.1 18.1;" xml:space="preserve">
<g>
	<path d="M16.6,7.8c-0.2-0.2-0.5-0.2-0.7,0l-6.7,5.9c-0.3,0.2-0.8,0.2-1.1,0L1.3,7.8c-0.2-0.2-0.5-0.2-0.7,0C0.2,8.1,0,8.5,0,9v7.4
		c0,0.9,0.9,1.7,1.9,1.7h13.3c1.1,0,1.9-0.8,1.9-1.7V9C17.1,8.5,16.9,8.1,16.6,7.8z M16,9.1v7.2l-3.9-3.8L16,9.1z M9.8,14.6
		C9.8,14.5,9.8,14.5,9.8,14.6l1.4-1.3l3.9,3.7H1.9l3.9-3.7l1.4,1.3C8,15.1,9.1,15.1,9.8,14.6z M5,12.6l-3.9,3.8V9.1L5,12.6z"/>
	<path d="M2.5,6.4c0.3,0,0.5-0.2,0.5-0.5l0-4.8l11,0.1v4.7c0,0.3,0.2,0.5,0.5,0.5s0.5-0.2,0.5-0.5V1.2c0-0.6-0.5-1.2-1-1.2H3
		C2.5,0,2,0.5,2,1.2v4.7C2,6.2,2.2,6.4,2.5,6.4z"/>
	<path d="M9,3.3c0.6,0,1.2,0.3,1.7,0.9c0.2,0.2,0.5,0.3,0.8,0.1c0.2-0.2,0.3-0.5,0.1-0.8C10.9,2.7,10,2.2,9,2.2
		C7.5,2.2,6.2,3.4,5.7,5H4.9C4.5,5,4.3,5.3,4.3,5.6s0.2,0.5,0.5,0.5h0.7c0,0.1,0,0.3,0,0.4c0,0.2,0,0.3,0,0.5H4.9
		c-0.3,0-0.5,0.2-0.5,0.5s0.2,0.5,0.5,0.5h0.9c0.5,1.6,1.8,2.8,3.3,2.8c1,0,1.9-0.5,2.5-1.3c0.2-0.2,0.1-0.6-0.1-0.8
		c-0.2-0.2-0.6-0.1-0.8,0.1c-0.5,0.6-1,0.9-1.7,0.9c-0.9,0-1.7-0.7-2.1-1.7h1.7c0.3,0,0.5-0.2,0.5-0.5S9,7.1,8.6,7.1h-2
		c0-0.2,0-0.3,0-0.5c0-0.2,0-0.3,0-0.4h2c0.3,0,0.5-0.2,0.5-0.5S9,5,8.6,5H6.9C7.3,4,8.1,3.3,9,3.3z"/>
</g>
</svg>
