<?xml version="1.0" encoding="utf-8"?>
<!-- Generator: Adobe Illustrator 27.4.1, SVG Export Plug-In . SVG Version: 6.00 Build 0)  -->
<svg version="1.1" id="Ebene_2_00000114042408063113104110000004481252359570816181_"
	 xmlns="http://www.w3.org/2000/svg" xmlns:xlink="http://www.w3.org/1999/xlink" x="0px" y="0px" viewBox="0 0 15.3 18.8"
	 style="enable-background:new 0 0 15.3 18.8;" xml:space="preserve">
<g>
	<path d="M10.7,15.3H3.4c-0.3,0-0.5,0.2-0.5,0.5s0.2,0.5,0.5,0.5h7.3c0.3,0,0.5-0.2,0.5-0.5S11,15.3,10.7,15.3z"/>
	<path d="M10.7,13.1H3.4c-0.3,0-0.5,0.2-0.5,0.5s0.2,0.5,0.5,0.5h7.3c0.3,0,0.5-0.2,0.5-0.5S11,13.1,10.7,13.1z"/>
	<path d="M15.3,1.6C15,0.8,14-0.1,11.8,0c0,0,0,0,0,0c0,0,0,0-0.1,0H5.7c0,0-0.1,0-0.1,0C4.1,0.2,3,2.4,2.9,5.3H1.7
		C0.8,5.3,0,6.2,0,7.3v0.8v0.5v8.3c0,1.1,0.8,2,1.7,2h10.6c0.9,0,1.7-0.9,1.7-2V8.5V8.2V7.3c0-1.1-0.8-2-1.7-2h-2.1
		c0.1-2.4,0.9-4.1,1.7-4.2c0,0,0,0,0,0c1.6-0.1,2.2,0.5,2.3,0.8c0.1,0.2,0.3,0.4,0.5,0.4c0,0,0.1,0,0.1,0
		C15.2,2.2,15.4,1.9,15.3,1.6z M12.3,17.7H1.7c-0.3,0-0.6-0.4-0.6-0.9v-6.1c0.2,0.1,0.4,0.1,0.6,0.1h10.6c0.2,0,0.4-0.1,0.6-0.1v6.1
		C12.9,17.3,12.6,17.7,12.3,17.7z M12.9,7.3v0.9v0.3c0,0.7-0.3,1.2-0.6,1.2H1.7c-0.2,0-0.6-0.5-0.6-1.2V8.1V7.3
		c0-0.5,0.3-0.9,0.6-0.9h10.6C12.6,6.4,12.9,6.8,12.9,7.3z M4,5.3c0.1-2.6,1-4.2,1.7-4.2h4.5C9.6,2.1,9.2,3.6,9.1,5.3H4z"/>
</g>
</svg>
