<?xml version="1.0" encoding="utf-8"?>
<!-- Generator: Adobe Illustrator 27.4.1, SVG Export Plug-In . SVG Version: 6.00 Build 0)  -->
<svg version="1.1" id="Ebene_2_00000119103126792476259790000004422094072173670584_"
	 xmlns="http://www.w3.org/2000/svg" xmlns:xlink="http://www.w3.org/1999/xlink" x="0px" y="0px" viewBox="0 0 17.1 17.1"
	 style="enable-background:new 0 0 17.1 17.1;" xml:space="preserve">
<g>
	<path d="M7.9,3C5.1,3.3,3,5.7,3,8.6c0,3.1,2.5,5.5,5.5,5.5c2.8,0,5.1-2.1,5.5-4.8c0-0.3-0.2-0.6-0.5-0.6c-0.3,0-0.6,0.2-0.6,0.5
		c-0.3,2.2-2.2,3.8-4.4,3.8c-2.5,0-4.5-2-4.5-4.5c0-2.3,1.7-4.2,4-4.4c0.3,0,0.5-0.3,0.5-0.6C8.5,3.2,8.2,3,7.9,3z"/>
	<path d="M16.5,8C16.2,8,16,8.2,16,8.6c0,4.1-3.3,7.5-7.5,7.5c-4.1,0-7.5-3.3-7.5-7.5c0-4.1,3.3-7.5,7.5-7.5c0.3,0,0.5-0.2,0.5-0.5
		S8.9,0,8.5,0C3.8,0,0,3.8,0,8.6c0,4.7,3.8,8.5,8.5,8.5c4.7,0,8.5-3.8,8.5-8.5C17.1,8.2,16.9,8,16.5,8z"/>
	<path d="M7.8,7.3C8,7.2,8.1,6.8,7.9,6.6C7.8,6.3,7.4,6.2,7.2,6.4C6.4,6.9,6,7.7,6,8.6c0,1.4,1.1,2.5,2.5,2.5c0.9,0,1.7-0.5,2.2-1.2
		c0.2-0.3,0.1-0.6-0.2-0.8C10.3,9,9.9,9,9.8,9.3C9.5,9.7,9.1,10,8.5,10c-0.8,0-1.5-0.7-1.5-1.5C7.1,8.1,7.3,7.6,7.8,7.3z"/>
	<path d="M8.6,7.7c-0.2,0.2-0.2,0.6,0,0.8C8.7,8.6,8.9,8.6,9,8.6s0.3-0.1,0.4-0.2l2-2l2.5,0.4c0,0,0.1,0,0.1,0
		c0.1,0,0.3-0.1,0.4-0.2l2.6-2.6c0.1-0.1,0.2-0.3,0.1-0.5c0-0.2-0.2-0.3-0.3-0.4l-2-0.8l-0.9-2.1C13.8,0.2,13.7,0,13.5,0
		c-0.2,0-0.4,0-0.5,0.2l-2.6,2.6c-0.1,0.1-0.2,0.3-0.2,0.5l0.3,2.5L8.6,7.7z M11.4,3.3l1.8-1.8l0.6,1.6c0.1,0.1,0.2,0.3,0.3,0.3
		l1.4,0.5l-1.8,1.8l-1.4-0.2l0.8-0.8c0.2-0.2,0.2-0.6,0-0.8c-0.2-0.2-0.6-0.2-0.8,0l-0.8,0.8L11.4,3.3z"/>
</g>
</svg>
