<?xml version="1.0" encoding="utf-8"?>
<!-- Generator: Adobe Illustrator 27.4.1, SVG Export Plug-In . SVG Version: 6.00 Build 0)  -->
<svg version="1.1" id="icons" xmlns="http://www.w3.org/2000/svg" xmlns:xlink="http://www.w3.org/1999/xlink" x="0px" y="0px"
	 viewBox="0 0 20 20" style="enable-background:new 0 0 20 20;" xml:space="preserve">
<g>
	<path d="M10,1.5c-4.7,0-8.5,3.8-8.5,8.5c0,4.7,3.8,8.5,8.5,8.5c4.7,0,8.5-3.8,8.5-8.5C18.5,5.3,14.7,1.5,10,1.5z M10,17.5
		c-4.1,0-7.5-3.3-7.5-7.5c0-4.1,3.3-7.5,7.5-7.5c4.1,0,7.5,3.3,7.5,7.5C17.5,14.1,14.1,17.5,10,17.5z"/>
	<path d="M10,4.7c-2.9,0-5.3,2.4-5.3,5.3c0,2.9,2.4,5.3,5.3,5.3c2.9,0,5.3-2.4,5.3-5.3C15.3,7.1,12.9,4.7,10,4.7z M10,14.2
		c-2.3,0-4.2-1.9-4.2-4.2S7.7,5.8,10,5.8s4.2,1.9,4.2,4.2S12.3,14.2,10,14.2z"/>
	<path d="M10,8c-1.1,0-2,0.9-2,2s0.9,2,2,2s2-0.9,2-2S11.1,8,10,8z M10,10.9c-0.5,0-0.9-0.4-0.9-0.9S9.5,9.1,10,9.1s0.9,0.4,0.9,0.9
		S10.5,10.9,10,10.9z"/>
</g>
</svg>
