<?xml version="1.0" encoding="utf-8"?>
<!-- Generator: Adobe Illustrator 27.4.1, SVG Export Plug-In . SVG Version: 6.00 Build 0)  -->
<svg version="1.1" id="icons" xmlns="http://www.w3.org/2000/svg" xmlns:xlink="http://www.w3.org/1999/xlink" x="0px" y="0px"
	 viewBox="0 0 20 20" style="enable-background:new 0 0 20 20;" xml:space="preserve">
<path d="M16,5.1V2.7c0-0.7-0.6-1.3-1.3-1.3h-1.5c-0.5,0-0.9,0.3-1.1,0.7l0,0c-1.7,2.5-5.5,2.3-5.5,2.3l0,0c0,0,0,0,0,0H3.8
	c-1.3,0-2.3,1-2.3,2.3v2.4c0,1.1,0.8,2,1.8,2.3v5.2c0,1,0.8,1.9,1.9,1.9S7,17.7,7,16.7v-5.1c1.1,0,3.8,0.4,5,2.3l0,0
	c0.2,0.4,0.6,0.7,1.1,0.7h1.5c0.7,0,1.3-0.6,1.3-1.3v-2.4c1.4-0.2,2.6-1.4,2.6-2.9S17.4,5.3,16,5.1z M5.9,16.7
	c0,0.4-0.4,0.8-0.8,0.8s-0.8-0.4-0.8-0.8v-5.1h1.6V16.7z M5.9,10.4H4.3H3.8c-0.7,0-1.2-0.5-1.2-1.2V6.8c0-0.7,0.5-1.2,1.2-1.2h2.1
	V10.4z M11.9,12.1C10.2,10.7,8,10.5,7,10.4V5.6c1,0,3.2-0.3,4.9-1.6V12.1z M14.9,13.3c0,0.1-0.1,0.2-0.2,0.2h-1.5
	c-0.1,0-0.2-0.1-0.2-0.2V2.7c0-0.1,0.1-0.2,0.2-0.2h1.5c0.1,0,0.2,0.1,0.2,0.2V13.3z M16,9.8V6.2c0.8,0.2,1.5,0.9,1.5,1.8
	S16.8,9.6,16,9.8z"/>
</svg>
