<?xml version="1.0" encoding="utf-8"?>
<!-- Generator: Adobe Illustrator 27.4.1, SVG Export Plug-In . SVG Version: 6.00 Build 0)  -->
<svg version="1.1" id="icons" xmlns="http://www.w3.org/2000/svg" xmlns:xlink="http://www.w3.org/1999/xlink" x="0px" y="0px"
	 viewBox="0 0 20 20" style="enable-background:new 0 0 20 20;" xml:space="preserve">
<path d="M18,3.5h-6.2V2c0-0.3-0.2-0.5-0.5-0.5S10.7,1.7,10.7,2v1.5h-5c-0.1,0-0.2,0-0.3,0.1L1.7,6C1.6,6.1,1.5,6.2,1.5,6.4
	c0,0.2,0.1,0.4,0.2,0.5l3.7,2.7c0.1,0.1,0.2,0.1,0.3,0.1h5v1.8H6.8c-0.3,0-0.5,0.2-0.5,0.5v3c0,0.3,0.2,0.5,0.5,0.5h3.9V18
	c0,0.3,0.2,0.5,0.5,0.5s0.5-0.2,0.5-0.5v-2.5h1.9c0.1,0,0.2,0,0.3-0.1l2.1-1.4c0.1-0.1,0.2-0.3,0.2-0.4c0-0.2-0.1-0.3-0.2-0.5
	L14,11.5c-0.1-0.1-0.2-0.1-0.3-0.1h-1.9V9.6H18c0.3,0,0.5-0.2,0.5-0.5v-5C18.5,3.8,18.3,3.5,18,3.5z M14.8,13.5l-1.3,0.9H7.3v-1.9
	h6.2L14.8,13.5z M17.5,8.5H5.8L3,6.5l2.9-1.8h11.6V8.5z"/>
</svg>
