<?xml version="1.0" encoding="utf-8"?>
<!-- Generator: Adobe Illustrator 27.4.1, SVG Export Plug-In . SVG Version: 6.00 Build 0)  -->
<svg version="1.1" id="icons" xmlns="http://www.w3.org/2000/svg" xmlns:xlink="http://www.w3.org/1999/xlink" x="0px" y="0px"
	 viewBox="0 0 20 20" style="enable-background:new 0 0 20 20;" xml:space="preserve">
<g>
	<path d="M17.2,4.2L13,2.7c-0.6-0.2-1.2-0.1-1.7,0.2l-8.6,5c-0.6,0.3-1,0.8-1.1,1.5c-0.2,0.6-0.1,1.3,0.2,1.8l3,5.1
		c0.3,0.6,0.8,1,1.5,1.1c0.2,0.1,0.4,0.1,0.6,0.1c0.4,0,0.8-0.1,1.2-0.3l8.6-5c0.5-0.3,0.9-0.8,1-1.4l0.9-4.3
		C18.7,5.5,18.1,4.5,17.2,4.2z M17.4,6.3l-0.9,4.3c-0.1,0.3-0.2,0.5-0.4,0.6l-8.6,5c-0.3,0.2-0.7,0.2-1,0.1
		c-0.3-0.1-0.6-0.3-0.8-0.6l-3-5.1c0,0,0,0,0,0c-0.2-0.3-0.2-0.7-0.1-1s0.3-0.6,0.6-0.8l8.6-5c0.1-0.1,0.3-0.1,0.5-0.1
		c0.1,0,0.2,0,0.3,0.1l4.2,1.5C17.3,5.3,17.5,5.8,17.4,6.3z"/>
	<path d="M14.4,5.5c-1,0-1.7,0.8-1.7,1.7S13.4,9,14.4,9s1.8-0.8,1.8-1.7S15.3,5.5,14.4,5.5z M14.4,7.9c-0.4,0-0.6-0.3-0.6-0.6
		s0.3-0.6,0.6-0.6S15,6.9,15,7.3S14.7,7.9,14.4,7.9z"/>
</g>
</svg>
