<?xml version="1.0" encoding="utf-8"?>
<!-- Generator: Adobe Illustrator 27.4.1, SVG Export Plug-In . SVG Version: 6.00 Build 0)  -->
<svg version="1.1" id="icons" xmlns="http://www.w3.org/2000/svg" xmlns:xlink="http://www.w3.org/1999/xlink" x="0px" y="0px"
	 viewBox="0 0 20 20" style="enable-background:new 0 0 20 20;" xml:space="preserve">
<g>
	<path d="M17.2,3.7L13,2.2c-0.6-0.2-1.2-0.1-1.7,0.2l-8.6,5c-0.6,0.3-1,0.8-1.1,1.5c-0.2,0.6-0.1,1.3,0.2,1.8l2.5,4.3
		c0.1,0.2,0.3,0.3,0.5,0.3c0.1,0,0.2,0,0.3-0.1c0.3-0.2,0.4-0.5,0.2-0.8l-2.5-4.3c-0.2-0.3-0.2-0.7-0.1-1s0.3-0.6,0.6-0.8l8.6-5
		c0.2-0.1,0.5-0.2,0.8-0.1l4.2,1.5c0.4,0.2,0.7,0.6,0.6,1.1l-0.9,4.3c-0.1,0.3-0.2,0.5-0.4,0.6c-0.3,0.2-0.4,0.5-0.2,0.8
		c0.2,0.3,0.5,0.4,0.8,0.2c0.5-0.3,0.9-0.8,1-1.4L18.5,6C18.7,5,18.1,4,17.2,3.7z"/>
	<path d="M14.4,5.1c-1,0-1.7,0.8-1.7,1.7s0.8,1.7,1.7,1.7s1.8-0.8,1.8-1.7S15.3,5.1,14.4,5.1z M14.4,7.5c-0.4,0-0.6-0.3-0.6-0.6
		s0.3-0.6,0.6-0.6S15,6.5,15,6.8S14.7,7.5,14.4,7.5z"/>
	<path d="M11.4,10.3c0.6,0,1.2,0.3,1.7,0.9c0.2,0.2,0.5,0.3,0.8,0.1c0.2-0.2,0.3-0.5,0.1-0.8c-0.7-0.8-1.6-1.3-2.5-1.3
		c-1.5,0-2.8,1.2-3.3,2.8H7.2c-0.3,0-0.5,0.2-0.5,0.5s0.2,0.5,0.5,0.5h0.7c0,0.1,0,0.3,0,0.4c0,0.2,0,0.3,0,0.5H7.2
		c-0.3,0-0.5,0.2-0.5,0.5s0.2,0.5,0.5,0.5h0.9c0.5,1.6,1.8,2.8,3.3,2.8c1,0,1.9-0.5,2.5-1.3c0.2-0.2,0.1-0.6-0.1-0.8
		c-0.2-0.2-0.6-0.1-0.8,0.1c-0.5,0.6-1,0.9-1.7,0.9c-0.9,0-1.7-0.7-2.1-1.7H11c0.3,0,0.5-0.2,0.5-0.5S11.3,14,11,14H9
		c0-0.2,0-0.3,0-0.5c0-0.2,0-0.3,0-0.4h2c0.3,0,0.5-0.2,0.5-0.5S11.3,12,11,12H9.3C9.7,11,10.5,10.3,11.4,10.3z"/>
</g>
</svg>
