<?xml version="1.0" encoding="utf-8"?>
<!-- Generator: Adobe Illustrator 27.4.1, SVG Export Plug-In . SVG Version: 6.00 Build 0)  -->
<svg version="1.1" id="icons" xmlns="http://www.w3.org/2000/svg" xmlns:xlink="http://www.w3.org/1999/xlink" x="0px" y="0px"
	 viewBox="0 0 20 20" style="enable-background:new 0 0 20 20;" xml:space="preserve">
<g>
	<path d="M17.2,3.6L13,2.1c-0.6-0.2-1.2-0.1-1.7,0.2l-8.6,5c-0.6,0.3-1,0.8-1.1,1.5C1.4,9.3,1.5,10,1.8,10.6l3,5.1
		c0.1,0.2,0.3,0.3,0.5,0.3c0.1,0,0.2,0,0.3-0.1c0.3-0.2,0.4-0.5,0.2-0.8l-3-5.1C2.6,9.7,2.5,9.3,2.6,9s0.3-0.6,0.6-0.8l8.6-5
		c0.2-0.1,0.5-0.2,0.8-0.1l4.2,1.5c0.4,0.2,0.7,0.6,0.6,1.1L16.6,10c-0.1,0.3-0.2,0.5-0.4,0.6l-2,1.2c-0.3,0.2-0.4,0.5-0.2,0.8
		c0.2,0.3,0.5,0.4,0.8,0.2l2-1.2c0.5-0.3,0.9-0.8,1-1.4l0.9-4.3C18.7,4.9,18.1,3.9,17.2,3.6z"/>
	<path d="M16.1,6.7c0-1-0.8-1.7-1.8-1.7s-1.7,0.8-1.7,1.7s0.8,1.7,1.7,1.7S16.1,7.7,16.1,6.7z M13.7,6.7c0-0.4,0.3-0.6,0.6-0.6
		S15,6.4,15,6.7s-0.3,0.6-0.7,0.6S13.7,7.1,13.7,6.7z"/>
	<path d="M9.4,10.6c0.3-0.1,1.3-0.4,2.4,0.6c0.2,0.2,0.6,0.2,0.8,0s0.2-0.6,0-0.8c-0.6-0.6-1.3-0.9-1.9-1V8.6c0-0.3-0.2-0.5-0.5-0.5
		S9.6,8.3,9.6,8.6v0.7C9.4,9.4,9.2,9.5,9,9.6c-0.8,0.4-1.4,1.1-1.4,1.8c0,1.5,1.4,1.9,2.5,2.1c1.3,0.3,1.7,0.6,1.6,1.1
		c-0.1,0.6-0.7,1-1.5,1c-1.4,0-1.8-0.7-1.8-0.7c-0.1-0.3-0.5-0.4-0.7-0.2c-0.3,0.1-0.4,0.5-0.2,0.7c0,0,0.6,1,2.2,1.2v0.7
		c0,0.3,0.2,0.5,0.5,0.5s0.5-0.2,0.5-0.5v-0.7c1.1-0.2,1.9-0.9,2-1.9c0.2-1.6-1.3-2-2.4-2.3c-1.1-0.3-1.7-0.5-1.7-1.1
		C8.7,11.1,9,10.7,9.4,10.6z"/>
</g>
</svg>
