<?xml version="1.0" encoding="utf-8"?>
<!-- Generator: Adobe Illustrator 27.4.1, SVG Export Plug-In . SVG Version: 6.00 Build 0)  -->
<svg version="1.1" id="icons" xmlns="http://www.w3.org/2000/svg" xmlns:xlink="http://www.w3.org/1999/xlink" x="0px" y="0px"
	 viewBox="0 0 20 20" style="enable-background:new 0 0 20 20;" xml:space="preserve">
<g>
	<path d="M6.4,12.7c0,0.3,0.2,0.5,0.5,0.5h3.4c0.3,0,0.5-0.2,0.5-0.5V9.3c0-0.3-0.2-0.5-0.5-0.5H6.9C6.6,8.7,6.4,9,6.4,9.3V12.7z
		 M7.5,9.8h2.3v2.3H7.5V9.8z"/>
	<path d="M15.6,8.9h-2.7c-0.3,0-0.5,0.2-0.5,0.5s0.2,0.5,0.5,0.5h2.7c0.3,0,0.5-0.2,0.5-0.5S15.9,8.9,15.6,8.9z"/>
	<path d="M15.6,11.9h-2.7c-0.3,0-0.5,0.2-0.5,0.5s0.2,0.5,0.5,0.5h2.7c0.3,0,0.5-0.2,0.5-0.5S15.9,11.9,15.6,11.9z"/>
	<path d="M15.6,5.6H6.9c-0.3,0-0.5,0.2-0.5,0.5s0.2,0.5,0.5,0.5h8.6c0.3,0,0.5-0.2,0.5-0.5S15.9,5.6,15.6,5.6z"/>
	<path d="M17.2,2.7h-12C4.5,2.7,4,3.3,4,4v10c0,0.3,0.2,0.5,0.5,0.5S5,14.4,5,14.1V4c0-0.1,0.1-0.2,0.2-0.2h12
		c0.1,0,0.2,0.1,0.2,0.2v10.6c0,0.9-0.7,1.6-1.6,1.6H4c-0.8,0-1.5-0.7-1.5-1.5V7.4c0-0.3-0.2-0.5-0.5-0.5S1.5,7.1,1.5,7.4v7.3
		c0,1.4,1.1,2.5,2.5,2.5h11.9c1.5,0,2.7-1.2,2.7-2.7V4C18.5,3.3,18,2.7,17.2,2.7z"/>
</g>
</svg>
