<?xml version="1.0" encoding="utf-8"?>
<!-- Generator: Adobe Illustrator 27.4.1, SVG Export Plug-In . SVG Version: 6.00 Build 0)  -->
<svg version="1.1" id="icons" xmlns="http://www.w3.org/2000/svg" xmlns:xlink="http://www.w3.org/1999/xlink" x="0px" y="0px"
	 viewBox="0 0 20 20" style="enable-background:new 0 0 20 20;" xml:space="preserve">
<g>
	<path d="M12,12.5c-0.3,0-0.5,0.2-0.5,0.5v5c0,0.3,0.2,0.5,0.5,0.5s0.5-0.2,0.5-0.5v-5C12.5,12.7,12.3,12.5,12,12.5z"/>
	<path d="M18,12.5h-3.8c-0.3,0-0.5,0.2-0.5,0.5s0.2,0.5,0.5,0.5h1.4V18c0,0.3,0.2,0.5,0.5,0.5s0.5-0.2,0.5-0.5v-4.4H18
		c0.3,0,0.5-0.2,0.5-0.5S18.3,12.5,18,12.5z"/>
	<path d="M13.9,9.6c0.4-1.8,0.7-3.8,0.8-5.2c0.1-0.9-0.5-1.7-1.3-2c-1.4-0.4-3.4-1-5.3-1c-1.8,0-3.9,0.5-5.3,1
		c-0.9,0.3-1.4,1.1-1.3,2C1.6,6,2,9.1,2.7,11.2c1,2.6,3.1,4.1,4.3,4.8c0.1,0,0.2,0.1,0.3,0.1c0.2,0,0.4-0.1,0.5-0.3
		c0.2-0.3,0.1-0.6-0.2-0.8c-1.1-0.6-3-2-3.8-4.2c-0.3-0.7-0.5-1.6-0.7-2.5l4.5,0.7v2.6c0,0.3,0.2,0.5,0.5,0.5s0.5-0.2,0.5-0.5V9.1
		L13,8.3c-0.1,0.3-0.1,0.7-0.2,1c-0.1,0.3,0.1,0.6,0.4,0.7C13.5,10.1,13.8,9.9,13.9,9.6z M2.9,7.3c-0.2-1.2-0.3-2.3-0.4-3
		c0-0.4,0.2-0.7,0.6-0.8c1-0.3,2.8-0.8,4.4-0.9v5.5L2.9,7.3z M8.5,8.1V2.6C10.2,2.7,12,3.2,13,3.5c0.4,0.1,0.6,0.5,0.6,0.8
		c-0.1,0.8-0.2,1.9-0.4,3L8.5,8.1z"/>
</g>
</svg>
