<?xml version="1.0" encoding="utf-8"?>
<!-- Generator: Adobe Illustrator 27.4.1, SVG Export Plug-In . SVG Version: 6.00 Build 0)  -->
<svg version="1.1" id="icons" xmlns="http://www.w3.org/2000/svg" xmlns:xlink="http://www.w3.org/1999/xlink" x="0px" y="0px"
	 viewBox="0 0 20 20" style="enable-background:new 0 0 20 20;" xml:space="preserve">
<path d="M12.5,13c0.6-0.5,1-1.1,1-1.8c0.1-1-0.6-2.1-1.6-2.8c-0.7-0.5-1.4-0.8-2-1.2c-1.9-1-2.6-1.5-2.2-2.5C8,4,8.8,3.5,9.8,3.5
	c1.1,0,2,0.6,2.2,1.4c0.1,0.3,0.4,0.5,0.7,0.4c0.3-0.1,0.5-0.4,0.4-0.7c-0.4-1.3-1.7-2.1-3.3-2.1c-1.4,0-2.7,0.7-3.2,1.9
	C6.2,5.6,6.7,6.4,7.5,7c-0.6,0.5-1,1.1-1,1.8c-0.1,1,0.6,2.1,1.6,2.8c0.7,0.5,1.4,0.8,2,1.2c1.9,1,2.6,1.5,2.2,2.5
	c-0.3,0.7-1.2,1.2-2.2,1.2c-1.1,0-2-0.6-2.2-1.4c-0.1-0.3-0.4-0.5-0.7-0.4c-0.3,0.1-0.5,0.4-0.4,0.7c0.4,1.3,1.7,2.1,3.3,2.1
	c1.4,0,2.7-0.7,3.2-1.9C13.8,14.4,13.3,13.6,12.5,13z M11.5,12.3c-0.3-0.2-0.6-0.3-0.9-0.5c-0.6-0.3-1.3-0.7-1.9-1.1
	C8,10.2,7.5,9.5,7.6,8.9c0-0.6,0.5-1,0.9-1.2C8.8,7.9,9.1,8,9.4,8.2c0.6,0.3,1.3,0.7,1.9,1.1c0.8,0.5,1.2,1.2,1.2,1.8
	C12.4,11.7,12,12,11.5,12.3z"/>
</svg>
