<?xml version="1.0" encoding="utf-8"?>
<!-- Generator: Adobe Illustrator 27.4.1, SVG Export Plug-In . SVG Version: 6.00 Build 0)  -->
<svg version="1.1" id="icons" xmlns="http://www.w3.org/2000/svg" xmlns:xlink="http://www.w3.org/1999/xlink" x="0px" y="0px"
	 viewBox="0 0 20 20" style="enable-background:new 0 0 20 20;" xml:space="preserve">
<g>
	<path d="M18,14.6h-3V13c0-0.3-0.2-0.5-0.5-0.5s-0.5,0.2-0.5,0.5v1.6H9.1c-0.3,0-0.5,0.2-0.5,0.5c0,1.4-0.6,2.3-1.2,2.3
		s-1.2-0.9-1.2-2.3V4.8c0-0.9-0.2-1.7-0.6-2.3h7.2c0.6,0,1.2,0.9,1.2,2.3c0,0.3,0.2,0.5,0.5,0.5S15,5.1,15,4.8c0-1.9-1-3.4-2.3-3.4
		H3.8c-1.3,0-2.3,1.5-2.3,3.4c0,0.3,0.2,0.5,0.5,0.5h3v9.8c0,1.9,1,3.4,2.3,3.4h8.9c1.3,0,2.3-1.5,2.3-3.4
		C18.5,14.9,18.3,14.6,18,14.6z M2.6,4.3c0.1-1.1,0.7-1.7,1.2-1.7s1,0.7,1.2,1.7H2.6z M16.2,17.5H9.1c0.3-0.5,0.5-1.1,0.6-1.7h7.8
		C17.3,16.8,16.7,17.5,16.2,17.5z"/>
	<path d="M10.9,8.4c-0.2-0.2-0.6-0.2-0.8,0c-0.2,0.2-0.2,0.6,0,0.8l2.1,2.2c0.1,0.1,0.2,0.2,0.4,0.2c0,0,0,0,0,0
		c0.2,0,0.3-0.1,0.4-0.2L18.4,5c0.2-0.2,0.2-0.6-0.1-0.8C18.1,4,17.8,4,17.6,4.2l-5,5.9L10.9,8.4z"/>
</g>
</svg>
