<?xml version="1.0" encoding="utf-8"?>
<!-- Generator: Adobe Illustrator 27.4.1, SVG Export Plug-In . SVG Version: 6.00 Build 0)  -->
<svg version="1.1" id="icons" xmlns="http://www.w3.org/2000/svg" xmlns:xlink="http://www.w3.org/1999/xlink" x="0px" y="0px"
	 viewBox="0 0 20 20" style="enable-background:new 0 0 20 20;" xml:space="preserve">
<g>
	<path d="M16.2,10.1c0.1-0.2,0.1-0.3,0-0.5C14.9,7,12.5,5.4,9.9,5.4c-2.6,0-5,1.6-6.3,4.3c-0.1,0.2-0.1,0.3,0,0.5
		c1.3,2.6,3.7,4.3,6.3,4.3C12.5,14.4,14.9,12.7,16.2,10.1z M9.9,13.3c-2.1,0-4.1-1.3-5.2-3.4c1.1-2.1,3.1-3.4,5.2-3.4
		s4.1,1.3,5.2,3.4C13.9,12,12,13.3,9.9,13.3z"/>
	<path d="M9.9,7.5c-1.3,0-2.4,1.1-2.4,2.4c0,1.3,1.1,2.4,2.4,2.4s2.4-1.1,2.4-2.4C12.3,8.5,11.2,7.5,9.9,7.5z M9.9,11.2
		c-0.7,0-1.3-0.6-1.3-1.3s0.6-1.3,1.3-1.3c0.7,0,1.3,0.6,1.3,1.3S10.6,11.2,9.9,11.2z"/>
	<path d="M2,6.5c0.3,0,0.5-0.2,0.5-0.5V2.5H6c0.3,0,0.5-0.2,0.5-0.5S6.3,1.5,6,1.5H2C1.7,1.5,1.5,1.7,1.5,2v4C1.5,6.3,1.7,6.5,2,6.5
		z"/>
	<path d="M18,1.5h-4c-0.3,0-0.5,0.2-0.5,0.5s0.2,0.5,0.5,0.5h3.5V6c0,0.3,0.2,0.5,0.5,0.5s0.5-0.2,0.5-0.5V2
		C18.5,1.7,18.3,1.5,18,1.5z"/>
	<path d="M18,13.5c-0.3,0-0.5,0.2-0.5,0.5v3.5H14c-0.3,0-0.5,0.2-0.5,0.5s0.2,0.5,0.5,0.5h4c0.3,0,0.5-0.2,0.5-0.5v-4
		C18.5,13.7,18.3,13.5,18,13.5z"/>
	<path d="M6,17.5H2.5V14c0-0.3-0.2-0.5-0.5-0.5S1.5,13.7,1.5,14v4c0,0.3,0.2,0.5,0.5,0.5h4c0.3,0,0.5-0.2,0.5-0.5S6.3,17.5,6,17.5z"
		/>
</g>
</svg>
