<?xml version="1.0" encoding="utf-8"?>
<!-- Generator: Adobe Illustrator 27.4.1, SVG Export Plug-In . SVG Version: 6.00 Build 0)  -->
<svg version="1.1" id="icons" xmlns="http://www.w3.org/2000/svg" xmlns:xlink="http://www.w3.org/1999/xlink" x="0px" y="0px"
	 viewBox="0 0 20 20" style="enable-background:new 0 0 20 20;" xml:space="preserve">
<g>
	<path d="M18,17.5h-0.6l-1-2c-0.1-0.2-0.3-0.3-0.5-0.3h-5.3c-0.2,0-0.4,0.1-0.5,0.3l-1,2H8.6c-0.3,0-0.5,0.2-0.5,0.5
		s0.2,0.5,0.5,0.5h0.9h7.6H18c0.3,0,0.5-0.2,0.5-0.5S18.3,17.5,18,17.5z M10.4,17.5l0.6-1.2h4.6l0.6,1.2H10.4z"/>
	<path d="M9.3,14c0.3,0,0.5-0.1,0.7-0.3l4.3-4.3c0.4-0.4,0.4-1,0-1.4l-0.8-0.8c-0.4-0.4-1-0.4-1.4,0L12,7.4L8.5,3.9l0.1-0.1
		c0.4-0.4,0.4-1,0-1.4L7.8,1.6c-0.4-0.4-1-0.4-1.4,0L2.1,5.9c-0.4,0.4-0.4,1,0,1.4l0.8,0.8c0.2,0.2,0.5,0.3,0.7,0.3
		c0.3,0,0.5-0.1,0.7-0.3L4.4,8l1.3,1.3l-4.2,4.2c-0.2,0.2-0.2,0.6,0,0.8c0.1,0.1,0.2,0.2,0.4,0.2s0.3-0.1,0.4-0.2l4.2-4.2l1.3,1.3
		l-0.1,0.1c-0.4,0.4-0.4,1,0,1.4l0.8,0.8C8.8,13.9,9,14,9.3,14z M12.4,8.5C12.4,8.5,12.4,8.5,12.4,8.5l0.4-0.4l0.7,0.7l-4.1,4.1
		l-0.6-0.6l0.7-0.7L12.4,8.5z M3.6,7.3L3,6.6l4.1-4.2l0.7,0.7L3.6,7.3z M6.9,9C6.9,9,6.9,9,6.9,9C6.9,9,6.9,9,6.9,9L5.2,7.3l2.5-2.5
		l3.4,3.4l-2.5,2.5L6.9,9z"/>
</g>
</svg>
