<?xml version="1.0" encoding="utf-8"?>
<!-- Generator: Adobe Illustrator 27.4.1, SVG Export Plug-In . SVG Version: 6.00 Build 0)  -->
<svg version="1.1" id="Ebene_2_00000118388604819959769510000014249764289652769163_"
	 xmlns="http://www.w3.org/2000/svg" xmlns:xlink="http://www.w3.org/1999/xlink" x="0px" y="0px" viewBox="0 0 15.8 17.6"
	 style="enable-background:new 0 0 15.8 17.6;" xml:space="preserve">
<g>
	<path d="M9.2,12.7c0-0.3,0-0.6,0-0.8l0.6-0.5c0.4-0.3,0.5-0.9,0.2-1.3l-0.6-1C9.2,8.8,8.7,8.6,8.3,8.7L7.5,9L6.8,8.6L6.7,7.8
		C6.6,7.3,6.2,7,5.7,7H4.5C4,7,3.6,7.3,3.5,7.8L3.4,8.6C3.1,8.7,2.9,8.8,2.7,9L1.9,8.7C1.4,8.6,1,8.8,0.7,9.2l-0.6,1
		c-0.2,0.4-0.2,0.9,0.2,1.3l0.6,0.5c0,0.3,0,0.6,0,0.8l-0.6,0.5c-0.4,0.3-0.5,0.9-0.2,1.3l0.6,1c0.1,0.1,0.2,0.2,0.3,0.3
		C1.3,16,1.6,16,1.9,15.9l0.8-0.3C2.9,15.8,3.1,16,3.4,16l0.2,0.8c0.1,0.5,0.5,0.8,1,0.8h1.2c0.5,0,0.9-0.3,1-0.8l0.1-0.8
		C7,16,7.3,15.8,7.5,15.6l0.8,0.3c0.4,0.1,0.9,0,1.2-0.4l0.6-1c0.2-0.4,0.2-0.9-0.2-1.3L9.2,12.7z M8.6,14.8l-0.7-0.2
		c-0.3-0.1-0.6,0-0.9,0.1c-0.2,0.1-0.4,0.2-0.6,0.3c-0.3,0.1-0.5,0.4-0.6,0.7l-0.1,0.7h-1l-0.1-0.7c-0.1-0.3-0.3-0.6-0.6-0.7
		c-0.2-0.1-0.4-0.2-0.6-0.3c-0.3-0.2-0.6-0.2-0.9-0.1l-0.8,0.2L1.1,14l0.6-0.5C1.9,13.3,2.1,13,2,12.6c0-0.2,0-0.4,0-0.6
		c0-0.3-0.1-0.7-0.3-0.9l-0.6-0.5l0.5-0.8L2.4,10c0.3,0.1,0.6,0,0.9-0.1c0.2-0.1,0.4-0.2,0.6-0.3c0.3-0.1,0.5-0.4,0.6-0.7l0.2-0.7h1
		l0.2,0.8C5.8,9.2,6,9.4,6.2,9.5L7,10c0.2,0.1,0.5,0.2,0.8,0.1l0.8-0.3L9,10.6l-0.6,0.5c-0.2,0.2-0.4,0.5-0.3,0.9c0,0.2,0,0.4,0,0.6
		c0,0.3,0.1,0.7,0.3,0.9L9,14L8.6,14.8z"/>
	<path d="M5.1,10.4c-1,0-1.9,0.9-1.9,1.9c0,1,0.8,1.9,1.9,1.9S7,13.4,7,12.3C7,11.3,6.1,10.4,5.1,10.4z M5.1,13.1
		c-0.4,0-0.8-0.4-0.8-0.8c0-0.4,0.3-0.8,0.8-0.8s0.8,0.4,0.8,0.8C5.9,12.8,5.5,13.1,5.1,13.1z"/>
	<path d="M15.8,4.3C15.8,4.3,15.8,4.2,15.8,4.3c0-0.2-0.1-0.3-0.1-0.3c0,0,0,0,0,0l-3.9-3.8c0,0,0,0,0,0c-0.1-0.1-0.1-0.1-0.2-0.1
		c0,0,0,0-0.1,0c0,0,0,0-0.1,0H2.6C2.3,0,2.1,0.2,2.1,0.5V6c0,0.3,0.2,0.5,0.5,0.5S3.2,6.4,3.2,6v-5h7.6v3.3c0,0.3,0.2,0.5,0.5,0.5
		h3.3V16h-3.5c-0.3,0-0.5,0.2-0.5,0.5s0.2,0.5,0.5,0.5h4.1c0.3,0,0.5-0.2,0.5-0.5L15.8,4.3C15.8,4.3,15.8,4.3,15.8,4.3z M11.9,3.8
		v-2l2,2H11.9z"/>
</g>
</svg>
