<?xml version="1.0" encoding="utf-8"?>
<!-- Generator: Adobe Illustrator 27.4.1, SVG Export Plug-In . SVG Version: 6.00 Build 0)  -->
<svg version="1.1" id="icons" xmlns="http://www.w3.org/2000/svg" xmlns:xlink="http://www.w3.org/1999/xlink" x="0px" y="0px"
	 viewBox="0 0 20 20" style="enable-background:new 0 0 20 20;" xml:space="preserve">
<g>
	<path d="M10.4,10.4c-0.2-0.2-0.6-0.2-0.8,0L7,13c-0.2,0.2-0.2,0.6,0,0.8c0.2,0.2,0.6,0.2,0.8,0l1.7-1.7V18c0,0.3,0.2,0.5,0.5,0.5
		s0.5-0.2,0.5-0.5v-5.9l1.6,1.6c0.1,0.1,0.2,0.2,0.4,0.2c0.1,0,0.3-0.1,0.4-0.2c0.2-0.2,0.2-0.6,0-0.8L10.4,10.4z"/>
	<path d="M10,1.5c-3.9,0-7,3.2-7,7c0,1.3,0.3,2.5,1,3.6c0.1,0.2,0.3,0.3,0.5,0.3c0.1,0,0.2,0,0.3-0.1C5,12.1,5,11.8,4.9,11.5
		C4.4,10.8,4.2,9.9,4.1,9h2.7c0.3,0,0.5-0.2,0.5-0.5c0-0.6,0.1-1.1,0.2-1.6C8.1,7,8.8,7.1,9.5,7.1v1.3C9.5,8.8,9.7,9,10,9
		s0.5-0.2,0.5-0.5V7.1c0.7,0,1.3-0.1,1.9-0.2c0.1,0.5,0.2,1.1,0.2,1.6c0,0.3,0.3,0.5,0.5,0.5h2.7c-0.1,0.9-0.3,1.8-0.8,2.5
		c-0.2,0.3-0.1,0.6,0.2,0.8c0.1,0.1,0.2,0.1,0.3,0.1c0.2,0,0.4-0.1,0.5-0.3c0.6-1.1,1-2.3,1-3.6C17,4.6,13.9,1.5,10,1.5z M14.7,4.9
		c-0.4,0.3-0.9,0.5-1.4,0.6c-0.3-1-0.6-1.8-1.1-2.5C13.2,3.4,14,4,14.7,4.9z M7.8,3C7.4,3.7,7,4.5,6.7,5.5c-0.5-0.2-1-0.4-1.4-0.6
		C6,4,6.8,3.4,7.8,3z M6.3,7.9H4.1c0.1-0.8,0.3-1.5,0.6-2.1c0.5,0.3,1.1,0.6,1.8,0.8C6.4,7,6.3,7.5,6.3,7.9z M7.8,5.8
		c0.4-1.4,1-2.6,1.7-3V6C8.9,6,8.3,5.9,7.8,5.8z M10.5,6V2.8c0.6,0.4,1.3,1.6,1.7,3C11.7,5.9,11.1,6,10.5,6z M13.5,6.6
		c0.7-0.2,1.3-0.5,1.8-0.8c0.3,0.6,0.6,1.4,0.6,2.1h-2.2C13.7,7.5,13.6,7,13.5,6.6z"/>
</g>
</svg>
