<?xml version="1.0" encoding="utf-8"?>
<!-- Generator: Adobe Illustrator 27.4.1, SVG Export Plug-In . SVG Version: 6.00 Build 0)  -->
<svg version="1.1" id="icons" xmlns="http://www.w3.org/2000/svg" xmlns:xlink="http://www.w3.org/1999/xlink" x="0px" y="0px"
	 viewBox="0 0 20 20" style="enable-background:new 0 0 20 20;" xml:space="preserve">
<g>
	<path d="M18.8,6.9l-1.9-5.1c-0.1-0.3-0.4-0.4-0.7-0.3l-2.7,1c-0.1,0.1-0.2,0.2-0.3,0.3c-0.1,0.1-0.1,0.3,0,0.4l0.1,0.3L4.3,6.8
		C4.1,6.9,4,7,4,7.1s-0.1,0.3,0,0.4l1.2,3.4c0.1,0.2,0.3,0.4,0.5,0.4c0.1,0,0.1,0,0.2,0l3.3-1.2l-3.3,7.7c-0.1,0.3,0,0.6,0.3,0.7
		c0.1,0,0.1,0,0.2,0c0.2,0,0.4-0.1,0.5-0.3l3.2-7.6l3.6,7.6c0.1,0.3,0.5,0.4,0.7,0.3c0.3-0.1,0.4-0.5,0.3-0.7l-3.9-8.3L15,7.9
		l0.1,0.3c0,0.1,0.2,0.2,0.3,0.3c0.1,0,0.2,0.1,0.2,0.1c0.1,0,0.1,0,0.2,0l2.7-1C18.8,7.5,18.9,7.2,18.8,6.9z M6,10L5.2,7.7l8.6-3.1
		l0.9,2.4L6,10z M15.9,7.4l-1.5-4.1l1.7-0.6l1.5,4.1L15.9,7.4z"/>
	<path d="M2.2,8.1C2.1,7.9,1.8,7.7,1.5,7.8C1.2,7.9,1.1,8.2,1.2,8.5l1.2,3.4c0.1,0.2,0.3,0.4,0.5,0.4c0.1,0,0.1,0,0.2,0
		c0.3-0.1,0.4-0.4,0.3-0.7L2.2,8.1z"/>
</g>
</svg>
