<?xml version="1.0" encoding="utf-8"?>
<!-- Generator: Adobe Illustrator 27.4.1, SVG Export Plug-In . SVG Version: 6.00 Build 0)  -->
<svg version="1.1" id="icons" xmlns="http://www.w3.org/2000/svg" xmlns:xlink="http://www.w3.org/1999/xlink" x="0px" y="0px"
	 viewBox="0 0 20 20" style="enable-background:new 0 0 20 20;" xml:space="preserve">
<g>
	<path d="M9.9,6.2C7.6,6.1,6.5,7.8,6.4,7.9C6.3,8.1,6.4,8.5,6.6,8.6c0.1,0.1,0.2,0.1,0.3,0.1c0.2,0,0.4-0.1,0.5-0.3
		c0,0,0.8-1.2,2.4-1.2c0.3,0,0.6-0.2,0.6-0.5C10.4,6.4,10.2,6.2,9.9,6.2z"/>
	<path d="M17.4,8h-1l-0.8-1.5V3c0-0.2-0.1-0.3-0.2-0.4c-0.1-0.1-0.3-0.2-0.4-0.1c-0.1,0-1.9,0.2-2.8,1.8c-0.7-0.2-1.3-0.3-2.1-0.3
		C7,3.9,4.3,6,3.6,8.8c0,0-0.1,0-0.1,0c-0.2,0.1-0.4,0-0.6-0.1C2.7,8.6,2.6,8.4,2.6,8.2C2.5,7.8,2.7,7.4,3.1,7.3
		C3.4,7.3,3.6,7,3.5,6.7C3.4,6.4,3.1,6.2,2.8,6.3c-1,0.3-1.6,1.3-1.3,2.3C1.6,9,1.9,9.4,2.4,9.7C2.6,9.8,3,9.9,3.3,9.9
		c0.1,0,0.1,0,0.2,0c0,0.1,0,0.2,0,0.3c0,1.5,0.5,2.9,1.5,4L5,17c0,0.1,0.1,0.3,0.2,0.4c0.1,0.1,0.2,0.2,0.4,0.2h2.6
		c0.3,0,0.5-0.2,0.5-0.5l0-0.7c1,0.2,2,0.2,2.9,0l0,0.7c0,0.1,0.1,0.3,0.2,0.4c0.1,0.1,0.2,0.2,0.4,0.2h2.6c0.1,0,0.3-0.1,0.4-0.2
		c0.1-0.1,0.2-0.2,0.2-0.4l0-2.7c0.6-0.6,0.9-1.2,1.1-1.6h1c0.6,0,1.1-0.5,1.1-1.2V9.2C18.5,8.5,18,8,17.4,8z M17.4,11.6H16
		c-0.2,0-0.4,0.1-0.5,0.4c0,0-0.3,0.9-1.1,1.7c-0.1,0.1-0.2,0.2-0.2,0.4l0,2.4h-1.5l0-0.8c0-0.3-0.2-0.6-0.5-0.6c0,0,0,0,0,0
		c-0.1,0-0.2,0-0.2,0.1c-1.1,0.3-2.5,0.3-3.6,0c-0.2-0.1-0.3,0-0.5,0.1c-0.1,0.1-0.2,0.3-0.2,0.4l0,0.8H6.1l0-2.5
		c0-0.1-0.1-0.3-0.2-0.4c-0.9-0.9-1.4-2.2-1.4-3.4C4.5,7.3,7.1,5,10.1,5c0.8,0,1.5,0.1,2.1,0.4c0.1,0.1,0.3,0.1,0.5,0
		c0.2-0.1,0.3-0.2,0.3-0.3c0.3-0.8,1-1.2,1.5-1.4v2.9c0,0.1,0,0.2,0.1,0.2l1,1.9C15.6,9,15.8,9.1,16,9.1l1.4,0.1L17.4,11.6z"/>
	<circle cx="13" cy="8.9" r="0.7"/>
</g>
</svg>
