<?xml version="1.0" encoding="utf-8"?>
<!-- Generator: Adobe Illustrator 27.4.1, SVG Export Plug-In . SVG Version: 6.00 Build 0)  -->
<svg version="1.1" id="icons" xmlns="http://www.w3.org/2000/svg" xmlns:xlink="http://www.w3.org/1999/xlink" x="0px" y="0px"
	 viewBox="0 0 20 20" style="enable-background:new 0 0 20 20;" xml:space="preserve">
<g>
	<path d="M17.4,1.5h-2.3c-0.6,0-1.1,0.5-1.1,1.1v14.9c0,0.6,0.5,1.1,1.1,1.1h2.3c0.6,0,1.1-0.5,1.1-1.1V2.6
		C18.5,1.9,18.1,1.5,17.4,1.5z M17.4,17.5l-2.3,0l0-14.9l0,0l2.3,0L17.4,17.5z"/>
	<path d="M11.1,9.5H8.9c-0.6,0-1.1,0.5-1.1,1.1v6.9c0,0.6,0.5,1.1,1.1,1.1h2.3c0.6,0,1.1-0.5,1.1-1.1v-6.9
		C12.2,9.9,11.8,9.5,11.1,9.5z M11.1,17.5l-2.3,0l0-6.9c0,0,0,0,0,0l2.3,0L11.1,17.5z"/>
	<path d="M4.8,13.5H2.6c-0.6,0-1.1,0.5-1.1,1.1v2.9c0,0.6,0.5,1.1,1.1,1.1h2.3c0.6,0,1.1-0.5,1.1-1.1v-2.9
		C5.9,13.9,5.5,13.5,4.8,13.5z M4.8,17.5l-2.3,0v-2.9c0,0,0,0,0,0l0-0.5v0.5l2.3,0L4.8,17.5z"/>
	<path d="M2,10.5c0.1,0,0.3-0.1,0.4-0.2l7-7l0,2.4C9.5,6,9.7,6.2,10,6.2c0,0,0,0,0,0c0.3,0,0.5-0.2,0.5-0.6l0-3.6
		c0-0.3-0.2-0.5-0.5-0.5l-3.7,0C6,1.5,5.8,1.7,5.8,2S6,2.5,6.3,2.5l2.3,0l-7,7c-0.2,0.2-0.2,0.6,0,0.8C1.7,10.5,1.9,10.5,2,10.5z"/>
</g>
</svg>
