<?xml version="1.0" encoding="utf-8"?>
<!-- Generator: Adobe Illustrator 27.4.1, SVG Export Plug-In . SVG Version: 6.00 Build 0)  -->
<svg version="1.1" id="icons" xmlns="http://www.w3.org/2000/svg" xmlns:xlink="http://www.w3.org/1999/xlink" x="0px" y="0px"
	 viewBox="0 0 20 20" style="enable-background:new 0 0 20 20;" xml:space="preserve">
<g>
	<path d="M18.4,14.9l-3.1-3c-0.2-0.2-0.6-0.2-0.8,0l-2.8,2.8c-0.1,0.1-0.2,0.2-0.2,0.4c0,0.1,0.1,0.3,0.2,0.4l3.1,3
		c0.1,0.1,0.2,0.2,0.4,0.2c0.1,0,0.3-0.1,0.4-0.2l2.8-2.8c0.1-0.1,0.2-0.2,0.2-0.4C18.5,15.1,18.5,15,18.4,14.9z M15.2,17.2L12.9,15
		l2-2l2.3,2.2L15.2,17.2z"/>
	<path d="M17.1,9.1c1.4-1.4,1.7-3.5,0.8-5.2c-0.1-0.2-0.2-0.3-0.4-0.3c-0.2,0-0.3,0-0.5,0.2l-2.6,2.6l-0.9-0.9l2.6-2.6
		c0.1-0.1,0.2-0.3,0.2-0.5c0-0.2-0.1-0.3-0.3-0.4c-1.7-0.9-3.8-0.6-5.2,0.8C9.7,4,9.3,5.7,9.7,7.2L8.8,8.1c0,0,0,0,0,0L7.5,6.8
		l0.1-2.5c0-0.2-0.1-0.4-0.2-0.5L3.8,1.5C3.6,1.4,3.3,1.4,3.1,1.6L1.6,3.1C1.4,3.2,1.4,3.5,1.5,3.7l2.2,3.7C3.9,7.6,4,7.7,4.2,7.7
		l2.5-0.1L8,8.9c0,0,0,0,0,0l-5.5,5.5C2.2,14.8,2,15.3,2,15.9s0.2,1.1,0.6,1.5C3,17.8,3.5,18,4.1,18c0.5,0,1.1-0.2,1.5-0.6l7.1-7.1
		C14.3,10.7,16,10.3,17.1,9.1z M6.4,6.5l-1.9,0l-1.8-3l0.8-0.8l2.9,2L6.4,6.5z M12.2,9.2l-7.4,7.4c-0.4,0.4-1,0.4-1.4,0
		c-0.2-0.2-0.3-0.4-0.3-0.7c0-0.3,0.1-0.5,0.3-0.7l7.4-7.4c0.2-0.2,0.2-0.4,0.1-0.6c-0.5-1.2-0.2-2.7,0.7-3.6c0.6-0.6,1.5-1,2.3-1
		c0.3,0,0.6,0,0.8,0.1L12.6,5c-0.3,0.3-0.3,0.7,0,1L14,7.4c0.3,0.3,0.7,0.3,1,0l2.2-2.2c0.3,1.1,0,2.3-0.9,3.2
		c-0.9,0.9-2.4,1.2-3.6,0.7C12.6,9,12.3,9.1,12.2,9.2z"/>
</g>
</svg>
