<?xml version="1.0" encoding="utf-8"?>
<!-- Generator: Adobe Illustrator 27.4.1, SVG Export Plug-In . SVG Version: 6.00 Build 0)  -->
<svg version="1.1" id="icons" xmlns="http://www.w3.org/2000/svg" xmlns:xlink="http://www.w3.org/1999/xlink" x="0px" y="0px"
	 viewBox="0 0 20 20" style="enable-background:new 0 0 20 20;" xml:space="preserve">
<g>
	<path d="M14,17.5h-1.5v-2.1v-1.4c0-0.8-0.4-1.6-1-2L8.9,10l1.2-0.9c0.2-0.2,0.3-0.5,0.1-0.8C10,8.1,9.7,8.1,9.4,8.3L8,9.3L5.1,7.2
		C4.8,6.9,4.5,6.5,4.5,6V5.6h4.2c0.3,0,0.5-0.2,0.5-0.5S9.1,4.5,8.8,4.5H4.5V2.5h4.2c0.3,0,0.5-0.2,0.5-0.5S9.1,1.5,8.8,1.5H4H2
		C1.7,1.5,1.5,1.7,1.5,2S1.7,2.5,2,2.5h1.5V6c0,0.8,0.4,1.6,1,2.1L7.1,10l-2.6,1.9c-0.6,0.5-1,1.2-1,2.1v1.4v2.1H2
		c-0.3,0-0.5,0.2-0.5,0.5s0.2,0.5,0.5,0.5h2h8h2c0.3,0,0.5-0.2,0.5-0.5S14.3,17.5,14,17.5z M5.1,12.8L8,10.7l2.9,2.1
		c0.4,0.3,0.6,0.7,0.6,1.2v0.5c-2.2-1-4.7-1-6.9,0V14C4.5,13.5,4.8,13.1,5.1,12.8z M4.5,17.5v-1.8c2.2-1.2,4.7-1.2,6.9,0v1.8H4.5z"
		/>
	<path d="M18,4.5h-2.5V2c0-0.3-0.2-0.5-0.5-0.5S14.5,1.7,14.5,2v2.5H12c-0.3,0-0.5,0.2-0.5,0.5s0.2,0.5,0.5,0.5h2.5V8
		c0,0.3,0.2,0.5,0.5,0.5s0.5-0.2,0.5-0.5V5.5H18c0.3,0,0.5-0.2,0.5-0.5S18.3,4.5,18,4.5z"/>
</g>
</svg>
