<?xml version="1.0" encoding="utf-8"?>
<!-- Generator: Adobe Illustrator 27.4.1, SVG Export Plug-In . SVG Version: 6.00 Build 0)  -->
<svg version="1.1" id="icons" xmlns="http://www.w3.org/2000/svg" xmlns:xlink="http://www.w3.org/1999/xlink" x="0px" y="0px"
	 viewBox="0 0 20 20" style="enable-background:new 0 0 20 20;" xml:space="preserve">
<g>
	<path d="M13.9,8.7c-0.1-0.3-0.5-0.4-0.7-0.2L9,10.6L2.6,7.2l0-1.2L9,2.6l1.6,0.9c0.3,0.1,0.6,0,0.7-0.2c0.1-0.3,0-0.6-0.2-0.7
		l-1.9-1c-0.2-0.1-0.4-0.1-0.5,0l-7,3.7C1.6,5.3,1.5,5.5,1.5,5.7l0,1.9c0,0.2,0.1,0.4,0.3,0.5l0.5,0.3L1.8,8.6
		C1.6,8.7,1.5,8.9,1.5,9.1l0,1.9c0,0.2,0.1,0.4,0.3,0.5l0.5,0.3L1.8,12c-0.2,0.1-0.3,0.3-0.3,0.5l0,1.9c0,0.2,0.1,0.4,0.3,0.5l7,3.7
		c0.1,0,0.2,0.1,0.3,0.1s0.2,0,0.3-0.1l4.4-2.3c0.3-0.1,0.4-0.5,0.2-0.7c-0.1-0.3-0.5-0.4-0.7-0.2L9,17.4L2.6,14l0-1.2l0.9-0.5
		l5.3,2.8c0.1,0,0.2,0.1,0.3,0.1s0.2,0,0.3-0.1l4.4-2.3c0.3-0.1,0.4-0.5,0.2-0.7c-0.1-0.3-0.5-0.4-0.7-0.2l-1.5,0.8c0,0,0,0,0,0
		c0-0.4-0.3-0.8-0.8-0.8c-0.4,0-0.8,0.3-0.8,0.8c0,0.3,0.1,0.5,0.3,0.6L9,14l-1.7-0.9c0.3-0.1,0.5-0.4,0.5-0.7
		c0-0.4-0.3-0.8-0.8-0.8c-0.4,0-0.8,0.3-0.8,0.8c0,0.1,0,0.1,0,0.2l-3.8-2l0-1.2l0.9-0.5l0.7,0.4C4,9.5,3.8,9.7,3.8,9.9
		c0,0.4,0.3,0.8,0.8,0.8c0.4,0,0.8-0.3,0.8-0.8c0,0,0,0,0,0l3.4,1.8c0.1,0,0.2,0.1,0.3,0.1s0.2,0,0.3-0.1l2.4-1.3
		c0.1,0.3,0.4,0.5,0.7,0.5c0.4,0,0.8-0.3,0.8-0.8c0-0.2-0.1-0.3-0.1-0.4l0.6-0.3C13.9,9.3,14,9,13.9,8.7z"/>
	<path d="M18.4,4.2l-2.6-2.6c-0.2-0.2-0.6-0.2-0.8,0l-2.6,2.6c-0.2,0.2-0.2,0.6,0,0.8s0.6,0.2,0.8,0l1.7-1.7v5.9
		c0,0.3,0.2,0.5,0.5,0.5S16,9.5,16,9.2V3.3L17.6,5c0.1,0.1,0.2,0.2,0.4,0.2c0.1,0,0.3-0.1,0.4-0.2C18.6,4.7,18.6,4.4,18.4,4.2z"/>
</g>
</svg>
