<?xml version="1.0" encoding="utf-8"?>
<!-- Generator: Adobe Illustrator 27.4.1, SVG Export Plug-In . SVG Version: 6.00 Build 0)  -->
<svg version="1.1" id="Ebene_2_00000125586578537758352200000017538857653497666457_"
	 xmlns="http://www.w3.org/2000/svg" xmlns:xlink="http://www.w3.org/1999/xlink" x="0px" y="0px" viewBox="0 0 18 17.1"
	 style="enable-background:new 0 0 18 17.1;" xml:space="preserve">
<g>
	<path d="M6.2,10C5.9,9.8,5.5,9.5,4.9,9.6c-0.4,0.1-0.8,0.3-1,0.6c-0.3,0.5-0.3,1.1,0,1.8c0.1,0.3,0.5,1.1,1.3,1.4
		c0.2,0.1,0.4,0.1,0.7,0.1c0.3,0,0.5-0.1,0.8-0.2c0.9-0.4,1.5-1.3,1.7-1.8c0,0,0.1,0,0.1,0c0.3,0,0.6-0.1,0.8-0.2
		c0.5,0.2,0.6,0.4,0.7,0.9c0.1,0.4,0.2,0.8,0.6,1.2c0.3,0.2,0.6,0.3,0.9,0.3c0.1,0,0.2,0,0.3,0c0.5-0.1,1-0.5,1.3-1.2
		c0.2-0.3,0.5-1.1,0.2-1.9c-0.2-0.5-0.5-0.9-1-1.1c-0.9-0.4-1.9-0.2-2.4-0.1C9.7,9.2,9.5,9,9.2,8.9c0.1-0.3,0.2-0.5,0.5-0.6
		c0.3-0.2,0.7-0.4,0.9-1c0.1-0.4,0.1-0.8-0.1-1.2c-0.3-0.4-0.9-0.8-1.6-0.8C8.5,5.3,7.7,5.2,7,5.8C6.6,6.1,6.4,6.6,6.4,7.1
		C6.3,8.2,6.9,9,7.2,9.4C7.1,9.6,7,9.9,7,10.1C6.7,10.2,6.5,10.1,6.2,10z M6.3,12.5c-0.3,0.1-0.5,0.1-0.7,0C5.2,12.4,5,12,4.9,11.7
		c-0.1-0.4-0.2-0.7,0-0.9c0-0.1,0.1-0.1,0.3-0.2c0.2,0,0.3,0,0.6,0.2C6,11,6.5,11.3,7.3,11.1c0,0.1,0.1,0.1,0.1,0.2
		C7.3,11.6,6.9,12.2,6.3,12.5z M8.5,10.7c-0.3,0-0.5-0.2-0.5-0.5s0.2-0.5,0.5-0.5S9,9.9,9,10.2S8.8,10.7,8.5,10.7z M11.8,10.5
		c0.3,0.1,0.4,0.3,0.5,0.5c0.1,0.4,0,0.8-0.2,1.1c-0.2,0.3-0.4,0.6-0.7,0.6c-0.1,0-0.2,0-0.3-0.1c-0.1-0.1-0.2-0.3-0.2-0.6
		c-0.1-0.4-0.2-1.1-1-1.5c0,0,0-0.1,0-0.1C10.2,10.5,11.1,10.2,11.8,10.5z M7.7,6.5C8,6.3,8.4,6.2,8.8,6.3c0.4,0,0.7,0.2,0.8,0.4
		c0,0.1,0.1,0.1,0,0.3C9.6,7.1,9.4,7.2,9.2,7.4c-0.4,0.2-0.9,0.6-1,1.3C8.1,8.7,8,8.8,8,8.8C7.8,8.5,7.3,7.9,7.4,7.2
		C7.4,6.9,7.5,6.7,7.7,6.5z"/>
	<path d="M14.9,9.7c-0.3,0-0.5,0.3-0.5,0.6l0.1,5.8H2.8L2.7,5.8l5.9-4.5L10,2.3c0.2,0.2,0.6,0.1,0.8-0.1C11,2,10.9,1.7,10.7,1.5
		L8.9,0.1C8.7,0,8.4,0,8.2,0.1l-8,6.2C0,6.5-0.1,6.8,0.1,7c0.1,0.1,0.3,0.2,0.4,0.2c0.1,0,0.2,0,0.3-0.1l0.7-0.6l0.1,10
		c0,0.3,0.2,0.5,0.5,0.5H15c0.1,0,0.3-0.1,0.4-0.2c0.1-0.1,0.2-0.2,0.2-0.4l-0.1-6.3C15.4,9.9,15.1,9.7,14.9,9.7z"/>
	<path d="M17.8,2.7l-2.6-2.6c-0.2-0.2-0.6-0.2-0.8,0l-2.6,2.6c-0.2,0.2-0.2,0.6,0,0.8c0.2,0.2,0.6,0.2,0.8,0l1.7-1.7v5.9
		c0,0.3,0.2,0.5,0.5,0.5s0.5-0.2,0.5-0.5V1.9l1.6,1.6c0.1,0.1,0.2,0.2,0.4,0.2c0.1,0,0.3-0.1,0.4-0.2C18.1,3.3,18.1,2.9,17.8,2.7z"
		/>
</g>
</svg>
