<?xml version="1.0" encoding="utf-8"?>
<!-- Generator: Adobe Illustrator 27.4.1, SVG Export Plug-In . SVG Version: 6.00 Build 0)  -->
<svg version="1.1" id="icons" xmlns="http://www.w3.org/2000/svg" xmlns:xlink="http://www.w3.org/1999/xlink" x="0px" y="0px"
	 viewBox="0 0 20 20" style="enable-background:new 0 0 20 20;" xml:space="preserve">
<g>
	<path d="M10.8,13.3H9.2c-1.9,0-3.5,1.3-3.9,3.2c-0.1,0.4,0,0.8,0.2,1.1C5.7,17.8,6,17.9,6.3,18c0.3,0.1,1.7,0.5,3.6,0.5
		c1.9,0,3.5-0.5,3.8-0.5c0.3-0.1,0.6-0.2,0.8-0.5c0.2-0.3,0.3-0.7,0.2-1.1C14.3,14.6,12.7,13.3,10.8,13.3z M13.6,16.8
		c0,0-0.1,0.1-0.1,0.1l-0.1,0c0,0-1.6,0.5-3.5,0.5c-1.9,0-3.3-0.5-3.3-0.5l-0.1,0c-0.1,0-0.1,0-0.1-0.1c0-0.1,0-0.1,0-0.2
		c0.3-1.4,1.5-2.3,2.8-2.3h1.7c1.3,0,2.5,1,2.8,2.3C13.7,16.7,13.7,16.8,13.6,16.8z"/>
	<path d="M12.4,10c0-1.3-1.1-2.4-2.4-2.4c-1.3,0-2.4,1.1-2.4,2.4c0,1.3,1.1,2.4,2.4,2.4C11.3,12.4,12.4,11.3,12.4,10z M8.7,10
		c0-0.7,0.6-1.3,1.3-1.3s1.3,0.6,1.3,1.3s-0.6,1.3-1.3,1.3S8.7,10.7,8.7,10z"/>
	<path d="M18.3,7.7l-8-6.1l0,0c0,0,0,0,0,0l0,0c0,0,0,0,0,0c0,0-0.1,0-0.1-0.1c0,0-0.1,0-0.1,0c0,0-0.1,0-0.1,0s-0.1,0-0.1,0
		c0,0-0.1,0-0.1,0c0,0-0.1,0-0.1,0.1c0,0,0,0,0,0l0,0c0,0,0,0,0,0l0,0l-8,6.1C1.4,7.9,1.4,8.2,1.6,8.5C1.7,8.6,1.8,8.7,2,8.7
		c0.1,0,0.2,0,0.3-0.1l2-1.5v3.1c0,0.3,0.2,0.5,0.5,0.5s0.5-0.2,0.5-0.5V6.2L10,2.7l4.6,3.5v3.9c0,0.3,0.2,0.5,0.5,0.5
		s0.5-0.2,0.5-0.5V7.1l2,1.5c0.1,0.1,0.2,0.1,0.3,0.1c0.2,0,0.3-0.1,0.4-0.2C18.6,8.2,18.6,7.9,18.3,7.7z"/>
</g>
</svg>
