<?xml version="1.0" encoding="utf-8"?>
<!-- Generator: Adobe Illustrator 27.4.1, SVG Export Plug-In . SVG Version: 6.00 Build 0)  -->
<svg version="1.1" id="icons" xmlns="http://www.w3.org/2000/svg" xmlns:xlink="http://www.w3.org/1999/xlink" x="0px" y="0px"
	 viewBox="0 0 20 20" style="enable-background:new 0 0 20 20;" xml:space="preserve">
<g>
	<path d="M18.5,11c-0.3-1.4-1.4-2.3-2.8-2.3h-1.1c-1.3,0-2.4,0.9-2.7,2.2c-0.3-0.1-0.7-0.1-1-0.1H9.1c-0.4,0-0.7,0.1-1.1,0.2
		C7.7,9.6,6.6,8.7,5.3,8.7H4.2c-1.3,0-2.4,1-2.8,2.3c-0.1,0.3,0.1,0.6,0.4,0.7c0.3,0.1,0.6-0.1,0.7-0.4c0.2-0.9,0.9-1.5,1.7-1.5h1.1
		c0.8,0,1.5,0.6,1.7,1.5c0,0,0,0.1,0,0.1c-1,0.6-1.7,1.6-2,2.8c-0.1,0.4,0,0.8,0.2,1.1c0.2,0.3,0.5,0.5,0.9,0.5
		c0.3,0.1,1.8,0.6,3.9,0.6c2,0,3.7-0.5,4-0.6c0.3-0.1,0.7-0.2,0.9-0.5c0.2-0.3,0.3-0.7,0.2-1.1c-0.3-1.2-1.1-2.2-2.1-2.8
		c0,0,0,0,0,0c0.2-0.9,0.9-1.5,1.7-1.5h1.1c0.8,0,1.5,0.6,1.7,1.5c0.1,0.3,0.3,0.4,0.5,0.4c0,0,0.1,0,0.1,0
		C18.4,11.6,18.6,11.3,18.5,11z M14,14.3c0,0.1,0,0.2,0,0.2c0,0-0.1,0.1-0.1,0.1c0,0-0.1,0-0.1,0c0,0-1.7,0.5-3.7,0.5
		c-2,0-3.5-0.5-3.5-0.5c0,0-0.1,0-0.1,0c-0.1,0-0.1-0.1-0.1-0.1c0-0.1-0.1-0.1,0-0.2c0.3-1.5,1.6-2.5,3-2.5h1.8
		C12.4,11.9,13.6,12.9,14,14.3z"/>
	<path d="M15.2,7.6c1.1,0,2-0.9,2-2s-0.9-2-2-2s-2,0.9-2,2S14.1,7.6,15.2,7.6z M15.2,4.8c0.5,0,0.9,0.4,0.9,0.9s-0.4,0.9-0.9,0.9
		s-0.9-0.4-0.9-0.9S14.7,4.8,15.2,4.8z"/>
	<path d="M10,9.4c1.4,0,2.5-1.1,2.5-2.5S11.4,4.4,10,4.4c-1.4,0-2.5,1.1-2.5,2.5S8.6,9.4,10,9.4z M10,5.5c0.8,0,1.4,0.6,1.4,1.4
		c0,0.8-0.6,1.4-1.4,1.4S8.6,7.7,8.6,6.9C8.6,6.1,9.2,5.5,10,5.5z"/>
	<path d="M4.8,7.6c1.1,0,2-0.9,2-2s-0.9-2-2-2s-2,0.9-2,2S3.7,7.6,4.8,7.6z M4.8,4.8c0.5,0,0.9,0.4,0.9,0.9S5.3,6.5,4.8,6.5
		S3.9,6.1,3.9,5.7S4.3,4.8,4.8,4.8z"/>
</g>
</svg>
