<?xml version="1.0" encoding="utf-8"?>
<!-- Generator: Adobe Illustrator 27.4.1, SVG Export Plug-In . SVG Version: 6.00 Build 0)  -->
<svg version="1.1" id="icons" xmlns="http://www.w3.org/2000/svg" xmlns:xlink="http://www.w3.org/1999/xlink" x="0px" y="0px"
	 viewBox="0 0 20 20" style="enable-background:new 0 0 20 20;" xml:space="preserve">
<g>
	<path d="M6.5,10.4H6c-0.3,0-0.5,0.2-0.5,0.5s0.2,0.5,0.5,0.5h8c0.3,0,0.5-0.2,0.5-0.5s-0.2-0.5-0.5-0.5h-0.7l3.4-3.4
		c0.2-0.2,0.2-0.6,0-0.8l-4.5-4.5c-0.2-0.2-0.6-0.2-0.8,0L5,8.1C4.9,8.2,4.8,8.3,4.8,8.5S4.9,8.8,5,8.9L6.5,10.4z M11.8,2.8l3.8,3.8
		l-3.8,3.8H8L6.1,8.5L11.8,2.8z"/>
	<path d="M18.5,14.4c0-0.1,0-0.2,0-0.3l-1.1-3.3c-0.1-0.3-0.4-0.4-0.7-0.3c-0.3,0.1-0.4,0.4-0.3,0.7l0.9,2.6H10H2.8l0.9-2.6
		c0.1-0.3-0.1-0.6-0.3-0.7c-0.3-0.1-0.6,0.1-0.7,0.3l-1.1,3.3c0,0.1,0,0.2,0,0.3c0,0,0,0.1,0,0.1V18c0,0.3,0.2,0.5,0.5,0.5h16
		c0.3,0,0.5-0.2,0.5-0.5v-3.5C18.5,14.5,18.5,14.4,18.5,14.4z M2.5,17.5v-2.6H10h7.5v2.6H2.5z"/>
</g>
</svg>
