<?xml version="1.0" encoding="utf-8"?>
<!-- Generator: Adobe Illustrator 27.4.1, SVG Export Plug-In . SVG Version: 6.00 Build 0)  -->
<svg version="1.1" id="icons" xmlns="http://www.w3.org/2000/svg" xmlns:xlink="http://www.w3.org/1999/xlink" x="0px" y="0px"
	 viewBox="0 0 20 20" style="enable-background:new 0 0 20 20;" xml:space="preserve">
<g>
	<path d="M18,15.5H2c-0.3,0-0.5,0.2-0.5,0.5s0.2,0.5,0.5,0.5h16c0.3,0,0.5-0.2,0.5-0.5S18.3,15.5,18,15.5z"/>
	<path d="M4.8,14.2h10.3c1,0,1.9-0.8,1.9-1.9V5.2c0-1-0.8-1.9-1.9-1.9H4.8C3.8,3.4,3,4.2,3,5.2v7.1C3,13.4,3.8,14.2,4.8,14.2z
		 M4,5.2c0-0.4,0.4-0.8,0.8-0.8h10.3c0.4,0,0.8,0.4,0.8,0.8v7.1c0,0.4-0.4,0.8-0.8,0.8H4.8c-0.4,0-0.8-0.4-0.8-0.8V5.2z"/>
</g>
</svg>
