<?xml version="1.0" encoding="utf-8"?>
<!-- Generator: Adobe Illustrator 27.4.1, SVG Export Plug-In . SVG Version: 6.00 Build 0)  -->
<svg version="1.1" id="icons" xmlns="http://www.w3.org/2000/svg" xmlns:xlink="http://www.w3.org/1999/xlink" x="0px" y="0px"
	 viewBox="0 0 20 20" style="enable-background:new 0 0 20 20;" xml:space="preserve">
<g>
	<path d="M11.5,15h-3C8.2,15,8,15.2,8,15.5s0.2,0.5,0.5,0.5h3c0.3,0,0.5-0.2,0.5-0.5S11.8,15,11.5,15z"/>
	<path d="M13.3,1.5H6.7c-1.1,0-2,1-2,2.2v12.6c0,1.2,0.9,2.2,2,2.2h6.6c1.1,0,2-1,2-2.2V3.7C15.3,2.5,14.4,1.5,13.3,1.5z M6.7,2.5
		h6.6c0.5,0,0.9,0.5,0.9,1.1V4H5.8V3.7C5.8,3.1,6.2,2.5,6.7,2.5z M13.3,17.5H6.7c-0.5,0-0.9-0.5-0.9-1.1V5.1h8.5v11.2
		C14.2,16.9,13.8,17.5,13.3,17.5z"/>
</g>
</svg>
