<?xml version="1.0" encoding="utf-8"?>
<!-- Generator: Adobe Illustrator 27.4.1, SVG Export Plug-In . SVG Version: 6.00 Build 0)  -->
<svg version="1.1" id="Ebene_2_00000112604201771176835610000016583529267525952438_"
	 xmlns="http://www.w3.org/2000/svg" xmlns:xlink="http://www.w3.org/1999/xlink" x="0px" y="0px" viewBox="0 0 16.8 18.9"
	 style="enable-background:new 0 0 16.8 18.9;" xml:space="preserve">
<g>
	<path d="M10.9,6.3v-2c0-1.3-1.2-2.4-2.6-2.4C6.9,1.9,5.8,3,5.8,4.3v2C4.8,6.3,4,7.1,4,8.1V12c0,1,0.8,1.8,1.8,1.8h5.1
		c1,0,1.8-0.8,1.8-1.8V8.1C12.7,7.1,11.9,6.3,10.9,6.3z M8.3,2.9c0.9,0,1.6,0.6,1.6,1.4v2H6.8v-2C6.8,3.5,7.5,2.9,8.3,2.9z M11.7,12
		c0,0.5-0.4,0.8-0.8,0.8H5.8C5.3,12.8,5,12.5,5,12V8.1c0-0.5,0.4-0.8,0.8-0.8h5.1c0.5,0,0.8,0.4,0.8,0.8V12z"/>
	<path d="M15.2,1.2C13.4,0.7,10.7,0,8.4,0C6,0,3.4,0.7,1.6,1.2C0.6,1.6-0.1,2.5,0,3.6c0.2,2.1,0.6,6.1,1.6,8.8
		c1.2,3.3,4,5.3,5.5,6.2c0.4,0.2,0.8,0.3,1.2,0.3s0.8-0.1,1.2-0.3c1.5-0.9,4.3-2.8,5.5-6.2c1-2.7,1.5-6.7,1.6-8.8
		C16.8,2.5,16.2,1.6,15.2,1.2z M14.2,12.1c-1.1,3-3.7,4.8-5.1,5.6c-0.4,0.2-1,0.2-1.4,0c-1.4-0.8-4-2.6-5.1-5.6
		C1.6,9.4,1.2,5.6,1,3.5C1,2.9,1.3,2.4,1.9,2.2C3.3,1.7,6.1,1,8.4,1s5.1,0.7,6.5,1.2c0.6,0.2,1,0.7,0.9,1.3
		C15.6,5.6,15.1,9.5,14.2,12.1z"/>
</g>
</svg>
