<?xml version="1.0" encoding="utf-8"?>
<!-- Generator: Adobe Illustrator 27.4.1, SVG Export Plug-In . SVG Version: 6.00 Build 0)  -->
<svg version="1.1" id="icons" xmlns="http://www.w3.org/2000/svg" xmlns:xlink="http://www.w3.org/1999/xlink" x="0px" y="0px"
	 viewBox="0 0 20 20" style="enable-background:new 0 0 20 20;" xml:space="preserve">
<path d="M16.5,7.6c0-0.5-0.2-1-0.5-1.3c-0.3-0.3-0.8-0.5-1.2-0.5h0V4.4c0-0.4-0.2-0.9-0.5-1.2C14,2.8,13.5,2.6,13,2.6c0,0,0,0,0,0
	c-0.3,0-0.5,0.1-0.8,0.2C12.1,2.5,12,2.2,11.8,2c-0.3-0.3-0.9-0.5-1.3-0.5c-0.5,0-1,0.2-1.3,0.5C8.8,2.2,8.7,2.5,8.6,2.8
	C8.4,2.7,8.1,2.6,7.9,2.6c0,0,0,0,0,0c-0.5,0-1,0.2-1.3,0.5C6.3,3.3,6.2,3.5,6.1,3.7C5.9,3.6,5.6,3.5,5.3,3.5c0,0,0,0,0,0
	c-0.5,0-1,0.2-1.3,0.5C3.6,4.4,3.4,4.8,3.5,5.3v2.7c0,0.1,0,0.1,0,0.2c0,0,0,0.1,0,0.1v1.7c0,1.4,0.7,2.7,2,3.7c0,0,0,0,0,0V18
	c0,0.3,0.2,0.5,0.5,0.5H14c0.3,0,0.5-0.2,0.5-0.5v-4.4c1.3-1,2-2.3,2-3.7L16.5,7.6C16.5,7.7,16.5,7.6,16.5,7.6z M13,3.7
	C13,3.7,13,3.7,13,3.7c0.2,0,0.4,0.1,0.6,0.2c0.1,0.1,0.2,0.2,0.2,0.4v1.5h-1.5V4.3c0-0.2,0.1-0.3,0.2-0.4C12.5,3.8,12.7,3.7,13,3.7
	z M9.7,5.9V3.2c0-0.2,0.1-0.3,0.2-0.4c0.1-0.1,0.4-0.2,0.6-0.2c0.2,0,0.4,0.1,0.6,0.2c0.1,0.1,0.2,0.2,0.2,0.4v1.1c0,0,0,0,0,0.1
	v1.5C11.1,6,11,6.2,11,6.3c-0.1,0.1-0.3,0.3-0.6,0.2c-0.2,0-0.4-0.1-0.6-0.2C9.8,6.2,9.7,6,9.7,5.9C9.7,5.9,9.7,5.9,9.7,5.9z M7.1,7
	V4.4C7.1,4.2,7.2,4,7.3,4c0.1-0.1,0.4-0.2,0.6-0.2c0.2,0,0.4,0.1,0.6,0.2C8.5,4,8.6,4.2,8.6,4.4V7c0,0.2-0.1,0.3-0.2,0.4
	C8.3,7.6,8.1,7.7,7.8,7.7c0,0,0,0,0,0c-0.2,0-0.4-0.1-0.6-0.2C7.2,7.4,7.1,7.2,7.1,7C7.1,7,7.1,7,7.1,7z M4.5,7.9V5.3
	c0-0.2,0.1-0.3,0.2-0.4c0.1-0.1,0.3-0.2,0.6-0.2c0,0,0,0,0,0c0.2,0,0.4,0.1,0.6,0.2C5.9,4.9,6,5.1,6,5.3V8c0,0.2-0.1,0.3-0.2,0.4
	C5.7,8.5,5.5,8.6,5.3,8.6c-0.2,0-0.4-0.1-0.6-0.2C4.6,8.3,4.5,8.1,4.5,7.9C4.5,8,4.5,7.9,4.5,7.9z M15.5,9.9c0,1.1-0.6,2.2-1.7,3
	c-0.1,0.1-0.2,0.3-0.2,0.5v4.2h-7v-3.2C7.2,14.6,8,14.8,8.8,15c0,0,0.1,0,0.1,0c0.3,0,0.5-0.2,0.5-0.5c0-0.3-0.2-0.6-0.5-0.6
	c-1-0.1-1.9-0.5-2.7-1c-1.1-0.8-1.7-1.9-1.7-3V9.5C4.8,9.6,5,9.7,5.3,9.7c0,0,0,0,0,0c0.5,0,1-0.2,1.3-0.5C6.8,9,6.9,8.8,7,8.6
	c0.3,0.1,0.5,0.2,0.8,0.2c0,0,0,0,0,0c0.5,0,1-0.2,1.3-0.5C9.4,8,9.6,7.7,9.6,7.4c0.2,0.1,0.5,0.2,0.8,0.2c0,0,0,0.1,0,0.1
	c0,0.5,0.2,1,0.5,1.3c0.1,0.1,0.3,0.2,0.5,0.3c-0.8,0.6-1.6,1.5-1.6,3c0,0.3,0.2,0.5,0.5,0.5s0.5-0.2,0.5-0.5c0-2.1,2.6-2.8,2.7-2.8
	c0.2,0,0.3-0.2,0.4-0.3c0,0,0,0,0,0c0,0,0-0.1,0-0.1c0,0,0,0,0,0c0,0,0,0,0-0.1c0,0,0,0,0,0c0,0,0,0,0,0c-0.1-0.2-0.3-0.4-0.5-0.4
	h-1.4c0,0,0,0,0,0c-0.2,0-0.3-0.1-0.4-0.2c-0.1-0.1-0.2-0.3-0.2-0.5c0-0.2,0.1-0.4,0.2-0.5c0.1-0.1,0.2-0.2,0.4-0.2h2.7c0,0,0,0,0,0
	c0.2,0,0.3,0.1,0.4,0.2c0.1,0.1,0.2,0.3,0.2,0.5c0,0,0,0,0,0c0,0,0,0,0,0V9.9z"/>
</svg>
