<?xml version="1.0" encoding="utf-8"?>
<!-- Generator: Adobe Illustrator 27.4.1, SVG Export Plug-In . SVG Version: 6.00 Build 0)  -->
<svg version="1.1" id="icons" xmlns="http://www.w3.org/2000/svg" xmlns:xlink="http://www.w3.org/1999/xlink" x="0px" y="0px"
	 viewBox="0 0 20 20" style="enable-background:new 0 0 20 20;" xml:space="preserve">
<path d="M18.5,12C18.5,12,18.5,12,18.5,12l-2.1-4.8c0.3,0.1,0.7,0.3,1.2,0.4c0,0,0.1,0,0.1,0c0.2,0,0.5-0.2,0.5-0.4
	c0.1-0.3-0.1-0.6-0.4-0.7c-1.3-0.3-2-0.8-2.6-1.2c-0.5-0.3-0.9-0.5-1.4-0.7c-0.5-0.1-1.1-0.1-1.7,0c-0.5,0.1-1.1,0.1-1.7,0.1V2
	c0-0.3-0.2-0.5-0.5-0.5S9.5,1.7,9.5,2v2.4C9,4.2,8.7,3.9,8.4,3.6C7.9,3.3,7.5,2.9,6.9,2.8c-0.5-0.1-1-0.1-1.6-0.1
	c-0.7,0-1.6,0-2.9-0.3C2.2,2.3,1.9,2.4,1.8,2.7C1.7,3,1.9,3.3,2.2,3.4c0.6,0.2,1.1,0.2,1.6,0.3L1.5,8.9c0,0,0,0,0,0
	c0,0.1,0,0.1,0,0.2v0.5c0,1.7,1.4,3,3,3s3-1.4,3-3V9.2c0-0.1,0-0.1,0-0.2c0,0,0,0,0,0L5.3,3.8c0,0,0.1,0,0.1,0c0.5,0,0.9,0,1.3,0.1
	C7,3.9,7.3,4.2,7.7,4.5c0.5,0.4,1,0.8,1.8,1.1v11.9H5c-0.3,0-0.5,0.2-0.5,0.5s0.2,0.5,0.5,0.5h10c0.3,0,0.5-0.2,0.5-0.5
	s-0.2-0.5-0.5-0.5h-4.5V5.9c0.7,0.1,1.3,0,1.8-0.1c0.5-0.1,0.9-0.1,1.2,0C14,5.8,14.3,6,14.7,6.3c0.1,0,0.1,0.1,0.2,0.1L12.5,12
	c0,0,0,0,0,0c0,0.1,0,0.1,0,0.2v0.5c0,1.7,1.4,3,3,3s3-1.4,3-3v-0.5C18.5,12.1,18.5,12,18.5,12z M4.5,11.6c-1.1,0-1.9-0.8-1.9-1.9
	h3.9C6.4,10.8,5.6,11.6,4.5,11.6z M6.2,8.6H2.8l1.7-3.9L6.2,8.6z M15.5,7.8l1.7,3.9h-3.3L15.5,7.8z M15.5,14.6
	c-1.1,0-1.9-0.8-1.9-1.9h3.9C17.4,13.8,16.6,14.6,15.5,14.6z"/>
</svg>
