<?xml version="1.0" encoding="utf-8"?>
<!-- Generator: Adobe Illustrator 27.4.1, SVG Export Plug-In . SVG Version: 6.00 Build 0)  -->
<svg version="1.1" id="icons" xmlns="http://www.w3.org/2000/svg" xmlns:xlink="http://www.w3.org/1999/xlink" x="0px" y="0px"
	 viewBox="0 0 20 20" style="enable-background:new 0 0 20 20;" xml:space="preserve">
<g>
	<path d="M18.5,5.7C18.5,5.7,18.5,5.7,18.5,5.7c0-0.2-0.1-0.3-0.1-0.3c0,0,0,0,0,0l-3.9-3.8c0,0,0,0,0,0l0,0c0,0,0,0,0,0
		c-0.1-0.1-0.1-0.1-0.2-0.1c0,0,0,0-0.1,0c0,0,0,0-0.1,0H5.4C5.1,1.5,4.9,1.7,4.9,2v2.5C4.9,4.8,5.1,5,5.4,5s0.5-0.2,0.5-0.5V2.5
		h7.6v3.3c0,0.3,0.2,0.5,0.5,0.5h3.3v11.1h-3c-0.3,0-0.5,0.2-0.5,0.5s0.2,0.5,0.5,0.5H18c0.3,0,0.5-0.2,0.5-0.5L18.5,5.7
		C18.5,5.8,18.5,5.8,18.5,5.7z M14.7,5.3V3.3l2,1.9H14.7z"/>
	<path d="M9.4,12.5c0,0.1,0,0.1,0,0.2v0.6c0,1.3,1,2.3,2.3,2.3s2.3-1,2.3-2.3v-0.6c0-0.1,0-0.1,0-0.2c0,0,0,0,0,0l-1.6-3.6h1.1
		c0.3,0,0.5-0.2,0.5-0.5s-0.2-0.5-0.5-0.5H8.2v-2c0-0.3-0.2-0.5-0.5-0.5S7.2,5.5,7.2,5.8v2H2c-0.3,0-0.5,0.2-0.5,0.5S1.7,8.8,2,8.8
		h1.1l-1.6,3.6c0,0,0,0,0,0c0,0.1,0,0.1,0,0.2v0.6c0,1.3,1,2.3,2.3,2.3s2.3-1,2.3-2.3v-0.6c0-0.1,0-0.1,0-0.2c0,0,0,0,0,0L4.5,8.8
		h2.8v8.7H4.2c-0.3,0-0.5,0.2-0.5,0.5s0.2,0.5,0.5,0.5h7.2c0.3,0,0.5-0.2,0.5-0.5s-0.2-0.5-0.5-0.5H8.2V8.8H11L9.4,12.5
		C9.4,12.5,9.4,12.5,9.4,12.5z M3.8,14.6c-0.7,0-1.3-0.6-1.3-1.3v-0.1h2.6v0.1C5.1,14.1,4.5,14.6,3.8,14.6z M2.8,12.2l1-2.4l1,2.4
		H2.8z M11.7,14.6c-0.7,0-1.3-0.6-1.3-1.3v-0.1H13v0.1C13,14.1,12.4,14.6,11.7,14.6z M11.7,9.8l1,2.4h-2.1L11.7,9.8z"/>
</g>
</svg>
