<?xml version="1.0" encoding="utf-8"?>
<!-- Generator: Adobe Illustrator 27.4.1, SVG Export Plug-In . SVG Version: 6.00 Build 0)  -->
<svg version="1.1" id="icons" xmlns="http://www.w3.org/2000/svg" xmlns:xlink="http://www.w3.org/1999/xlink" x="0px" y="0px"
	 viewBox="0 0 20 20" style="enable-background:new 0 0 20 20;" xml:space="preserve">
<g>
	<path d="M18.2,10.9c-0.8-0.9-1.9-0.3-2.3-0.1c-0.3,0.2-2.2,1.3-3.2,1.9c-0.2-0.4-0.6-0.6-1.1-0.8c0,0-0.1,0-0.1,0l-3-0.5
		c-1.6-0.4-3-0.1-4.1,1l-2.7,2.3c-0.2,0.2-0.3,0.5-0.1,0.8l2.5,3c0.1,0.1,0.3,0.2,0.4,0.2c0.1,0,0.2,0,0.3-0.1l1-0.7
		c0.3-0.2,0.7-0.3,1.1-0.2l3.5,0.6c0.6,0.1,1.3,0,2-0.4c0.9-0.6,5.3-4.1,5.6-4.3C18.6,12.6,18.8,11.7,18.2,10.9z M17.1,12.6
		c-1.6,1.3-4.8,3.8-5.4,4.2c-0.4,0.3-0.8,0.3-1.2,0.3L7,16.4c-0.7-0.1-1.4,0-1.9,0.4l-0.5,0.4l-1.8-2.2l2.3-2c0.8-0.8,1.9-1,3.1-0.7
		l3,0.5c0.3,0.1,0.5,0.3,0.6,0.5c0,0.1,0.1,0.2,0,0.4c-0.1,0.3-0.5,0.5-0.9,0.4l-3.3-0.5c-0.3,0-0.6,0.2-0.6,0.5
		c0,0.3,0.2,0.6,0.5,0.6l3.3,0.5c0.9,0.3,1.8-0.2,2.2-1c0.1-0.1,0.1-0.3,0.1-0.4c1.3-0.8,3.2-1.9,3.4-2c0.5-0.2,0.8-0.3,1-0.1
		C17.5,11.9,17.4,12.2,17.1,12.6z"/>
	<path d="M7.4,6.6c0,0.3,0.2,0.5,0.5,0.5h0.8c0.5,1.4,1.7,2.4,3,2.4c0.9,0,1.7-0.4,2.4-1.2c0.2-0.2,0.1-0.6-0.1-0.8
		c-0.2-0.2-0.6-0.1-0.8,0.1c-0.4,0.5-0.9,0.8-1.5,0.8c-0.7,0-1.4-0.5-1.8-1.3h1.5c0.3,0,0.5-0.2,0.5-0.5s-0.2-0.5-0.5-0.5H9.7
		c0-0.2,0-0.4,0-0.6c0-0.2,0-0.4,0-0.6h1.8c0.3,0,0.5-0.2,0.5-0.5s-0.2-0.5-0.5-0.5H10c0.4-0.8,1.1-1.3,1.8-1.3
		c0.6,0,1.1,0.3,1.5,0.8c0.2,0.2,0.5,0.3,0.8,0.1c0.2-0.2,0.3-0.5,0.1-0.8c-0.6-0.8-1.5-1.2-2.4-1.2c-1.3,0-2.5,1-3,2.4H8
		c-0.3,0-0.5,0.2-0.5,0.5S7.7,4.9,8,4.9h0.6c0,0.2,0,0.4,0,0.6c0,0.2,0,0.4,0,0.6H8C7.7,6.1,7.4,6.3,7.4,6.6z"/>
</g>
</svg>
