<?xml version="1.0" encoding="utf-8"?>
<!-- Generator: Adobe Illustrator 27.4.1, SVG Export Plug-In . SVG Version: 6.00 Build 0)  -->
<svg version="1.1" id="icons" xmlns="http://www.w3.org/2000/svg" xmlns:xlink="http://www.w3.org/1999/xlink" x="0px" y="0px"
	 viewBox="0 0 20 20" style="enable-background:new 0 0 20 20;" xml:space="preserve">
<g>
	<path d="M18.2,10.9c-0.8-0.9-1.9-0.3-2.3-0.1c-0.3,0.2-2.2,1.3-3.2,1.9c-0.2-0.4-0.6-0.6-1.1-0.8c0,0-0.1,0-0.1,0l-3-0.5
		c-1.6-0.4-3-0.1-4.1,1l-2.7,2.3c-0.2,0.2-0.3,0.5-0.1,0.8l2.5,3c0.1,0.1,0.3,0.2,0.4,0.2c0.1,0,0.2,0,0.3-0.1l1-0.7
		c0.3-0.2,0.7-0.3,1.1-0.2l3.5,0.6c0.6,0.1,1.3,0,2-0.4c0.9-0.6,5.3-4.1,5.6-4.3C18.6,12.6,18.8,11.7,18.2,10.9z M17.1,12.6
		c-1.6,1.3-4.8,3.8-5.4,4.2c-0.4,0.3-0.8,0.3-1.2,0.3L7,16.4c-0.7-0.1-1.4,0-1.9,0.4l-0.5,0.4l-1.8-2.2l2.3-2c0.8-0.8,1.9-1,3.1-0.7
		l3,0.5c0.3,0.1,0.5,0.3,0.6,0.5c0,0.1,0.1,0.2,0,0.4c-0.1,0.3-0.5,0.5-0.9,0.4l-3.3-0.5c-0.3,0-0.6,0.2-0.6,0.5
		c0,0.3,0.2,0.6,0.5,0.6l3.3,0.5c0.9,0.3,1.8-0.2,2.2-1c0.1-0.1,0.1-0.3,0.1-0.4c1.3-0.8,3.2-1.9,3.4-2c0.5-0.2,0.8-0.3,1-0.1
		C17.5,11.9,17.4,12.2,17.1,12.6z"/>
	<path d="M10.9,9v0.6c0,0.3,0.2,0.5,0.5,0.5S12,9.9,12,9.6V9c1-0.2,1.6-0.8,1.8-1.7c0.2-1.5-1.2-1.9-2.1-2.1c-1-0.3-1.4-0.4-1.4-0.9
		c0-0.2,0.2-0.5,0.6-0.6c0.2-0.1,1.1-0.4,2,0.5c0.2,0.2,0.6,0.2,0.8,0c0.2-0.2,0.2-0.6,0-0.8C13.1,3,12.5,2.7,12,2.6V2
		c0-0.3-0.2-0.5-0.5-0.5S10.9,1.7,10.9,2v0.6c-0.2,0-0.3,0.1-0.5,0.1C9.7,3,9.2,3.7,9.2,4.3c0,1.3,1.3,1.7,2.2,1.9
		c1.1,0.3,1.4,0.5,1.3,0.9C12.6,7.8,12,8,11.5,8c-1.2,0-1.5-0.5-1.5-0.6C9.8,7.2,9.5,7.1,9.2,7.2C8.9,7.4,8.8,7.7,9,8
		C9,8.1,9.5,8.9,10.9,9z"/>
</g>
</svg>
