<?xml version="1.0" encoding="utf-8"?>
<!-- Generator: Adobe Illustrator 27.4.1, SVG Export Plug-In . SVG Version: 6.00 Build 0)  -->
<svg version="1.1" id="icons" xmlns="http://www.w3.org/2000/svg" xmlns:xlink="http://www.w3.org/1999/xlink" x="0px" y="0px"
	 viewBox="0 0 20 20" style="enable-background:new 0 0 20 20;" xml:space="preserve">
<g>
	<path d="M14,2.5c-2.1,0-3.4,1.7-4,3c-0.6-1.3-1.8-3-4-3C3.4,2.5,1.5,4.4,1.5,7c0,0.6,0.1,1.2,0.3,1.8c0.1,0.3,0.4,0.4,0.7,0.3
		C2.8,9,2.9,8.7,2.8,8.4C2.6,7.9,2.5,7.4,2.5,7C2.5,5,4,3.5,6,3.5c2,0,3,2.2,3.3,3.1C9.4,7,9.7,7.2,10,7.2c0,0,0,0,0,0
		c0.3,0,0.6-0.2,0.7-0.5C11,5.8,12,3.5,14,3.5c2,0,3.5,1.4,3.5,3.4c0,1.7-1.2,4.8-7.1,9.4l0,0c0,0-0.1-0.1-0.1-0.1
		c-0.6-0.4-1.9-1.2-3.6-2.9c-0.2-0.2-0.6-0.2-0.8,0s-0.2,0.6,0,0.8c1.8,1.8,3.2,2.6,3.8,3.1c0.2,0.1,0.3,0.2,0.3,0.2
		c0.1,0.1,0.3,0.2,0.4,0.2c0.2,0,0.3-0.1,0.4-0.2l0.3-0.2c5-3.9,7.6-7.3,7.6-10.2C18.5,4.4,16.6,2.5,14,2.5z"/>
	<path d="M6.9,11.4l0.8-1.9l1.4,4c0.1,0.2,0.3,0.3,0.5,0.4c0,0,0,0,0.1,0c0.2,0,0.4-0.1,0.5-0.3l1.4-2.4h1.7c0.3,0,0.5-0.2,0.5-0.6
		c0-0.3-0.2-0.5-0.5-0.5h-2c-0.2,0-0.4,0.1-0.5,0.3l-1,1.7L8.3,7.9C8.2,7.7,8,7.6,7.8,7.6c-0.2,0-0.4,0.1-0.5,0.3L6,10.7l-4,0
		c-0.3,0-0.5,0.2-0.5,0.6c0,0.3,0.2,0.5,0.5,0.5c0,0,0,0,0,0l4.4,0C6.6,11.7,6.8,11.6,6.9,11.4z"/>
</g>
</svg>
