<?xml version="1.0" encoding="utf-8"?>
<!-- Generator: Adobe Illustrator 27.4.1, SVG Export Plug-In . SVG Version: 6.00 Build 0)  -->
<svg version="1.1" id="icons" xmlns="http://www.w3.org/2000/svg" xmlns:xlink="http://www.w3.org/1999/xlink" x="0px" y="0px"
	 viewBox="0 0 20 20" style="enable-background:new 0 0 20 20;" xml:space="preserve">
<g>
	<path d="M18.3,6.7c-1-3.4-3.7-5.2-7.7-5.2c-4.3,0-6.9,2.4-6.9,6.4l-2,2.8c-0.2,0.3-0.2,0.7-0.1,1c0.1,0.3,0.4,0.6,0.8,0.8l1.1,0.2
		v1.3c0,1.4,1.2,2.5,2.7,2.5h1.4V18c0,0.3,0.2,0.5,0.5,0.5h6.8c0.3,0,0.5-0.2,0.5-0.5v-2.1c0-0.8,0.3-1.6,0.9-2.2
		C17.5,12.4,19.2,9.8,18.3,6.7z M15.5,12.9c-0.8,0.8-1.2,1.9-1.2,3v1.6H8.6v-1.6c0-0.3-0.2-0.5-0.5-0.5H6.1c-0.9,0-1.6-0.6-1.6-1.4
		v-1.7c0-0.3-0.2-0.5-0.4-0.5l-1.5-0.3c0,0-0.1,0-0.1-0.1l2.1-2.9C4.7,8.2,4.7,8.1,4.7,8c0-4.7,3.7-5.4,5.8-5.4
		c3.5,0,5.8,1.5,6.7,4.5C18,9.5,16.7,11.6,15.5,12.9z"/>
	<path d="M12.8,6.2c-0.9,0-1.5,0.5-1.8,1.1c-0.4-0.5-1-1.1-1.9-1.1c-1.4,0-2.4,1-2.4,2.4c0,2.1,2.9,4.2,3.8,4.9l0.6,0.4l0.5-0.4
		c2.4-1.9,3.6-3.5,3.6-5C15.2,7.2,14.1,6.2,12.8,6.2z M11,12.6c-2.2-1.6-3.3-2.9-3.3-4c0-0.8,0.5-1.3,1.3-1.3c0.8,0,1.1,0.9,1.3,1.3
		C10.4,8.8,10.7,9,10.9,9l0.5,0l0.1-0.4c0.1-0.4,0.5-1.3,1.3-1.3c0.8,0,1.3,0.5,1.3,1.3C14.1,9.2,13.7,10.5,11,12.6z"/>
</g>
</svg>
