<?xml version="1.0" encoding="utf-8"?>
<!-- Generator: Adobe Illustrator 27.4.1, SVG Export Plug-In . SVG Version: 6.00 Build 0)  -->
<svg version="1.1" id="icons" xmlns="http://www.w3.org/2000/svg" xmlns:xlink="http://www.w3.org/1999/xlink" x="0px" y="0px"
	 viewBox="0 0 20 20" style="enable-background:new 0 0 20 20;" xml:space="preserve">
<path d="M18.5,7.9C18.5,7.9,18.5,7.9,18.5,7.9c-0.1-0.1-0.1-0.2-0.2-0.2c0,0,0,0,0,0l0,0c0,0,0,0,0,0l-7.9-4.1
	c-0.2-0.1-0.3-0.1-0.5,0l-8,4.2C1.6,7.8,1.5,8,1.5,8.2c0,0.2,0.1,0.4,0.3,0.5l3.1,1.6l0,3.3c0,0.2,0.1,0.4,0.3,0.5l4.6,2.4
	c0.1,0,0.2,0.1,0.3,0.1s0.2,0,0.3-0.1l4.6-2.4c0.2-0.1,0.3-0.3,0.3-0.5l0-3.3l2.3-1.2V12c0,0.3,0.2,0.5,0.5,0.5s0.5-0.2,0.5-0.5V8.2
	C18.5,8.1,18.5,8,18.5,7.9z M14.1,13.3L10,15.4l-4-2.1l0-2.4l3.8,2c0.1,0,0.2,0.1,0.3,0.1s0.2,0,0.3-0.1l3.8-2L14.1,13.3z M10,11.7
	L3.2,8.2L10,4.6l6.8,3.5L10,11.7z"/>
</svg>
