<?xml version="1.0" encoding="utf-8"?>
<!-- Generator: Adobe Illustrator 27.4.1, SVG Export Plug-In . SVG Version: 6.00 Build 0)  -->
<svg version="1.1" id="icons" xmlns="http://www.w3.org/2000/svg" xmlns:xlink="http://www.w3.org/1999/xlink" x="0px" y="0px"
	 viewBox="0 0 20 20" style="enable-background:new 0 0 20 20;" xml:space="preserve">
<g>
	<path d="M11.6,12.1c-0.3,0-0.5,0.2-0.5,0.5v3.6c0,0.6-0.4,1.1-0.9,1.1H3.5c-0.5,0-0.9-0.5-0.9-1.1V5.1h3c0.3,0,0.5-0.2,0.5-0.5
		S5.8,4,5.5,4h-3V3.7c0-0.6,0.4-1.1,0.9-1.1h2c0.3,0,0.5-0.2,0.5-0.5S5.8,1.5,5.5,1.5h-2c-1.1,0-2,1-2,2.2v12.6c0,1.2,0.9,2.2,2,2.2
		h6.6c1.1,0,2-1,2-2.2v-3.6C12.1,12.4,11.9,12.1,11.6,12.1z"/>
	<path d="M4.8,15.5c0,0.3,0.2,0.5,0.5,0.5h3c0.3,0,0.5-0.2,0.5-0.5S8.6,15,8.3,15h-3C5,15,4.8,15.2,4.8,15.5z"/>
	<path d="M16.5,1.5h-7c-1.1,0-2,0.9-2,2V8c0,1.1,0.9,2,2,2h5.9l2.2,2.3c0.1,0.1,0.2,0.2,0.4,0.2c0.1,0,0.1,0,0.2,0
		c0.2-0.1,0.3-0.3,0.3-0.5V3.5C18.5,2.4,17.6,1.5,16.5,1.5z M17.5,10.6L16,9.1C15.9,9,15.8,9,15.6,9H9.5C9,9,8.5,8.5,8.5,8V3.5
		C8.5,3,9,2.5,9.5,2.5h7c0.5,0,0.9,0.4,0.9,0.9V10.6z"/>
	<path d="M15.4,4h-5c-0.3,0-0.5,0.2-0.5,0.5s0.2,0.5,0.5,0.5h5c0.3,0,0.5-0.2,0.5-0.5S15.7,4,15.4,4z"/>
	<path d="M14.2,6.3h-3.7c-0.3,0-0.5,0.2-0.5,0.5s0.2,0.5,0.5,0.5h3.7c0.3,0,0.5-0.2,0.5-0.5S14.5,6.3,14.2,6.3z"/>
</g>
</svg>
