<?xml version="1.0" encoding="utf-8"?>
<!-- Generator: Adobe Illustrator 27.4.1, SVG Export Plug-In . SVG Version: 6.00 Build 0)  -->
<svg version="1.1" id="icons" xmlns="http://www.w3.org/2000/svg" xmlns:xlink="http://www.w3.org/1999/xlink" x="0px" y="0px"
	 viewBox="0 0 20 20" style="enable-background:new 0 0 20 20;" xml:space="preserve">
<g>
	<path d="M10.9,9.4H9.5V8c0-0.3-0.2-0.5-0.5-0.5S8.4,7.7,8.4,8v2c0,0.3,0.2,0.5,0.5,0.5h2c0.3,0,0.6-0.2,0.6-0.5S11.2,9.4,10.9,9.4z
		"/>
	<path d="M15.7,8.3h-1.2V6.6c0-0.9-0.8-1.7-1.7-1.7h-0.5V2.5c0-0.6-0.5-1-1.1-1H6.7c-0.6,0-1.1,0.5-1.1,1V5H5.1
		C4.1,5,3.4,5.7,3.4,6.6v6.7c0,0.9,0.8,1.7,1.7,1.7h0.5v2.5c0,0.6,0.5,1,1.1,1h4.6c0.6,0,1.1-0.5,1.1-1V15h0.4
		c0.9,0,1.7-0.8,1.7-1.7v-1.6h1.2c0.5,0,0.9-0.4,0.9-0.9V9.2C16.6,8.7,16.2,8.3,15.7,8.3z M6.7,2.5l4.6-0.1V5H6.6L6.7,2.5z
		 M11.3,17.5l-4.6,0.1V15h4.6L11.3,17.5z M13.4,13.4c0,0.3-0.3,0.6-0.6,0.6H5.1c-0.3,0-0.6-0.3-0.6-0.6V6.6C4.5,6.3,4.7,6,5.1,6h7.7
		c0.3,0,0.6,0.3,0.6,0.6V13.4z M15.5,10.7h-1V9.3h1V10.7z"/>
</g>
</svg>
