<?xml version="1.0" encoding="utf-8"?>
<!-- Generator: Adobe Illustrator 27.4.1, SVG Export Plug-In . SVG Version: 6.00 Build 0)  -->
<svg version="1.1" id="icons" xmlns="http://www.w3.org/2000/svg" xmlns:xlink="http://www.w3.org/1999/xlink" x="0px" y="0px"
	 viewBox="0 0 20 20" style="enable-background:new 0 0 20 20;" xml:space="preserve">
<g>
	<path d="M15.8,15.6h-2c-0.3,0-0.5,0.2-0.5,0.5s0.2,0.5,0.5,0.5h2c0.3,0,0.5-0.2,0.5-0.5S16.1,15.6,15.8,15.6z"/>
	<path d="M17,7h-4.3c-0.8,0-1.5,0.7-1.5,1.7v2.2H3.3c-0.4,0-0.7-0.3-0.7-0.7V3.3c0-0.4,0.3-0.7,0.7-0.7h9.9c0.4,0,0.7,0.3,0.7,0.7
		v1.5c0,0.3,0.2,0.5,0.5,0.5S15,5.1,15,4.8V3.3c0-1-0.8-1.8-1.8-1.8H3.3c-1,0-1.8,0.8-1.8,1.8v6.8c0,1,0.8,1.8,1.8,1.8h4.4v2H5.3
		c-0.3,0-0.5,0.2-0.5,0.5S5,15,5.3,15h5.8v1.8c0,0.9,0.7,1.7,1.5,1.7H17c0.8,0,1.5-0.7,1.5-1.7V8.6C18.5,7.7,17.9,7,17,7z M8.8,14
		v-2h2.4v2H8.8z M17.5,16.9c0,0.3-0.2,0.6-0.4,0.6h-4.3c-0.2,0-0.4-0.3-0.4-0.6V8.6c0-0.3,0.2-0.6,0.4-0.6H17c0.2,0,0.4,0.3,0.4,0.6
		V16.9z"/>
</g>
</svg>
