<?xml version="1.0" encoding="utf-8"?>
<!-- Generator: Adobe Illustrator 27.4.1, SVG Export Plug-In . SVG Version: 6.00 Build 0)  -->
<svg version="1.1" id="icons" xmlns="http://www.w3.org/2000/svg" xmlns:xlink="http://www.w3.org/1999/xlink" x="0px" y="0px"
	 viewBox="0 0 20 20" style="enable-background:new 0 0 20 20;" xml:space="preserve">
<path d="M18.5,10.4l-2.2-5c0.5,0.1,1,0.1,1.7,0.1c0.3,0,0.5-0.2,0.5-0.5S18.3,4.4,18,4.4c-1.3,0-2.1-0.2-2.8-0.4
	c-0.5-0.1-1-0.3-1.5-0.3c-0.6,0-1.1,0.2-1.6,0.4c-0.5,0.2-0.9,0.4-1.4,0.5V2c0-0.3-0.2-0.5-0.5-0.5S9.5,1.7,9.5,2v2.6
	C8.9,4.5,8.5,4.3,8,4.1C7.5,3.9,7,3.7,6.4,3.7c-0.5,0-1,0.1-1.5,0.3C4.1,4.2,3.3,4.4,2,4.4c-0.3,0-0.5,0.2-0.5,0.5S1.7,5.5,2,5.5
	c0.7,0,1.2-0.1,1.7-0.1l-2.2,5c0,0,0,0,0,0c0,0.1,0,0.1,0,0.2v0.5c0,1.7,1.4,3,3,3s3-1.4,3-3v-0.5c0-0.1,0-0.1,0-0.2c0,0,0,0,0,0
	L5.2,5C5.6,4.9,6,4.8,6.4,4.8c0.3,0,0.7,0.2,1.2,0.4c0.5,0.2,1.1,0.5,1.9,0.6v11.8H5c-0.3,0-0.5,0.2-0.5,0.5s0.2,0.5,0.5,0.5h10
	c0.3,0,0.5-0.2,0.5-0.5s-0.2-0.5-0.5-0.5h-4.5V5.7c0.7-0.1,1.4-0.3,1.9-0.6c0.5-0.2,0.8-0.4,1.2-0.4c0.4,0,0.7,0.1,1.2,0.2l-2.3,5.4
	c0,0,0,0,0,0c0,0.1,0,0.1,0,0.2v0.5c0,1.7,1.4,3,3,3s3-1.4,3-3v-0.5C18.5,10.5,18.5,10.5,18.5,10.4C18.5,10.4,18.5,10.4,18.5,10.4z
	 M4.5,13.1c-1.1,0-1.9-0.8-1.9-1.9h3.9C6.4,12.2,5.6,13.1,4.5,13.1z M2.8,10.1l1.7-3.9l1.7,3.9H2.8z M15.5,6.2l1.7,3.9h-3.3
	L15.5,6.2z M15.5,13.1c-1.1,0-1.9-0.8-1.9-1.9h3.9C17.4,12.2,16.6,13.1,15.5,13.1z"/>
</svg>
