<?xml version="1.0" encoding="utf-8"?>
<!-- Generator: Adobe Illustrator 27.4.1, SVG Export Plug-In . SVG Version: 6.00 Build 0)  -->
<svg version="1.1" id="icons" xmlns="http://www.w3.org/2000/svg" xmlns:xlink="http://www.w3.org/1999/xlink" x="0px" y="0px"
	 viewBox="0 0 20 20" style="enable-background:new 0 0 20 20;" xml:space="preserve">
<g>
	<path d="M12.3,7.9c-0.4,0-0.8,0.4-0.8,0.8s0.4,0.8,0.8,0.8s0.8-0.4,0.8-0.8S12.8,7.9,12.3,7.9z"/>
	<path d="M17.3,7.8h-1.2L15.2,6V2c0-0.2-0.1-0.3-0.2-0.4c-0.1-0.1-0.3-0.2-0.4-0.1c-0.1,0-2.2,0.2-3.2,2C10.7,3.2,9.9,3.1,9,3.1
		c-0.5,0-1,0-1.5,0.1c0,0,0,0-0.1,0c0,0,0,0-0.1,0c0,0-0.1,0.1-0.1,0.1c0,0,0,0,0,0C7.2,3.5,7.1,3.6,7.1,3.7L5.2,8.9L3.3,6.8
		c0-0.1-0.1-0.1-0.2-0.2C3,6.4,2.7,6.5,2.5,6.6c0,0,0,0,0,0c0,0,0,0,0,0c0,0-0.1,0.1-0.1,0.1c0,0,0,0,0,0c0,0,0,0,0,0
		c-0.6,1-0.9,2.2-0.9,3.4c0,1.7,0.6,3.3,1.8,4.6l0,3.2c0,0.1,0.1,0.3,0.2,0.4c0.1,0.1,0.2,0.2,0.4,0.2h3c0.3,0,0.5-0.2,0.5-0.5
		l0-0.9c1.2,0.3,2.6,0.2,3.5,0l0,0.9c0,0.1,0.1,0.3,0.2,0.4s0.2,0.2,0.4,0.2l3,0c0.1,0,0.3-0.1,0.4-0.2c0.1-0.1,0.2-0.2,0.2-0.4
		l0-3.1c0.7-0.7,1.1-1.4,1.3-1.8h1.2c0.7,0,1.2-0.6,1.2-1.3V9.1C18.5,8.4,18,7.8,17.3,7.8z M17.5,11.8c0,0.1-0.1,0.2-0.1,0.2h-1.6
		c-0.2,0-0.4,0.1-0.5,0.4c0,0-0.4,1-1.3,2c-0.1,0.1-0.2,0.2-0.2,0.4l0,2.8l-1.9,0l0-1c0-0.2-0.1-0.3-0.2-0.4
		c-0.1-0.1-0.3-0.1-0.5-0.1c0,0-1.1,0.3-2.2,0.3c-0.7,0-1.4-0.1-2.1-0.3c-0.2,0-0.3,0-0.5,0.1c-0.1,0.1-0.2,0.3-0.2,0.4l0,1H4.3
		l0-2.9c0-0.1-0.1-0.3-0.2-0.4c-1-1.1-1.6-2.5-1.6-4C2.5,9.5,2.7,8.7,3,8l3.3,3.9c0.2,0.2,0.4,0.2,0.6,0.2l1.6-0.6l1.8,2.4
		c0.1,0.1,0.3,0.2,0.4,0.2c0.1,0,0.2,0,0.3-0.1c0.2-0.2,0.3-0.5,0.1-0.8l-2.1-2.7c-0.2-0.2-0.4-0.3-0.6-0.2l-1.6,0.6L6,9.9l2.1-5.6
		c0.3,0,0.6-0.1,1-0.1c1,0,1.7,0.1,2.5,0.4c0.1,0.1,0.3,0.1,0.5,0c0.2-0.1,0.3-0.2,0.3-0.3c0.3-1,1.2-1.5,1.8-1.7v3.4
		c0,0.1,0,0.2,0.1,0.2l1.1,2.2c0.1,0.2,0.3,0.3,0.5,0.3h1.6c0.1,0,0.1,0.1,0.1,0.2V11.8z"/>
</g>
</svg>
