<?xml version="1.0" encoding="utf-8"?>
<!-- Generator: Adobe Illustrator 27.4.1, SVG Export Plug-In . SVG Version: 6.00 Build 0)  -->
<svg version="1.1" id="icons" xmlns="http://www.w3.org/2000/svg" xmlns:xlink="http://www.w3.org/1999/xlink" x="0px" y="0px"
	 viewBox="0 0 20 20" style="enable-background:new 0 0 20 20;" xml:space="preserve">
<g>
	<path d="M9,5.6c1.1,0,2.1-0.9,2.1-2.1S10.1,1.5,9,1.5S6.9,2.4,6.9,3.5S7.9,5.6,9,5.6z M9,2.5c0.5,0,1,0.4,1,1s-0.4,1-1,1
		s-1-0.4-1-1S8.5,2.5,9,2.5z"/>
	<path d="M16.2,11c-0.9,0-1.5,0.5-1.8,1.1c-0.5-0.7-1.1-1.1-1.9-1.1c-1.4,0-2.4,1-2.4,2.4H7.8c-0.4,0-0.8-0.5-0.8-1.1V7.7H11v1.6
		c0,0.3,0.2,0.5,0.5,0.5S12,9.6,12,9.3V7.7h4c0.3,0,0.5-0.2,0.5-0.5S16.3,6.6,16,6.6H2c-0.3,0-0.5,0.2-0.5,0.5S1.7,7.7,2,7.7h4v4.5
		c0,0.9,0.4,1.6,1,2V18c0,0.3,0.2,0.5,0.5,0.5s0.5-0.2,0.5-0.5v-3.5h1.9V18c0,0.3,0.2,0.5,0.5,0.5S11,18.3,11,18v-2.3
		c0.9,1.2,2.2,2.1,2.8,2.6l0.6,0.4l0.5-0.4c2.4-1.9,3.6-3.5,3.6-5C18.5,12,17.5,11,16.2,11z M14.4,17.3c-2.2-1.6-3.3-2.9-3.3-4
		c0-0.8,0.5-1.3,1.3-1.3c0.8,0,1.1,0.9,1.3,1.3c0.1,0.2,0.3,0.4,0.6,0.4l0.5,0l0.1-0.4c0.1-0.4,0.5-1.3,1.3-1.3
		c0.8,0,1.3,0.5,1.3,1.3C17.5,14,17.1,15.3,14.4,17.3z"/>
</g>
</svg>
