<?xml version="1.0" encoding="utf-8"?>
<!-- Generator: Adobe Illustrator 27.4.1, SVG Export Plug-In . SVG Version: 6.00 Build 0)  -->
<svg version="1.1" id="icons" xmlns="http://www.w3.org/2000/svg" xmlns:xlink="http://www.w3.org/1999/xlink" x="0px" y="0px"
	 viewBox="0 0 20 20" style="enable-background:new 0 0 20 20;" xml:space="preserve">
<g>
	<path d="M10.7,13H9.3c-1.7,0-3.1,1.2-3.5,2.9c-0.1,0.4,0,0.7,0.2,1c0.2,0.2,0.4,0.4,0.7,0.5c0.3,0.1,1.5,0.5,3.2,0.5
		c1.7,0,3-0.4,3.3-0.5c0.3-0.1,0.6-0.2,0.7-0.5c0.2-0.3,0.3-0.7,0.2-1C13.8,14.2,12.4,13,10.7,13z M13.1,16.3
		C13.1,16.3,13.1,16.3,13.1,16.3c-0.1,0-0.1,0-0.2,0.1c0,0-1.3,0.5-3,0.5c-1.6,0-2.8-0.5-2.9-0.5c0,0-0.1-0.1-0.2-0.1
		c0,0,0-0.1,0-0.2c0.3-1.2,1.3-2.1,2.4-2.1h1.5c1.1,0,2.1,0.9,2.4,2.1C13.1,16.2,13.1,16.3,13.1,16.3z"/>
	<path d="M14,7.1c1.4,0,2.5-1.1,2.5-2.5S15.4,2.1,14,2.1s-2.5,1.1-2.5,2.5S12.6,7.1,14,7.1z M14,3.2c0.8,0,1.4,0.6,1.4,1.4
		C15.5,5.4,14.8,6,14,6s-1.4-0.6-1.4-1.4C12.6,3.8,13.3,3.2,14,3.2z"/>
	<path d="M18.5,11.8c-0.5-2-2.2-3.3-4.1-3.3H12c0,0,0,0,0,0c-0.4-0.6-1.1-1.1-2-1.1c-0.8,0-1.5,0.4-2,1.1c0,0,0,0,0,0H5.6
		c-2,0-3.7,1.4-4.1,3.3c-0.1,0.4,0,0.8,0.2,1.1c0.2,0.3,0.5,0.5,0.9,0.5c0.2,0,0.6,0.2,1.3,0.3c0,0,0.1,0,0.1,0
		c0.3,0,0.5-0.2,0.5-0.4c0.1-0.3-0.1-0.6-0.4-0.6c-0.7-0.1-1.2-0.3-1.2-0.3c0,0-0.1,0-0.1,0c-0.1,0-0.1-0.1-0.1-0.1
		c0-0.1-0.1-0.1,0-0.2c0.3-1.5,1.6-2.5,3-2.5h2.1c0,0.1,0,0.1,0,0.2c0,1.3,1.1,2.4,2.4,2.4s2.4-1.1,2.4-2.4c0-0.1,0-0.1,0-0.2h2.1
		c1.5,0,2.7,1,3,2.5c0,0.1,0,0.2,0,0.2c0,0-0.1,0.1-0.1,0.1c0,0-0.1,0-0.1,0c0,0-0.5,0.2-1.2,0.3c-0.3,0.1-0.5,0.3-0.4,0.6
		c0,0.3,0.3,0.4,0.5,0.4c0,0,0.1,0,0.1,0c0.7-0.1,1.1-0.3,1.3-0.3c0.3-0.1,0.7-0.2,0.9-0.5C18.5,12.6,18.6,12.2,18.5,11.8z M10,11
		c-0.7,0-1.3-0.6-1.3-1.3S9.3,8.5,10,8.5c0.7,0,1.3,0.6,1.3,1.3S10.7,11,10,11z"/>
	<path d="M6,7.1c1.4,0,2.5-1.1,2.5-2.5S7.4,2.1,6,2.1S3.4,3.2,3.4,4.6S4.6,7.1,6,7.1z M6,3.2c0.8,0,1.4,0.6,1.4,1.4
		C7.4,5.4,6.7,6,6,6C5.2,6,4.5,5.4,4.5,4.6C4.5,3.8,5.2,3.2,6,3.2z"/>
</g>
</svg>
