<?xml version="1.0" encoding="utf-8"?>
<!-- Generator: Adobe Illustrator 27.4.1, SVG Export Plug-In . SVG Version: 6.00 Build 0)  -->
<svg version="1.1" id="icons" xmlns="http://www.w3.org/2000/svg" xmlns:xlink="http://www.w3.org/1999/xlink" x="0px" y="0px"
	 viewBox="0 0 20 20" style="enable-background:new 0 0 20 20;" xml:space="preserve">
<path d="M16.4,4.5h-2.5V4c0-1.4-1.1-2.5-2.5-2.5H8.7C7.3,1.5,6.1,2.6,6.1,4v0.5H3.6c-1.2,0-2.2,1.1-2.2,2.4v4.8c0,0.9,0.4,1.6,1,2
	v3.1c0,0.9,0.7,1.6,1.6,1.6h11.8c0.9,0,1.6-0.7,1.6-1.6v-3.1c0.6-0.4,1-1.2,1-2V6.9C18.5,5.6,17.6,4.5,16.4,4.5z M7.2,4
	c0-0.8,0.7-1.5,1.5-1.5h2.6c0.8,0,1.5,0.7,1.5,1.5v0.5H7.2V4z M2.5,6.9c0-0.7,0.5-1.3,1.1-1.3h12.7c0.6,0,1.1,0.6,1.1,1.3v4.8
	c0,0.7-0.5,1.3-1.1,1.3h-4.1v-1.9c0-0.3-0.2-0.5-0.5-0.5H8.2c-0.3,0-0.5,0.2-0.5,0.5v1.9H3.6c-0.6,0-1.1-0.6-1.1-1.3V6.9z
	 M11.2,11.7v2.4c0,0.5-0.7,0.7-1.2,0.7s-1.2-0.2-1.2-0.7v-2.4H11.2z M16.5,14.2v2.7c0,0.3-0.2,0.5-0.5,0.5H4.1
	c-0.3,0-0.5-0.2-0.5-0.5v-2.7h0.1h4.1c0,0.5,0.3,1,0.8,1.3c0.4,0.3,0.9,0.4,1.5,0.4c1.3,0,2.3-0.7,2.3-1.7H16.5L16.5,14.2z"/>
</svg>
