<?xml version="1.0" encoding="utf-8"?>
<!-- Generator: Adobe Illustrator 27.4.1, SVG Export Plug-In . SVG Version: 6.00 Build 0)  -->
<svg version="1.1" id="Ebene_2_00000112629198087992614750000010402879675928682894_"
	 xmlns="http://www.w3.org/2000/svg" xmlns:xlink="http://www.w3.org/1999/xlink" x="0px" y="0px" viewBox="0 0 17 17"
	 style="enable-background:new 0 0 17 17;" xml:space="preserve">
<g>
	<path d="M14.7,13.1c-0.2-0.2-0.3-0.5-0.3-0.8l0-2.8c0-0.4-0.5-1.5-1.8-4l-0.4-0.7c-0.4-0.8-0.9-1.9-2-1.5C9.6,3.4,9,4,9.4,5.3
		l0.7,2.9c-0.1,0-0.2,0.1-0.3,0.2C9.4,8.7,9.2,9.3,9.2,10l0,1.9c-0.1,1.3,0.4,2.4,1.4,3.1l2.2,1.8C12.9,17,13,17,13.1,17
		c0.1,0,0.3-0.1,0.4-0.2l2-2.4c0.2-0.2,0.2-0.5,0-0.7L14.7,13.1z M13,15.8l-1.8-1.5c-0.7-0.5-1-1.3-1-2.3v-2c0-0.5,0.1-0.8,0.3-0.9
		c0,0,0.1-0.1,0.1-0.1c0,0,0,0,0.1,0c0,0,0,0,0,0c0.3,0.1,0.4,0.4,0.4,0.6v1.6c0,0.3,0.2,0.5,0.5,0.5s0.5-0.2,0.5-0.5V9.7
		c0-0.7-0.3-1.2-0.9-1.5L10.4,5c-0.2-0.7-0.1-0.8,0-0.8c0.3-0.1,0.6,0.6,0.8,1L11.6,6c0.4,0.8,1.7,3.1,1.7,3.5l0,2.8
		c0,0.6,0.2,1.1,0.6,1.5l0.3,0.3L13,15.8z"/>
	<path d="M7.3,8.1L8,5.3C8.4,4,7.9,3.4,7.3,3.2C6.2,2.9,5.7,4,5.3,4.8L4.9,5.5c-1.4,2.6-1.8,3.6-1.8,4l0,2.8c0,0.3-0.1,0.6-0.3,0.8
		L2,13.8c-0.2,0.2-0.2,0.5,0,0.7l2,2.4C4,16.9,4.2,17,4.3,17c0.1,0,0.2,0,0.3-0.1l2.2-1.8c1-0.7,1.5-1.8,1.4-3.1v-2
		c0-0.8-0.2-1.4-0.6-1.7C7.5,8.2,7.4,8.2,7.3,8.1z M6.2,14.3l-1.8,1.5l-1.3-1.6l0.3-0.3C3.8,13.5,4,12.9,4,12.4l0-2.8
		C4.1,9.2,4.7,8,5.8,6l0.4-0.8c0.2-0.4,0.5-1.1,0.8-1c0.1,0,0.3,0.1,0,0.8L6.2,8.2C5.7,8.4,5.3,9,5.3,9.7v1.6c0,0.3,0.2,0.5,0.5,0.5
		s0.5-0.2,0.5-0.5V9.7c0-0.2,0-0.5,0.4-0.6c0,0,0,0,0,0c0.1,0,0.2,0,0.2,0C7.1,9.2,7.2,9.5,7.2,10l0,2C7.3,13,7,13.7,6.2,14.3z"/>
	<path d="M8.5,0C3.8,0,0,3.8,0,8.5C0,8.8,0.2,9,0.5,9S1,8.8,1,8.5C1,4.4,4.4,1,8.5,1S16,4.4,16,8.5C16,8.8,16.2,9,16.5,9
		S17,8.8,17,8.5C17,3.8,13.2,0,8.5,0z"/>
</g>
</svg>
